<?xml version="1.0" encoding="utf-8"?>
<!-- Generator: Adobe Illustrator 20.1.0, SVG Export Plug-In . SVG Version: 6.00 Build 0)  -->
<svg version="1.1" id="Layer_1" xmlns="http://www.w3.org/2000/svg" xmlns:xlink="http://www.w3.org/1999/xlink" x="0px" y="0px"
	 viewBox="0 0 250 150.5" style="enable-background:new 0 0 250 150.5;" xml:space="preserve">
<style type="text/css">
	.st0{fill-rule:evenodd;clip-rule:evenodd;fill:#231C18;}
	.st1{fill:#231C18;}
</style>
<g>
	<path class="st0" d="M105.2,115.2c0-5.2-3.8-9.3-9.5-9.3c-5.8,0-9.5,4-9.5,9.3c0,5.2,3.7,9.3,9.5,9.3
		C101.6,124.5,105.2,120.4,105.2,115.2L105.2,115.2L105.2,115.2z M101.3,115c0,2.7-1.5,6.1-5.6,6.1c-4.2,0-5.6-3.3-5.6-6.1
		c0-2.9,2.1-5.7,5.6-5.7C99.2,109.3,101.3,112.2,101.3,115L101.3,115L101.3,115z"/>
	<path class="st0" d="M215.3,115.2c0-5.2-3.8-9.3-9.5-9.3c-5.8,0-9.5,4-9.5,9.3c0,5.2,3.7,9.3,9.5,9.3
		C211.6,124.5,215.3,120.4,215.3,115.2L215.3,115.2L215.3,115.2z M211.4,115c0,2.7-1.5,6.1-5.6,6.1c-4.2,0-5.6-3.3-5.6-6.1
		c0-2.9,2.1-5.7,5.6-5.7C209.3,109.3,211.4,112.2,211.4,115L211.4,115L211.4,115z"/>
	<path class="st0" d="M58.5,117.4h-2.3l1.1-3L58.5,117.4L58.5,117.4L58.5,117.4z M59,120.4l1.4,3.7h4.2l-6.9-18.4H57l-7.1,18.4h4.2
		l1.4-3.7H59L59,120.4L59,120.4z"/>
	<polygon class="st1" points="42.6,144.4 44.8,144.4 46.6,138.9 46.6,138.9 48.7,144.4 50.8,144.4 53.7,136.4 51.5,136.4 49.7,142 
		49.7,142 47.9,136.4 45.5,136.4 43.8,142 43.8,142 41.9,136.4 39.6,136.4 42.6,144.4 42.6,144.4 	"/>
	<polygon class="st1" points="56.8,144.4 59,144.4 60.8,138.9 60.8,138.9 62.9,144.4 65,144.4 67.9,136.4 65.7,136.4 63.9,142 
		63.9,142 62,136.4 59.7,136.4 58,142 58,142 56.1,136.4 53.8,136.4 56.8,144.4 56.8,144.4 	"/>
	<polygon class="st1" points="71,144.4 73.2,144.4 75,138.9 75,138.9 77,144.4 79.2,144.4 82.1,136.4 79.9,136.4 78.1,142 78.1,142 
		76.2,136.4 73.9,136.4 72.2,142 72.2,142 70.3,136.4 68,136.4 71,144.4 71,144.4 	"/>
	<path class="st1" d="M82,143.3c0,0.7,0.7,1.3,1.4,1.3c0.8,0,1.4-0.6,1.4-1.3c0-0.7-0.7-1.3-1.4-1.3C82.7,141.9,82,142.5,82,143.3
		L82,143.3L82,143.3z"/>
	<path class="st0" d="M87.3,144.4h2v-1.2h0c0.6,1,1.7,1.4,2.9,1.4c2.6,0,4.2-1.8,4.2-4.2c0-2.4-1.7-4.2-4.1-4.2
		c-1.6,0-2.5,0.7-2.9,1.2h-0.1v-5.7h-2.1V144.4L87.3,144.4L87.3,144.4z M94.4,140.4c0,1.3-0.9,2.4-2.5,2.4c-1.6,0-2.5-1.2-2.5-2.4
		c0-1.3,0.9-2.4,2.5-2.4C93.5,138,94.4,139.1,94.4,140.4L94.4,140.4L94.4,140.4z"/>
	<path class="st0" d="M103.9,144.4h1.9v-4.6c0-1.1,0-3.6-3.7-3.6c-1.4,0-2.7,0.4-3.6,1.3l1.1,1.1c0.6-0.5,1.4-0.8,2.3-0.8
		c1.1,0,2,0.5,2,1.5v0.2h-0.5c-2.1,0-5.4,0.2-5.4,2.8c0,1.6,1.5,2.4,3.1,2.4c1.1,0,2.1-0.4,2.7-1.3h0.1V144.4L103.9,144.4
		L103.9,144.4z M103.8,141.3c0,1.1-0.7,1.8-2.2,1.8c-0.7,0-1.5-0.3-1.5-1.1c0-1.2,2-1.2,3.2-1.2h0.4V141.3L103.8,141.3L103.8,141.3z
		"/>
	<path class="st1" d="M108.1,144.4h2.1V140c0-1.1,0.6-2,2-2c1.5,0,1.6,1.5,1.6,2.4v4.1h2.1v-5.1c0-1.6-0.8-3.2-3.1-3.2
		c-1.4,0-2.2,0.7-2.6,1.5h0v-1.3h-2V144.4L108.1,144.4L108.1,144.4z"/>
	<polygon class="st1" points="117.1,144.4 119.6,144.4 121.9,141.5 124.1,144.4 126.7,144.4 123.3,140.1 126.2,136.4 123.8,136.4 
		121.9,138.8 120.2,136.4 117.6,136.4 120.6,140.1 117.1,144.4 117.1,144.4 	"/>
	<path class="st0" d="M128,144.4h2.1v-8.1H128V144.4L128,144.4L128,144.4z M127.7,133.6c0,0.6,0.6,1.2,1.4,1.2
		c0.8,0,1.4-0.5,1.4-1.2c0-0.7-0.6-1.2-1.4-1.2C128.2,132.4,127.7,133,127.7,133.6L127.7,133.6L127.7,133.6z"/>
	<path class="st1" d="M139.9,137.4c-0.8-0.9-2-1.2-3.1-1.2c-2.6,0-4.7,1.7-4.7,4.2c0,2.5,2.1,4.2,4.7,4.2c0.7,0,2.2-0.3,3.1-1.1
		l-1.4-1.4c-0.4,0.5-1,0.8-1.7,0.8c-1.6,0-2.5-1.2-2.5-2.4c0-1.3,0.9-2.4,2.5-2.4c0.6,0,1.1,0.3,1.6,0.8L139.9,137.4L139.9,137.4
		L139.9,137.4z"/>
	<path class="st0" d="M140.7,140.4c0,2.5,2.1,4.2,4.7,4.2c2.6,0,4.7-1.7,4.7-4.2c0-2.5-2.1-4.2-4.7-4.2
		C142.8,136.2,140.7,137.9,140.7,140.4L140.7,140.4L140.7,140.4z M142.9,140.4c0-1.3,0.9-2.4,2.5-2.4s2.5,1.2,2.5,2.4
		c0,1.3-0.9,2.4-2.5,2.4S142.9,141.7,142.9,140.4L142.9,140.4L142.9,140.4z"/>
	<path class="st1" d="M152,143.3c0,0.7,0.7,1.3,1.4,1.3c0.8,0,1.4-0.6,1.4-1.3c0-0.7-0.7-1.3-1.4-1.3
		C152.7,141.9,152,142.5,152,143.3L152,143.3L152,143.3z"/>
	<path class="st0" d="M156.9,140.4c0,2.5,2.1,4.2,4.7,4.2c2.6,0,4.7-1.7,4.7-4.2c0-2.5-2.1-4.2-4.7-4.2
		C158.9,136.2,156.9,137.9,156.9,140.4L156.9,140.4L156.9,140.4z M159,140.4c0-1.3,0.9-2.4,2.5-2.4s2.5,1.2,2.5,2.4
		c0,1.3-0.9,2.4-2.5,2.4S159,141.7,159,140.4L159,140.4L159,140.4z"/>
	<path class="st1" d="M168.2,144.4h2.1v-4.3c0-0.4,0.3-2,2.3-2c0.3,0,0.7,0.1,1,0.2v-1.9c-0.2-0.1-0.5-0.1-0.8-0.1
		c-1.1,0-2.1,0.6-2.5,1.5h0v-1.3h-2.1V144.4L168.2,144.4L168.2,144.4z"/>
	<path class="st0" d="M181.6,136.4v1.2h0c-0.6-1-1.7-1.4-2.9-1.4c-2.6,0-4.2,1.8-4.2,4.2c0,2.3,1.7,4.1,4.3,4.1
		c1.1,0,2.2-0.4,2.8-1.2h0v0.6c0,1.6-0.6,2.7-2.7,2.7c-1.2,0-2.1-0.4-2.9-1.2l-1.3,1.6c1.2,1,2.7,1.3,4.2,1.3c3.3,0,4.8-1.8,4.8-4.8
		v-7.3H181.6L181.6,136.4L181.6,136.4z M179,138c1.6,0,2.5,1,2.5,2.4c0,1.3-1,2.4-2.6,2.4c-1.4,0-2.5-1.1-2.5-2.3
		C176.5,138.9,177.5,138,179,138L179,138L179,138z"/>
	<path class="st1" d="M186,143.3c0,0.7,0.7,1.3,1.4,1.3c0.8,0,1.4-0.6,1.4-1.3c0-0.7-0.7-1.3-1.4-1.3
		C186.7,141.9,186,142.5,186,143.3L186,143.3L186,143.3z"/>
	<path class="st1" d="M191.2,144.4h2.1V140c0-1.1,0.6-2,2-2c1,0,1.5,0.7,1.5,1.6v4.8h2.1v-4.4c0-1,0.5-2.1,1.8-2.1
		c1.3,0,1.6,0.9,1.6,1.9v4.6h2.1v-4.8c0-1.9-0.8-3.5-3.1-3.5c-1.3,0-2.2,0.5-2.8,1.5c-0.4-1-1.4-1.5-2.7-1.5c-1.4,0-2.2,0.7-2.6,1.5
		h0v-1.3h-2V144.4L191.2,144.4L191.2,144.4z"/>
	<polygon class="st1" points="205.6,144.4 208.1,144.4 210.4,141.5 212.6,144.4 215.2,144.4 211.8,140.1 214.7,136.4 212.2,136.4 
		210.4,138.8 208.7,136.4 206.1,136.4 209,140.1 205.6,144.4 205.6,144.4 	"/>
	<path class="st0" d="M124.9,40.9c-11,0-15.2,0-15.2,0c8.3,0,8.4,0,0,0v40l28.4,0c19.7,1.1,26-28.4,10.2-36.9
		c-4.1-2.2-7.9-2.5-12.4-3.1H124.9L124.9,40.9L124.9,40.9z M109.7,35.8h28.4C147.1,32.4,149,25,149,25c2.2-6.6-1.7-12.5-1.7-12.5
		c-4-5.5-11.4-5.6-11.4-5.6h-26.2V35.8L109.7,35.8L109.7,35.8z M150.6,34.2c-3.1,2.3-5.8,3-5.8,3s18.9,3.8,21.5,20.5
		c3.2,20.9-12.8,28-18.5,28.2c-5.7,0.2-5.9,0-5.9,0H98.5v-4.5c0,0,4.9,0.2,4.9-4.5V8.8c0,0-0.8-2.8-2.6-2.8h-1.8V2.3h42.4
		c0,0,8,1.2,12.5,7.8C153.9,10.1,162.5,23.2,150.6,34.2L150.6,34.2L150.6,34.2z"/>
	<polygon class="st1" points="65.2,124.1 68.8,124.1 68.8,115.6 74,124.1 76.6,124.1 76.6,106.1 73,106.1 73,115.9 66.2,105.7 
		65.2,105.7 65.2,124.1 65.2,124.1 	"/>
	<path class="st1" d="M86.6,105.8c-5.1,0.1-9.1,4.3-9.1,9.5c0,5.1,4.1,9,9.1,9.2l0-3.5c-3.1-0.3-5.4-2.7-5.4-5.8
		c0-3.2,2.3-5.7,5.4-5.9L86.6,105.8L86.6,105.8L86.6,105.8z"/>
	<polygon class="st1" points="132.6,109.1 132.6,106 125.9,106 125.9,124.1 132.6,124.1 132.6,121.3 129.5,121.3 129.5,116.3 
		132.4,116.3 132.4,113.2 129.5,113.2 129.5,109.1 132.6,109.1 132.6,109.1 	"/>
	<polygon class="st1" points="155.8,124.1 159.4,124.1 157.1,105.7 156.1,105.7 150.8,117.2 145.2,105.7 144.3,105.7 141.6,124.1 
		145.2,124.1 146.5,115.8 150.1,124.1 151.4,124.1 154.8,115.8 155.8,124.1 155.8,124.1 	"/>
	<polygon class="st1" points="173,114.7 167.2,124.1 171.3,124.1 174.9,117.6 178.6,124.1 182.7,124.1 177.1,114.7 182.2,106.1 
		177.9,106.1 175.2,111.7 172.3,106.1 168.1,106.1 173,114.7 173,114.7 	"/>
	<polygon class="st1" points="186.9,106.1 183.3,106.1 183.3,124.1 186.9,124.1 186.9,106.1 186.9,106.1 	"/>
	<polygon class="st1" points="166.5,109.1 166.5,106.1 160.2,106.1 160.2,124.1 166.5,124.1 166.5,121.3 163.8,121.3 163.8,116.3 
		166.3,116.3 166.3,113.2 163.8,113.2 163.8,109.1 166.5,109.1 166.5,109.1 	"/>
	<polygon class="st1" points="161.9,104.3 164,104.3 166.2,99.8 163.1,99.8 161.9,104.3 161.9,104.3 	"/>
	<path class="st1" d="M196.8,105.8c-5.1,0.1-9.1,4.3-9.1,9.5c0,5.1,4.1,9,9.1,9.2l0-3.5c-3.1-0.3-5.4-2.7-5.4-5.8
		c0-3.2,2.3-5.7,5.4-5.9L196.8,105.8L196.8,105.8L196.8,105.8z"/>
	<path class="st0" d="M43.1,115.1h0.3c2.2,0,3.7,0.4,3.7,2.9c0,2.8-1.2,3.1-3.5,3.1h-0.5V115.1L43.1,115.1L43.1,115.1z M43.1,108.5
		c1,0,1.7,0.4,1.7,1.6c0,1.2-0.6,1.5-1.7,1.5L43.1,108.5L43.1,108.5L43.1,108.5z M39.5,124.1h5.6c3.3,0,5.2-1.6,5.5-5.1
		c0.2-2.8-0.5-5.5-3.7-5.7c0.9-0.7,1.2-2,1.2-3.2c0-2.7-1.7-4-5.1-4h-3.5V124.1L39.5,124.1L39.5,124.1z"/>
	<path class="st0" d="M114.8,124.1h3.9c4,0,6.4-3.6,6.4-8.8c0-5.3-2.3-9.3-6.4-9.3h-3.9V124.1L114.8,124.1L114.8,124.1z
		 M117.5,109.1h0.5c3.1,0,4.3,2.1,4.3,6.1c0,3.7-0.9,6.1-4.3,6.1h-0.5V109.1L117.5,109.1L117.5,109.1z"/>
	<path class="st1" d="M103.3,22c-2.1-3-3-5.1-3-5.1L86.8,89c0,0,0.9,1.6,3.9,1.6v4.6H77.4v-4.6c2.9-0.1,5-1.4,5.1-4.5
		c0-0.8,13.1-68.1,12.7-69.4c-0.2-0.7-0.3-2.2-3.7-2v-4.5h11.7c0,0,25.4,36.1,25.5,36.1l19.3-36.1h12.5V14c0,0-8.3-0.5-7.8,3.8
		l15,68.5c0,0,0.4,2.1,0.8,2.7c0,0,0.8,2,4.9,1.7v4.7h-15.2v-4.6c0,0,4.6,0.7,4-4.1l-14.5-64.9l-19.4,37L103.3,22L103.3,22L103.3,22
		z"/>
</g>
</svg>
