<?xml version="1.0" encoding="utf-8"?>
<!-- Generator: Adobe Illustrator 20.1.0, SVG Export Plug-In . SVG Version: 6.00 Build 0)  -->
<svg version="1.1" id="Layer_1" xmlns="http://www.w3.org/2000/svg" xmlns:xlink="http://www.w3.org/1999/xlink" x="0px" y="0px"
	 viewBox="0 0 250 150.5" style="enable-background:new 0 0 250 150.5;" xml:space="preserve">
<style type="text/css">
	.st0{fill:#FFE436;stroke:#000000;stroke-width:4.765;}
</style>
<path class="st0" d="M62.8,130.1l-34-39.2l4.2-48l40.3-32L223,24l-10.4,119.2L62.8,130.1z M42,74.2c3,0.3,5.6-1.9,5.8-4.9
	c0.3-3-1.9-5.6-4.9-5.8c-3-0.3-5.6,1.9-5.8,4.9C36.9,71.3,39.1,73.9,42,74.2z M42.5,68.8"/>
<path d="M201.4,90.3c0.1-1.6,1.6-2.8,3.2-2.7c1.7,0.1,2.9,1.6,2.7,3.2c-0.1,1.6-1.6,2.8-3.2,2.7C202.4,93.3,201.3,91.9,201.4,90.3z
	 M201.9,90.3c-0.1,1.4,0.9,2.6,2.3,2.7s2.6-0.9,2.7-2.3c0.1-1.4-0.9-2.6-2.3-2.7C203.2,87.9,202,88.9,201.9,90.3z M205.6,92.3
	l-0.5,0l-0.7-1.6l-0.6-0.1l-0.1,1.5l-0.5,0l0.3-3.3l1.4,0.1c0.6,0.1,1.1,0.3,1.1,1c-0.1,0.7-0.5,0.9-1,0.8L205.6,92.3z M203.8,89.3
	l-0.1,0.8l0.5,0c0.5,0,1.1,0.2,1.1-0.3c0-0.4-0.3-0.5-0.7-0.5L203.8,89.3z"/>
<path d="M170,83.9l4.8,9.8l0.5,0c0.6-1.1,1.2-2.2,2-3.2l4.1-5.7l20.4,1.8l-18.9,18.8l-1.3,15.4l-17.8-1.6l1.3-15.4l-15.7-21.9
	L170,83.9z"/>
<path d="M150,82.1l-1.8,21.1c-0.9,10.4-10.2,14.4-23.7,13.2c-13.5-1.2-21.9-6.7-21-17.1l1.8-21.1l17.5,1.5l-1.7,19.9
	c-0.2,2.8-0.3,5.3,4.3,5.7c4.7,0.4,5-2,5.3-4.8l1.7-19.9L150,82.1z"/>
<path d="M61.3,74.3l21.2,1.9c9.7,0.8,19.4,3.4,18.7,11.6c-0.3,3.1-2.7,6-7.2,6.6l0,0.3c5.3,1.9,8.5,5,8.1,9.3
	c-0.6,7.3-10.4,9-19.2,8.3l-24.8-2.2L61.3,74.3z M78.6,89.7c2.7,0.2,5.7,0.3,5.9-2.2c0.2-2.7-3.2-2.8-5.8-3l-1.3-0.1L77,89.5
	L78.6,89.7z M75.8,103l2.1,0.2c3,0.3,7.3,0.6,7.6-2.3c0.3-3-4.4-3.3-7.3-3.6l-1.8-0.2L75.8,103z"/>
<path d="M102.3,37.6l33.6,2.9l-0.9,9.8L119.7,49l-0.3,3.4l14,1.2l-0.8,9.3l-14-1.2l-0.3,3.5l15.9,1.4l-0.9,9.8l-34.2-3L102.3,37.6z"
	/>
<path d="M140.9,64.1l0.9,0.6c3.1,2.1,6.9,3.9,11.1,4.3c1.8,0.2,4.7-0.1,4.8-1.7s-2.2-2-3.9-2.3l-3.6-0.8c-7-1.5-12.7-5-12.2-10.6
	c0.7-8.5,12-12.3,22.9-11.3c5.7,0.5,10.9,2,15.6,4.5l-5.7,8.7c-3-1.8-6.4-3.3-10.3-3.6c-1.6-0.1-4,0.1-4.1,1.6
	c-0.1,1.3,2.1,1.7,3.5,2.1l4.1,1c7.6,1.9,12.9,5.3,12.4,11.4c-0.7,8.5-12,11.8-22.8,10.9c-6.3-0.6-13.5-2.4-19-5L140.9,64.1z"/>
<path d="M177.8,44.2l38.2,3.3l-1,11.6L205,58l-2.1,24.5l-18.2-1.6l2.1-24.5l-10-0.5L177.8,44.2z"/>
<path d="M57.6,33.5l21.2,1.9c9.7,0.8,19.4,3.4,18.7,11.6c-0.3,3.1-2.7,6-7.2,6.6l0,0.3c5.3,1.9,8.5,5,8.1,9.3
	c-0.6,7.3-10.4,9-19.2,8.3l-24.8-2.2L57.6,33.5z M74.9,48.9c2.7,0.2,5.7,0.3,5.9-2.2c0.2-2.7-3.2-2.8-5.8-3l-1.3-0.1l-0.4,5.1
	L74.9,48.9z M72,62.2l2.1,0.2c3,0.3,7.3,0.6,7.6-2.3c0.3-3-4.4-3.3-7.3-3.6l-1.8-0.2L72,62.2z"/>
</svg>
