<?xml version="1.0" encoding="utf-8"?>
<!-- Generator: Adobe Illustrator 20.1.0, SVG Export Plug-In . SVG Version: 6.00 Build 0)  -->
<svg version="1.1" id="Layer_1" xmlns="http://www.w3.org/2000/svg" xmlns:xlink="http://www.w3.org/1999/xlink" x="0px" y="0px"
	 viewBox="0 0 250 86.8" style="enable-background:new 0 0 250 86.8;" xml:space="preserve">
<style type="text/css">
	.st0{fill:#FFFFFF;}
	.st1{fill:#FFA539;}
	.st2{fill:#231C18;}
</style>
<path class="st0" d="M58.8,65.3c2.4,7.9,9.8,13.3,21,13.3c7.8,0,101.3,0,103.5,0c4.9,0,11.8,1.1,22.4-7.4
	c19.8-15.9,21.7-42.7,19.7-50.2c-1.8-6.8-7.4-11.8-14.6-11.8c-7.2,0-104.1,0-109.5,0c-5.5,0-11.4-0.3-21.7,8.8
	c-8.7,7.7-13.4,16.7-18.8,29.6c1.2-6.6-3.8-13-3.8-13c3-2.8,4.9-6.8,4.9-11.2c0-8.4-6.8-15.2-15.2-15.2c-8.4,0-15.9,6.5-15.9,15
	c0,1.7,0.3,3.4,0.8,5c0,0-5.5-3.5-7.3-4.4c-1.8-0.9-4.8-1.6-6.3,0.3c-1.5,1.9-1.6,5.4,0,8c1.6,2.6,6.9,10.4,12,13.1
	c0,0-0.6,6.6,3.5,9c0,0-0.1,4.5,1.8,5.7c0,0,0.3,2.2,1.3,2.8v4.7c0,0-5.6,4.7-2.8,8.8c2.8,4.1,9.3,2,10.7,1.2c0,0,9.3,2.6,11.2-1.5
	c1.9-4.1,0.3-7-1.9-8.5v-3.9L58.8,65.3L58.8,65.3z"/>
<path class="st1" d="M80.4,72.6c-14.9,0-18.5-9.7-12.6-24.5c4.5-11.4,8.6-19.1,16.1-25.7c8.5-7.5,13.4-7.3,17.9-7.3
	c4.5,0,100.3,0,106.3,0c6,0,11.8,3.9,12.1,9.8c0.3,5.8-3,28.5-19.4,41.6c-8.8,7-14.5,6.1-18.5,6.1C178.2,72.6,84.6,72.6,80.4,72.6
	L80.4,72.6z"/>
<path class="st2" d="M80.4,74c-3.4,0-6.3-0.5-8.7-1.4c-2.7-1.1-4.7-2.7-6.1-4.9c-1.3-2.1-2-4.7-2-7.7c0-3.6,1-7.8,2.8-12.5
	c2.3-5.8,4.5-10.6,7-14.9c2.6-4.3,5.6-8,9.4-11.4l0,0c8.7-7.7,13.8-7.7,18.5-7.7l0.4,0v0h106.3h0.1l0,0c0.9,0,1.9,0.1,2.7,0.3
	c0.9,0.2,1.8,0.4,2.6,0.7c4.4,1.7,7.9,5.3,8.1,10.2l0,0.1v0c0,0.9,0,2.1-0.1,3.6c-0.1,1.5-0.4,3.2-0.7,5.1c-1.8,9.7-7,24.3-19.1,34
	c-8.3,6.7-14.1,6.6-18.3,6.5c-0.3,0-0.5,0-1.2,0H80.4L80.4,74z M72.8,69.9c2,0.8,4.5,1.2,7.6,1.2h101.9c0.1,0,0.7,0,1.3,0
	c3.8,0.1,8.9,0.2,16.4-5.8c11.4-9.1,16.3-23,18.1-32.3c0.3-1.8,0.6-3.4,0.7-4.8c0.1-1.3,0.2-2.4,0.1-3.2l0-0.1
	c-0.2-3.5-2.8-6.3-6.2-7.6c-0.7-0.3-1.4-0.5-2.1-0.6c-0.7-0.1-1.5-0.2-2.2-0.2v0h-0.1H101.9v0l-0.4,0c-4.2,0-8.7,0-16.6,6.9v0
	c-3.6,3.2-6.4,6.6-8.8,10.7c-2.5,4.1-4.6,8.8-6.8,14.4c-1.7,4.3-2.6,8.2-2.6,11.4c0,2.4,0.5,4.5,1.5,6.2
	C69.2,67.8,70.7,69,72.8,69.9L72.8,69.9z"/>
<path class="st2" d="M75.7,61.5c0,0,32.1,0,36.2,0c4.1,0,14-3.1,15-11.7c0.4-3.7-3-6.6-5-7.3c0,0,12.9-1.6,12.9-11.2
	c0-4.4-4.8-6.6-8.5-6.6c-3.6,0-32.3,0-32.3,0L75.7,61.5L75.7,61.5z M103.3,38l5.2-7.7c0,0,6.3,0,7.3,0c1,0,3.9,0.1,3.7,3.1
	c-0.1,3-5.3,4.5-7.1,4.5C110.7,38,103.3,38,103.3,38L103.3,38z M91.6,54.7l6.9-10.4c0,0,7.4,0,9.2,0c1.8,0,3.4,1.3,2.6,4.6
	c-0.7,3.3-6.1,5.8-7.7,5.8C101.1,54.7,91.6,54.7,91.6,54.7L91.6,54.7z"/>
<polygon class="st2" points="127.4,61.5 144.7,61.5 155,32.9 144.4,32.9 127.4,61.5 "/>
<path class="st2" d="M153.2,32.1c2.9-0.4,5.1-2.6,4.8-5.1c-0.3-2.4-3-4.1-5.9-3.7c-2.9,0.4-5.1,2.7-4.7,5.1
	C147.7,30.9,150.3,32.5,153.2,32.1L153.2,32.1z"/>
<path class="st2" d="M192.1,40.9h7.5L214.4,25h-15.2l-1.5,2.8c0,0-2.7-4-12.3-4c-9.6,0-23.6,5.5-27,18C155,54.3,163.9,62,175.4,62
	c11.5,0,18.4-3.4,24.1-9.8l-4.4-4.2c0,0-6.3,9.6-18,6.9c-5-1.2-5-11.5,1.6-18.4c6.6-6.9,11-6.1,12.6-5.2
	C192.7,32.2,195.5,33.9,192.1,40.9L192.1,40.9z"/>
<path class="st2" d="M35.5,23.9c0-5.8,4.7-10.5,10.5-10.5c5.8,0,10.5,4.7,10.5,10.5c0,5.8-4.7,10.5-10.5,10.5
	C40.1,34.5,35.5,29.7,35.5,23.9L35.5,23.9z"/>
<path class="st0" d="M38.9,21.9c0-2.1,1.7-3.7,3.7-3.7c2.1,0,3.7,1.7,3.7,3.7c0,2-1.7,3.7-3.7,3.7C40.5,25.6,38.9,24,38.9,21.9
	L38.9,21.9z"/>
<path class="st2" d="M21,29.4c1,4.5,6.2,9.2,10.1,12.1c0.3,0.2,0.9,1,0.8-0.4c0,0,0-0.7,0.5-0.2c0.5,0.5,22.4,17.4,23.4,18.2
	c0.6,0.5,1.2,0.7,1.6,0.9c0.8,0.3,1.3,0.7,1.7,0.9c0.7,0.3,0.9,0.1,0.5-0.5c-0.2-0.3-0.8-1.2-1-1.6c-0.4-0.6-0.7-1.1-1.2-1.6
	c-0.7-0.6-20.5-17.9-20.5-17.9c0,0-13.6-12-14.3-12.7c-0.5-0.5-1-1-1.2-0.2C21.3,27,20.9,28.9,21,29.4L21,29.4z"/>
<path class="st2" d="M52.9,54.4l1-0.2c-0.4-0.9,0.4-1.5,0.5-2c0.2-0.8,0.4-8.8-0.3-10.3c-0.5-1.2-4.5-6.1-5-6.1
	c-0.3,0-0.6,0.4-0.8,0.8c-0.8,0.5-1.4,0.1-1.8-0.3c0-0.1,0.1-0.2,0.1-0.3c0.2-0.5-0.2-0.5-0.4-0.5c-0.3,0-1.3,0-1.3,0
	c-0.3,0-0.4,0.2-0.3,0.4c-0.2,0.4-0.7,1.2-1.9,0.3l0,0c-0.6-0.6-1.1-0.3-1.6-0.2c-0.8,0.2-2.4,0.5-3.4,1c-1,0.5-3.1,10.9-3.3,11.9
	c-0.1,1,0.2,1,0.4,1.2c0.2,0.2,1.5,0.9,2.2,1.3c0.7,0.4,0.8,0.6,0.8,1c0,0.3,0,4.5,0,4.8c0,0.4-0.2,1.6,0.8,1.6c1,0,1,0.5,1,0.8
	c0,0.3-0.3,2.1,0.5,2.2c0.8,0.1,0.9,0.1,0.9,0.9c0,0.5,0,5.5,0,6.5c0,0.9,0,1.3-0.3,1.4c-1.9,1.1-3.7,3.5-2.7,4
	c1.5,0.8,5-2.4,6.1-2.4c0.6,0,0.9,0.4,1.7,0.5c0.5,0,0.9,0.5,2.2,1.1c1.3,0.6,2.4,0.3,2.4-0.8c0-0.8-0.7-1.4-1.6-2c-0.9-0.6-1-1-1-1
	c0-3.1,0.3-4.2,0.3-4.6c0-3.4,0.6-3.2,1.1-3.7c0.3-0.2,0.1-1.3,0.1-1.8c0-0.5-0.1-1,0.6-1c0.7,0,1.5-0.2,1.4-0.9
	c-0.1-0.8-0.1-2.2,0.6-1.5L52.9,54.4L52.9,54.4z M48.2,37.1L48.2,37.1c-0.2,0.5-0.8,2.1-1.2,2.1c-0.4,0-0.9-1.7-0.7-1.9
	c0.1-0.1,0.2-0.4,0.3-0.6C46.9,37,47.4,37.3,48.2,37.1L48.2,37.1z M45,36.2c0.2,0.3,0.4,0.9,0.4,1.1c-0.2,1.8-0.8,2-1.1,1.4
	c-0.3-0.9-0.6-1.5-0.9-1.9C44.2,37.1,44.7,36.6,45,36.2L45,36.2z"/>
<path class="st1" d="M35.9,49.8c0.5,0.5,1.4,0.6,2,0.8c0.7,0.2,0.6-1.2,0.6-1.5c0-0.6-1-1.1-0.9-1.7c0.2-1.2,0.9-3.3,1.3-4.3
	c0-0.1,0.2-0.3,0.3-0.3c0.1,0,0.2,0.1,0.2,0.4c-0.3,4.8-0.6,8.9-0.6,13.8c0,1.5,1.4,1.2,1.9,1.2c3.1,0.1,6.2,0,9.4-0.2
	c0.5,0,0.8-0.8,0.8-1.1c0.1-2.3-0.4-4.7-0.2-7.1c0.1-1.5-0.2-4.7,0.5-4.7c0.7,0-0.5,7.1,0.7,8.7c2.8-0.8,2.2-6.7,1.9-10.6
	c-0.1-1.6-3.1-5.2-4.5-6.4c-0.6,1-1.2,2.1-1.8,3.1c-0.5,0.8-1.2,2.2-1.8,2.2c-0.5,0-1.7-2.5-2.3-3.9c-0.3-0.6-0.8-1.8-1.4-1.7
	c-1.2,0.2-3.8,0.6-4.1,1.6c-1.1,3.6-2,6.9-2.4,10.7C35.3,49.5,35.5,49.5,35.9,49.8L35.9,49.8z"/>
<path class="st1" d="M46.3,58.7c0.7,0,1.3,0.2,1.9,0.2c1,0,0.7,1,0.8,1.5c0,0.5-0.5,0.7-1.1,0.7c-0.5,0-1.1,0-1.5,0
	c-0.4,0-1-0.2-1-0.8c0-0.5,0-0.6,0-0.8C45.3,59.1,45.6,58.7,46.3,58.7L46.3,58.7z"/>
<path class="st1" d="M41.7,58.9c0.4,0,1.4,0,1.7,0c0.3,0,0.6,0.2,0.6,0.7c0,0.5,0.2,1.6-1.3,1.6c-0.8,0-1.8-0.2-2-0.3
	c-0.2-0.2-0.2-0.7-0.1-1.1C40.7,59,41.3,58.9,41.7,58.9L41.7,58.9z"/>
<path class="st0" d="M45.6,61.9c0.4-0.2,1.2-0.1,1.6-0.1c0.4,0,0.8,0.3,0.8,1.6c0,1.3-0.2,1.6-0.2,2c0,0.4-0.3,0.7-0.9,0.8
	c-0.6,0-1.1,0-1.4-0.1C45.2,66,45,65.7,45,65c0-0.7,0-2.3,0.1-2.6C45.1,62.1,45.2,62.1,45.6,61.9L45.6,61.9z"/>
<path class="st0" d="M42.2,61.8c0.5,0,1.2-0.1,1.7,0c0.4,0.1,0.7,0.3,0.6,1.6c0,1.3-0.1,1.7-0.1,2.1c0,0.4-0.4,0.7-1,0.7
	c-0.6,0-1,0-1.2-0.1c-0.3-0.1-0.4-0.3-0.4-1.1c0-0.7,0-2.3,0.1-2.6C41.8,62.1,41.8,61.8,42.2,61.8L42.2,61.8z"/>
<path class="st2" d="M46.2,63.4c-0.1,0.1-0.2,0.3-0.2,0.5c0,0.5,0.3,0.7,0.6,0.7c0.3,0,0.5-0.3,0.6-0.7c0.1-0.4-0.3-0.7-0.6-0.7
	C46.3,63.2,46.3,63.2,46.2,63.4L46.2,63.4z"/>
<path class="st2" d="M42.9,63.4c0,0-0.2,0-0.2,0.5c0,0.4,0.2,0.7,0.5,0.7c0.2,0,0.5-0.3,0.5-0.7c0-0.4-0.1-0.7-0.4-0.7
	C43.2,63.2,43,63.4,42.9,63.4L42.9,63.4z"/>
<path class="st1" d="M46.7,69.8c0.2,0,0.8-0.4,0.8-0.6l0.1-1.6c0-0.4-0.3-0.7-0.7-0.7l-1.5,0c-0.2,0-0.5,0.6-0.5,0.9V69
	c0,0.4,0.8,0.8,1,0.8H46.7L46.7,69.8z"/>
<path class="st1" d="M43.9,69.8c0.2,0,0.4-0.2,0.4-0.4v-2c0-0.2-0.2-0.4-0.4-0.4l-1.3,0c-0.7-0.1-0.7,0.6-0.7,0.8l0,1.6
	c0,0.4,0.7,0.5,0.9,0.5L43.9,69.8L43.9,69.8z"/>
<path class="st1" d="M48.4,71.4c-0.3-0.1-0.7,0-0.8-0.2c-0.1-0.2-0.1-0.7-0.4-0.9c-0.6-0.3-2-0.3-2.1,0.4c-0.1,1.3,0.9,1,1.8,1.4
	c1.1,0.6,2.2,1.6,3.3,0.8c0.3-0.5-0.7-1.2-1.2-1.2C49,71.8,48.6,71.8,48.4,71.4L48.4,71.4z"/>
<path class="st1" d="M41.7,70.8c0.1-0.4,0.4-0.5,0.8-0.5c0.5,0,0.8,0,1.1,0c0.8,0.1,0.7,1.2,0.1,1.5c-0.8,0.4-0.9,0.2-1.2,0.4
	c-0.6,0.4-0.7,0.8-1.3,1.1c-0.5,0.3-1.9,0.9-2.2,0.6c-0.3-0.3,0-1.2,0.6-1.6c0.6-0.4,0.9-0.3,1.1-0.4c0.2-0.1,0.4-0.5,0.6-0.5
	C41.5,71.4,41.7,71,41.7,70.8L41.7,70.8z"/>
<path class="st0" d="M30.8,40.4c0.1,0.1,0.3,0,0.4-0.1l0.1-0.2c0.1-0.1,0.1-0.3,0-0.3l-6.4-6.1c-0.1-0.1-0.4,0-0.5,0.1l0.1-0.1
	c-0.1,0.1-0.3,0.4-0.1,0.6L30.8,40.4L30.8,40.4z"/>
<path class="st2" d="M230.3,24.6c-3,0-5.6-2.1-5.6-5.6c0-3.5,2.7-5.6,5.6-5.6c3,0,5.6,2.1,5.6,5.6C236,22.6,233.3,24.6,230.3,24.6
	L230.3,24.6z M230.3,14.7c-2.2,0-4,1.7-4,4.3c0,2.6,1.8,4.3,4,4.3v0c2.2,0,4-1.7,4-4.3C234.3,16.4,232.5,14.7,230.3,14.7L230.3,14.7
	z M229.4,22h-1.3v-6h2.3c1.6,0,2.5,0.4,2.5,1.8c0,1.1-0.7,1.5-1.5,1.6l1.5,2.6h-1.5l-1.4-2.5h-0.6V22L229.4,22z M230.5,18.5
	c0.6,0,0.9-0.1,0.9-0.8c0-0.6-0.7-0.7-1.2-0.7h-0.9v1.5H230.5L230.5,18.5z"/>
</svg>
