<?xml version="1.0" encoding="utf-8"?>
<!-- Generator: Adobe Illustrator 20.1.0, SVG Export Plug-In . SVG Version: 6.00 Build 0)  -->
<svg version="1.1" id="Layer_1" xmlns="http://www.w3.org/2000/svg" xmlns:xlink="http://www.w3.org/1999/xlink" x="0px" y="0px"
	 viewBox="0 0 250 150.5" style="enable-background:new 0 0 250 150.5;" xml:space="preserve">
<style type="text/css">
	.st0{fill-rule:evenodd;clip-rule:evenodd;fill:#FFFFFF;stroke:#231C18;stroke-width:0.216;stroke-miterlimit:22.9256;}
	.st1{fill-rule:evenodd;clip-rule:evenodd;fill:#F7742A;stroke:#231C18;stroke-width:0.216;stroke-miterlimit:22.9256;}
	.st2{fill:none;stroke:#312D6A;stroke-width:2.8347;stroke-miterlimit:22.9256;}
	.st3{fill:#004160;}
	.st4{fill:#FFFFFF;}
	.st5{fill:#F87B36;}
	.st6{font-family:'Arial-Black';}
	.st7{font-size:22.3988px;}
</style>
<g>
	<path class="st0" d="M38.2,110.9h178.6V30.6c0-11-9-20.1-20.1-20.1H58.3c-11,0-20.1,9-20.1,20.1V110.9L38.2,110.9z"/>
	<path class="st1" d="M36.4,110.9h181v16c0,8.8-7.2,16-16,16h-149c-8.8,0-16-7.2-16-16V110.9L36.4,110.9z"/>
	<path class="st2" d="M56.5,8.7h140.1c11.1,0,20.1,9.1,20.1,20.1v94c0,11.1-9.1,20.1-20.1,20.1H56.5c-11.1,0-20.1-9.1-20.1-20.1v-94
		C36.4,17.7,45.4,8.7,56.5,8.7L56.5,8.7z"/>
	<polygon class="st3" points="152.5,101.2 159.4,91 162.9,91 169.7,101.2 171.3,101.2 163.3,89.9 159,89.9 151.1,101.2 152.5,101.2 
			"/>
	<path class="st3" d="M173.4,97.6c0,1.9,1.5,3.6,3.4,3.6h10.4c1.8,0,3.5-1.3,3.5-3.2v-8.1h-1.5v8.1c0,1.1-0.8,2-1.9,2h-10.6
		c-1.1,0-2-1-2-2.1v-8h-1.4V97.6L173.4,97.6z"/>
	<path class="st3" d="M149.3,97.7c0-1-0.3-1.3-0.5-1.3l-0.2-0.1l0.3-0.2c0.5-0.4,0.5-1.2,0.5-1.3v-1.8c0-1.6-1.4-3-3-3h-14.1v11.3
		l1.4,0V91.1h12.3c1,0,1.9,0.8,1.9,1.9v1.8c0,0.5-0.3,1.2-0.5,1.3l-0.2,0.1l0.2,0.2c0.3,0.3,0.5,0.5,0.5,1.3v3.5h1.5V97.7
		L149.3,97.7z"/>
	<path class="st3" d="M111.5,89.9l0,11.3H125c1.7,0,3.4-1.2,3.4-3v-5.4c0-1.8-1.7-3-3.4-3H111.5L111.5,89.9z"/>
	<polygon class="st3" points="107.7,101.2 107.7,100 92.3,100 92.3,91.1 107.7,91.1 107.7,89.9 91,89.9 91,101.2 107.7,101.2 	"/>
	<path class="st3" d="M51.7,98c0-0.6,0-5.1,0-5.2c0.1-1,0.4-1.7,2-1.7h13.2v-1.2H53.7c-1.7,0-3.3,1.2-3.3,3V98
		c0,1.7,1.4,3.2,3.2,3.2h13.3V100H53.6C52.5,99.9,51.7,99,51.7,98L51.7,98z"/>
	<polygon class="st3" points="167.4,101.2 169,101.2 166.9,98.1 155.3,98.1 153.2,101.2 154.9,101.2 156,99.3 166.2,99.3 
		167.4,101.2 	"/>
	<polygon class="st3" points="93.1,95.2 107.7,95.2 107.7,93.8 94.3,93.8 94.3,92.9 107.7,92.9 107.7,91.7 93.1,91.7 93.1,95.2 	"/>
	<polygon class="st3" points="93,95.9 93,99.3 107.7,99.3 107.7,98 94.3,98.1 94.3,97 107.7,97 107.7,95.9 93,95.9 	"/>
	<path class="st3" d="M52.5,98c0,0.7,0.4,1.3,1.1,1.4h13.4v-1.3H53.6v-5.2h13.3v-1.2H53.6c-0.7,0-1.1,0.4-1.1,1.2V98L52.5,98z"/>
	<path class="st4" d="M124.9,91.1c1,0,2.1,0.7,2.1,1.8V98c0,1.1-1,2-2.1,2h-12.1v-8.9H124.9L124.9,91.1z"/>
	<path class="st3" d="M187.2,98.1h-10.5v-8.2h-1.3V98c0,0.7,0.5,1.4,1.3,1.4h10.5c0.7,0,1.4-0.6,1.4-1.3v-8.1h-1.4V98.1L187.2,98.1z
		"/>
	<path class="st3" d="M134.2,101.2h1.5v-3.5h10.1v3.5h1.5v-3.5c0-0.8-0.7-1.2-1.5-1.2h-11.5V101.2L134.2,101.2z"/>
	<path class="st3" d="M145.8,96c0.7,0,1.4-0.5,1.4-1.3v-1.5c0-0.8-0.6-1.4-1.4-1.4h-11.6V96H145.8L145.8,96z"/>
	<path class="st3" d="M125,91.7h-11.4v7.6h11.4c0.7,0,1.4-0.5,1.4-1.3v-5.2C126.3,92.1,125.6,91.7,125,91.7L125,91.7z"/>
	<polygon class="st3" points="72.7,95.2 85.4,95.2 85.4,89.9 84.2,89.9 84.2,93.8 74,93.8 74,89.9 72.7,89.9 72.7,95.2 	"/>
	<polygon class="st3" points="72.7,95.9 72.7,101.2 74,101.2 74,97 84.2,97 84.2,101.2 85.4,101.2 85.4,95.9 72.7,95.9 	"/>
	<polygon class="st3" points="162.6,91.7 159.7,91.7 155.9,97.4 166.4,97.4 162.6,91.7 	"/>
	<polygon class="st4" points="124.9,92.9 124.9,98.1 114.9,98.1 114.9,92.9 124.9,92.9 	"/>
	<polygon class="st4" points="135.7,92.9 145.8,92.9 145.8,94.8 135.7,94.8 135.7,92.9 	"/>
	<polygon class="st4" points="164.1,96 158.4,96 160.3,92.8 162.1,92.8 164.1,96 	"/>
	<polygon class="st5" points="124.6,68.8 110.3,85.9 119.5,85.9 132.5,70.4 145.9,85.9 154.9,85.8 140.1,68.8 124.6,68.8 	"/>
	<polygon class="st5" points="108.9,62.8 89.8,85.9 101.4,85.9 120.7,62.8 108.9,62.8 	"/>
	<polygon class="st5" points="152.5,59.3 162,78.3 177.6,78.3 177.6,66.9 160.1,66.9 156,59.3 152.5,59.3 	"/>
	<polygon class="st5" points="128.8,42.5 141.3,57.4 151.2,57.4 138.7,42.5 128.8,42.5 	"/>
	<polygon class="st5" points="128.8,44.8 128.8,60.3 120.9,67 140.1,67 140.2,58.5 128.8,44.8 	"/>
	<polygon class="st5" points="87.7,73.9 77.6,85.9 86.7,85.9 96.9,73.9 87.7,73.9 	"/>
	<polygon class="st5" points="87.7,54.1 100.2,69.4 105.3,63.5 97.5,54 87.7,54.1 	"/>
	<polygon class="st5" points="110.4,37.8 123.6,54.1 126.5,54.1 126.5,45.2 120.4,37.8 110.4,37.8 	"/>
	<path class="st5" d="M115.8,22.1c-3.8,0-6.9,3.1-6.9,6.9c0,3.8,3.1,6.9,6.9,6.9c3.8,0,6.9-3.1,6.9-6.9
		C122.7,25.2,119.6,22.1,115.8,22.1L115.8,22.1z"/>
	<polygon class="st5" points="109.9,39.8 109.9,60.9 121.7,60.9 121.7,54.2 109.9,39.8 	"/>
	<path class="st5" d="M134.3,29.2c-3.2,0-5.8,2.6-5.8,5.8c0,3.2,2.6,5.8,5.8,5.8c3.2,0,5.8-2.6,5.8-5.8
		C140.1,31.8,137.5,29.2,134.3,29.2L134.3,29.2z"/>
	<polygon class="st5" points="87.9,56.8 87.9,72 98.4,71.9 99.3,70.9 87.9,56.8 	"/>
	<path class="st5" d="M93.5,42.1c-2.9,0-5.2,2.3-5.2,5.2s2.3,5.2,5.2,5.2c2.9,0,5.2-2.3,5.2-5.2S96.4,42.1,93.5,42.1L93.5,42.1z"/>
	<path class="st5" d="M163.2,53.9c-2.5,0-4.6,2-4.6,4.6c0,2.5,2,4.6,4.6,4.6c2.5,0,4.6-2,4.6-4.6C167.8,55.9,165.7,53.9,163.2,53.9
		L163.2,53.9z"/>
	<path class="st5" d="M175.1,79.6c-1.4,0-2.5,1.1-2.5,2.5c0,1.4,1.1,2.5,2.5,2.5c1.4,0,2.5-1.1,2.5-2.5
		C177.6,80.7,176.5,79.6,175.1,79.6L175.1,79.6z"/>
	<path class="st5" d="M165.2,79.6c-1.4,0-2.5,1.1-2.5,2.5c0,1.4,1.1,2.5,2.5,2.5c1.4,0,2.5-1.1,2.5-2.5
		C167.7,80.7,166.5,79.6,165.2,79.6L165.2,79.6z"/>
	<path class="st5" d="M149.5,59.3c-1.1,0-2,0.9-2,2c0,1.1,0.9,2,2,2c1.1,0,2-0.9,2-2C151.5,60.2,150.6,59.3,149.5,59.3L149.5,59.3z"
		/>
	<polygon class="st3" points="196.2,89.9 196.2,101.2 197.6,101.2 197.6,89.9 196.2,89.9 	"/>
	<polygon class="st3" points="195.4,101.2 195.4,89.8 194,89.8 194,101.2 195.4,101.2 	"/>
	<polygon class="st3" points="72.2,101.2 72.2,89.9 70.9,89.9 70.9,101.2 72.2,101.2 	"/>
	<polygon class="st3" points="86.1,89.9 86.1,101.1 87.3,101.1 87.3,89.9 86.1,89.9 	"/>
	<polygon class="st4" points="62.4,6.3 62.4,6.3 62.4,6.3 62.4,6.3 62.4,6.3 62.4,6.3 62.4,6.3 62.4,6.3 62.4,6.3 62.4,6.3 
		62.4,6.3 62.4,6.3 62.4,6.3 	"/>
	<polygon class="st4" points="62.5,6.3 62.5,6.3 62.5,6.3 62.5,6.3 62.5,6.3 62.5,6.3 62.5,6.3 62.5,6.3 62.5,6.3 62.5,6.3 
		62.5,6.3 	"/>
	<polygon class="st4" points="62.4,6.4 62.4,6.4 62.4,6.3 62.4,6.3 62.4,6.4 	"/>
	<polygon class="st4" points="62.5,6.4 62.5,6.3 62.5,6.3 62.5,6.4 62.5,6.4 62.5,6.3 62.4,6.3 62.4,6.4 62.5,6.4 62.5,6.4 
		62.5,6.4 62.5,6.4 62.5,6.4 	"/>
	<line class="st2" x1="36.4" y1="110.9" x2="216.8" y2="110.9"/>
	<text transform="matrix(0.8793 0 0 1 51.6299 132.3203)" class="st4 st6 st7">cuesta</text>
	<text transform="matrix(0.8793 0 0 1 131.5352 132.3203)" class="st4 st6 st7">menos</text>
</g>
</svg>
