<?xml version="1.0" encoding="utf-8"?>
<!-- Generator: Adobe Illustrator 20.1.0, SVG Export Plug-In . SVG Version: 6.00 Build 0)  -->
<svg version="1.1" id="Layer_1" xmlns="http://www.w3.org/2000/svg" xmlns:xlink="http://www.w3.org/1999/xlink" x="0px" y="0px"
	 viewBox="0 0 250 83.5" style="enable-background:new 0 0 250 83.5;" xml:space="preserve">
<style type="text/css">
	.st0{fill-rule:evenodd;clip-rule:evenodd;fill:#007299;}
</style>
<g>
	<path class="st0" d="M65,67.7c-9.9,0-16.8-6.4-17.3-16C47,38.2,55.8,27.1,69.6,27.1c10.4,0,16.8,7.1,17.2,15.9
		C87.6,57.4,78.4,67.7,65,67.7L65,67.7L65,67.7z M66.1,58.5c5.9,0,8.5-9.2,8.2-15.5c-0.2-3.4-1.8-6.7-5.9-6.7
		c-6.2,0-8.7,9.6-8.4,15.3C60.3,55.7,62.4,58.5,66.1,58.5L66.1,58.5L66.1,58.5z"/>
	<path class="st0" d="M173.6,66.6c-2.6,0.9-5,1-7.1,1c-11.1,0-17.2-6.2-17.8-16.5c-0.6-11.8,7.2-24.1,21.3-24.1
		c7.9,0,13.9,4.5,14.3,11.9c0.5,9.9-8.6,13.7-24.1,13.2c0.1,1,0.6,2.5,1.5,3.5c1.6,1.7,4.1,2.6,7.3,2.6c4.1,0,8-0.7,12.9-3.1
		C182.2,54.7,176.3,65.6,173.6,66.6L173.6,66.6z M173.2,38.9c-0.1-1.7-1.6-3.1-4.1-3.1c-5.2,0-7.8,4.2-8.3,7.6
		C169.4,43.6,173.4,42.3,173.2,38.9L173.2,38.9L173.2,38.9z"/>
	<path class="st0" d="M201.2,33.4c2.6,6.6,2,5.2,2.5,6.6l-0.1-0.4c23-25.1,39.1-25.7,39.1-25.7l-36.8,37l4.5-2.5l8.4,18.5h-13.2
		l-2.3-5.9c-1.1-2.8-1.5-4.3-2.2-6.6h-0.2C189.3,70.4,175.8,70,175.8,70l19.6-22.9l-9.6-19.2C185.8,27.9,197.8,24.9,201.2,33.4
		L201.2,33.4z"/>
	<path class="st0" d="M90.6,40.8c0.7-5,1.4-6.8-2.9-10.3c0,0,4.6-3.1,8.9-3.8c8.1-1.2,5.4,7.4,5.4,7.4h0.1c3.2-4.9,7.8-7,12.7-7
		c6.1,0,8.9,3.9,9.4,7.1c3.2-4.8,7.9-7.1,12.7-7.1c6.2,0,9.6,4,9.9,10.4c0.1,1.6-0.1,4.8-0.3,6.8c0,0-1.5,11.6-2.1,15.7
		c-0.7,4.1-1,8.2-12.7,7.3l2.9-21.5c0.2-1.6,0.4-3.2,0.3-4.7c-0.1-2.5-1.3-4.2-3.7-4.2c-3.6,0-6.8,4.9-7.8,12.6l-1.6,10.5
		c-0.6,4.1-0.7,8.2-12.4,7.3l2.9-21.5c0.2-1.6,0.4-3.1,0.3-4.5c-0.1-2.5-1.1-4.4-3.5-4.4c-3.6,0-7,5.1-8,12.7l-1.6,10.5
		c-0.7,4.1-0.7,8.2-12.4,7.3L90.6,40.8L90.6,40.8z"/>
	<path class="st0" d="M41.4,66.8c-2.1,0.4-5.5,0.8-8.4,0.8c-13.5,0-23.2-8-23.9-20.3C8.4,36.2,13.2,27.8,20.6,23
		c5-3.4,11.1-5,18.7-4.9c2.8,0,5.7,0.4,7.7,0.8c6.7,1.5,0.6,10.9,0.6,10.9c-1.8-0.7-4.9-1.5-9-1.5c-4,0-8.3,1.2-11,3.4
		c-3.8,3.1-5.8,8-5.5,14.4c0.4,7.2,5.6,11.9,13.7,11.9c3.3,0,7-0.8,11.1-2.4C46.8,55.5,44.5,66.2,41.4,66.8L41.4,66.8z"/>
	<path class="st0" d="M224.8,60.8c1.4,0,2.6,1.2,2.6,2.8c0,1.5-1.2,2.8-2.6,2.7c-1.4,0-2.6-1.2-2.6-2.8
		C222.2,62.1,223.4,60.8,224.8,60.8L224.8,60.8L224.8,60.8z M224.8,60.3c-1.8,0-3.2,1.4-3.2,3.2c0,1.8,1.4,3.3,3.2,3.3
		c1.8,0,3.2-1.4,3.2-3.3C228,61.8,226.6,60.3,224.8,60.3L224.8,60.3L224.8,60.3z M224.2,63.9h0.4c0.5,0,0.7,0.2,0.8,0.6
		c0.1,0.5,0.2,0.8,0.3,0.9h0.6c-0.1-0.1-0.1-0.3-0.2-0.9c-0.1-0.5-0.3-0.8-0.6-0.9v0c0.4-0.1,0.7-0.4,0.7-0.9c0-0.3-0.1-0.6-0.3-0.8
		c-0.2-0.2-0.6-0.3-1.1-0.3c-0.4,0-0.7,0-1,0.1v3.6h0.6V63.9L224.2,63.9z M224.2,62.2c0.1,0,0.2,0,0.4,0c0.7,0,0.9,0.3,0.9,0.6
		c0,0.5-0.4,0.6-0.9,0.6h-0.4V62.2L224.2,62.2z"/>
</g>
</svg>
