<?xml version="1.0" encoding="utf-8"?>
<!-- Generator: Adobe Illustrator 20.1.0, SVG Export Plug-In . SVG Version: 6.00 Build 0)  -->
<svg version="1.1" id="Layer_1" xmlns="http://www.w3.org/2000/svg" xmlns:xlink="http://www.w3.org/1999/xlink" x="0px" y="0px"
	 viewBox="0 0 234.4 110.3" style="enable-background:new 0 0 234.4 110.3;" xml:space="preserve">
<style type="text/css">
	.st0{fill:#00A4C8;}
	.st1{fill:#001762;}
	.st2{fill:#00A5C9;}
	.st3{fill:#00A6C9;}
	.st4{fill:#00A7C9;}
	.st5{fill:#00A8CA;}
	.st6{fill:#00A9CA;}
	.st7{fill:#00AACA;}
	.st8{fill:#00ACCB;}
	.st9{fill:#00ADCB;}
	.st10{fill:#00AECB;}
	.st11{fill:#00AFCC;}
	.st12{fill:#00B0CC;}
	.st13{fill:#00B2CC;}
	.st14{fill:#00B3CD;}
	.st15{fill:#00B4CD;}
	.st16{fill:#00B6CE;}
	.st17{fill:#00B7CE;}
	.st18{fill:#00B8CF;}
	.st19{fill:#00BACF;}
	.st20{fill:#00BBD0;}
	.st21{fill:#02BDD0;}
	.st22{fill:#23BED1;}
	.st23{fill:#34BFD1;}
	.st24{fill:#40C0D2;}
	.st25{fill:#4AC2D2;}
	.st26{fill:#53C3D3;}
	.st27{fill:#5BC4D4;}
	.st28{fill:#62C5D4;}
	.st29{fill:#6AC7D5;}
	.st30{fill:#71C8D6;}
	.st31{fill:#78C9D6;}
	.st32{fill:#7FCAD7;}
	.st33{fill:#86CCD8;}
	.st34{fill:#8CCDD9;}
	.st35{fill:#93CEDA;}
	.st36{fill:#9AD0DB;}
	.st37{fill:#A0D1DC;}
	.st38{fill:#A6D3DD;}
	.st39{fill:#ACD4DE;}
	.st40{fill:#B2D5DF;}
	.st41{fill:#B8D7E0;}
	.st42{fill:#BDD8E1;}
	.st43{fill:#C1DAE3;}
	.st44{fill:#C5DBE4;}
	.st45{fill:#C9DDE6;}
	.st46{fill:#CDDFE7;}
	.st47{fill:#D1E1E9;}
	.st48{fill:#D5E3EA;}
	.st49{fill:#D9E6EC;}
	.st50{fill:#DCE8EE;}
	.st51{fill:#E0ECF0;}
	.st52{fill:#E4EFF3;}
	.st53{fill:#001963;}
	.st54{fill:#041B65;}
	.st55{fill:#0F1E66;}
	.st56{fill:#182067;}
	.st57{fill:#212269;}
	.st58{fill:#26246A;}
	.st59{fill:#2B276C;}
	.st60{fill:#30296D;}
	.st61{fill:#352C6F;}
	.st62{fill:#392E70;}
	.st63{fill:#3D3172;}
	.st64{fill:#413373;}
	.st65{fill:#453674;}
	.st66{fill:#493876;}
	.st67{fill:#4D3B77;}
	.st68{fill:#503D79;}
	.st69{fill:#54407A;}
	.st70{fill:#57427C;}
	.st71{fill:#5A457D;}
	.st72{fill:#5D487F;}
	.st73{fill:#614B80;}
	.st74{fill:#644D82;}
	.st75{fill:#685083;}
	.st76{fill:#6B5285;}
	.st77{fill:#6E5587;}
	.st78{fill:#715788;}
	.st79{fill:#755A8A;}
	.st80{fill:#785C8B;}
	.st81{fill:#7C608D;}
	.st82{fill:#7F628F;}
	.st83{fill:#836591;}
	.st84{fill:#866892;}
	.st85{fill:#8A6B94;}
	.st86{fill:#8D6E96;}
	.st87{fill:#917198;}
	.st88{fill:#947499;}
	.st89{fill:#97779B;}
	.st90{fill:#9B7A9D;}
	.st91{fill:#9E7D9E;}
	.st92{fill:#A280A0;}
	.st93{fill:#A583A2;}
	.st94{fill:#A987A4;}
	.st95{fill:#AC8AA5;}
	.st96{fill:#B08EA7;}
	.st97{fill:#B291A9;}
	.st98{fill:#B696AB;}
	.st99{fill:#B999AD;}
	.st100{fill:#BC9DAF;}
	.st101{fill:#BEA0B1;}
	.st102{fill:#C1A4B3;}
	.st103{fill:#C3A7B5;}
	.st104{fill:#C5A9B6;}
	.st105{fill:#C5AAB6;}
	.st106{fill:#C6ACB7;}
	.st107{fill:#C7ADB8;}
	.st108{fill:#C8AEB9;}
	.st109{fill:#C9B0BA;}
	.st110{fill:#CAB1BA;}
	.st111{fill:#CAB3BB;}
	.st112{fill:#CCB5BC;}
	.st113{fill:#CCB6BC;}
	.st114{fill:#CDB7BD;}
	.st115{fill:#CEB9BE;}
	.st116{fill:#CFBABF;}
	.st117{fill:#D0BBBF;}
	.st118{fill:#D1BDC0;}
	.st119{fill:#D2BEC1;}
	.st120{fill:#D2BFC1;}
	.st121{fill:#D4C1C2;}
	.st122{fill:#D4C2C3;}
	.st123{fill:#D5C2C4;}
	.st124{fill:#D6C4C5;}
	.st125{fill:#D7C5C5;}
	.st126{fill:#D8C7C6;}
	.st127{fill:#D9C8C7;}
	.st128{fill:#DAC8C7;}
	.st129{fill:#DBCAC9;}
	.st130{fill:#DCCBC9;}
	.st131{fill:#DCCCCA;}
	.st132{fill:#DECECB;}
	.st133{fill:#DFCFCC;}
	.st134{fill:#E0D1CD;}
	.st135{fill:#E1D2CE;}
	.st136{fill:#E2D3CF;}
	.st137{fill:#E3D4D0;}
	.st138{fill:#E4D5D1;}
	.st139{fill:#E5D6D1;}
	.st140{fill:#E6D8D3;}
	.st141{fill:#E7D9D4;}
	.st142{fill:#E8DAD5;}
	.st143{fill:#EADCD6;}
	.st144{fill:#EBDDD7;}
	.st145{fill:#EDDFD9;}
	.st146{fill:#EEE0DA;}
	.st147{fill:#EFE1DC;}
	.st148{fill:#F1E4DE;}
	.st149{fill:#F2E5DF;}
	.st150{fill:#F3E7E1;}
	.st151{fill:#F5EAE4;}
	.st152{fill:#F7ECE5;}
	.st153{fill:#F8EEE7;}
	.st154{filter:url(#Adobe_OpacityMaskFilter);}
	.st155{clip-path:url(#SVGID_3_);}
	.st156{mask:url(#SVGID_1_);}
	.st157{fill:#FFFFFF;}
	.st158{fill:#EF1420;}
</style>
<g>
	<path class="st0" d="M8.9,84.1c-3.7-1.5-4.7-4.5-4.7-7c0,0-0.2-9.5-0.2-19.8C4,47,4.2,33.5,4.2,33.5c0-2.4,1-5.5,4.7-6.9
		C32.3,17,71.6,7.9,116.2,7.9c44.5,0,83.8,9.1,107.2,18.6c3.7,1.5,4.7,4.5,4.7,6.9c0,0,0.2,13.5,0.2,23.8c0,10.4-0.2,19.8-0.2,19.8
		c0,2.4-1,5.5-4.7,7c-23.3,9.5-62.7,22.6-107.2,22.6C71.6,106.7,32.3,93.6,8.9,84.1z"/>
	<path class="st1" d="M8.9,84.1c-3.7-1.5-4.7-4.5-4.7-7c0,0-0.2-9.5-0.2-19.8C4,47,4.2,33.5,4.2,33.5c0-2.4,1-5.5,4.7-6.9
		C32.3,17,71.6,7.9,116.2,7.9c44.5,0,83.8,9.1,107.2,18.6c3.7,1.5,4.7,4.5,4.7,6.9c0,0,0.2,13.5,0.2,23.8c0,10.4-0.2,19.8-0.2,19.8
		c0,2.4-1,5.5-4.7,7c-23.3,9.5-62.7,22.6-107.2,22.6C71.6,106.7,32.3,93.6,8.9,84.1z"/>
	<path class="st0" d="M181.6,63.3c0,26.3-28.7,31.4-65.9,31.4c-37.2,0-65.6-5-65.6-31.4c0-18.8,28.6-30.7,65.8-30.7
		C153,32.6,181.6,44.5,181.6,63.3z"/>
	<g>
		<path class="st0" d="M158.2,82.8c0,10.6-18.9,14.8-42.3,14.8c-23.3,0-42.3-4.3-42.3-14.8c0-9.5,18.9-22.5,42.3-22.5
			C139.3,60.3,158.2,73.3,158.2,82.8z"/>
		<path class="st2" d="M116,60.8c23.1,0,41.7,12.8,41.7,22.2c0,10.4-18.7,14.6-41.7,14.6c-23.1,0-41.7-4.2-41.7-14.6
			C74.2,73.6,92.9,60.8,116,60.8z"/>
		<path class="st3" d="M115.9,61.3c22.8,0,41.2,12.6,41.2,21.9c0,10.3-18.5,14.4-41.2,14.4c-22.8,0-41.2-4.1-41.2-14.4
			C74.7,73.9,93.2,61.3,115.9,61.3z"/>
		<path class="st4" d="M115.9,61.8c22.5,0,40.7,12.4,40.7,21.5c0,10.1-18.2,14.2-40.7,14.2c-22.5,0-40.7-4.1-40.7-14.2
			C75.2,74.2,93.5,61.8,115.9,61.8z"/>
		<path class="st5" d="M115.9,62.4c22.2,0,40.2,12.2,40.2,21.2c0,10-18,14-40.2,14c-22.2,0-40.2-4-40.2-14
			C75.8,74.6,93.7,62.4,115.9,62.4z"/>
		<path class="st6" d="M115.9,62.9c21.9,0,39.7,12,39.7,20.9c0,9.8-17.8,13.8-39.7,13.8c-21.9,0-39.7-4-39.7-13.8
			C76.3,74.9,94,62.9,115.9,62.9z"/>
		<path class="st7" d="M115.9,63.4c21.6,0,39.2,11.8,39.2,20.6c0,9.7-17.5,13.6-39.2,13.6c-21.6,0-39.2-3.9-39.2-13.6
			C76.8,75.2,94.3,63.4,115.9,63.4z"/>
		<path class="st8" d="M115.9,63.9c21.4,0,38.7,11.6,38.7,20.2c0,9.6-17.3,13.4-38.7,13.4c-21.4,0-38.7-3.8-38.7-13.4
			C77.3,75.5,94.6,63.9,115.9,63.9z"/>
		<path class="st9" d="M115.9,64.4c21.1,0,38.2,11.4,38.2,19.9c0,9.4-17.1,13.2-38.2,13.2c-21.1,0-38.2-3.8-38.2-13.2
			C77.8,75.8,94.8,64.4,115.9,64.4z"/>
		<path class="st10" d="M115.9,64.9c20.8,0,37.7,11.2,37.7,19.6c0,9.3-16.9,13-37.7,13c-20.8,0-37.7-3.7-37.7-13
			C78.3,76.1,95.1,64.9,115.9,64.9z"/>
		<path class="st11" d="M115.9,65.4c20.5,0,37.2,11,37.2,19.3c0,9.1-16.6,12.8-37.1,12.8c-20.5,0-37.1-3.7-37.1-12.8
			C78.8,76.4,95.4,65.4,115.9,65.4z"/>
		<path class="st12" d="M115.9,65.9c20.2,0,36.7,10.8,36.7,18.9c0,9-16.4,12.6-36.6,12.6c-20.2,0-36.6-3.6-36.6-12.6
			C79.3,76.7,95.7,65.9,115.9,65.9z"/>
		<path class="st13" d="M115.9,66.4c20,0,36.2,10.7,36.2,18.6c0,8.8-16.2,12.4-36.1,12.4c-20,0-36.1-3.5-36.1-12.4
			C79.8,77,95.9,66.4,115.9,66.4z"/>
		<path class="st14" d="M115.9,66.9c19.7,0,35.7,10.5,35.7,18.3c0,8.7-15.9,12.2-35.6,12.2c-19.7,0-35.6-3.5-35.6-12.2
			C80.3,77.4,96.2,66.9,115.9,66.9z"/>
		<path class="st15" d="M115.9,67.4c19.4,0,35.2,10.3,35.2,18c0,8.5-15.7,12-35.1,12c-19.4,0-35.1-3.4-35.1-12
			C80.9,77.7,96.5,67.4,115.9,67.4z"/>
		<path class="st16" d="M115.9,67.9c19.1,0,34.7,10.1,34.7,17.6c0,8.4-15.5,11.8-34.6,11.8c-19.1,0-34.6-3.4-34.6-11.8
			C81.4,78,96.8,67.9,115.9,67.9z"/>
		<path class="st17" d="M115.9,68.4c18.8,0,34.2,9.9,34.2,17.3c0,8.3-15.3,11.6-34.1,11.6c-18.8,0-34.1-3.3-34.1-11.6
			C81.9,78.3,97,68.4,115.9,68.4z"/>
		<path class="st18" d="M115.9,68.9c18.5,0,33.7,9.7,33.7,17c0,8.1-15,11.4-33.6,11.4c-18.5,0-33.6-3.2-33.6-11.4
			C82.4,78.6,97.3,68.9,115.9,68.9z"/>
		<path class="st19" d="M115.8,69.4c18.3,0,33.2,9.5,33.2,16.7c0,8-14.8,11.2-33.1,11.2c-18.3,0-33.1-3.2-33.1-11.2
			C82.9,78.9,97.6,69.4,115.8,69.4z"/>
		<path class="st20" d="M115.8,69.9c18,0,32.7,9.3,32.7,16.3c0,7.8-14.6,11-32.6,11c-18,0-32.6-3.1-32.6-11
			C83.4,79.2,97.9,69.9,115.8,69.9z"/>
		<path class="st21" d="M115.8,70.4c17.7,0,32.2,9.1,32.2,16c0,7.7-14.3,10.7-32,10.7c-17.7,0-32-3.1-32-10.7
			C83.9,79.5,98.1,70.4,115.8,70.4z"/>
		<path class="st22" d="M115.8,70.9c17.4,0,31.7,8.9,31.7,15.7c0,7.5-14.1,10.5-31.5,10.5c-17.4,0-31.5-3-31.5-10.5
			C84.4,79.8,98.4,70.9,115.8,70.9z"/>
		<path class="st23" d="M115.8,71.4c17.1,0,31.2,8.7,31.2,15.4c0,7.4-13.9,10.3-31,10.3c-17.1,0-31-2.9-31-10.3
			C84.9,80.2,98.7,71.4,115.8,71.4z"/>
		<path class="st24" d="M115.8,72c16.9,0,30.7,8.5,30.7,15c0,7.2-13.7,10.1-30.5,10.1c-16.9,0-30.5-2.9-30.5-10.1
			C85.4,80.5,99,72,115.8,72z"/>
		<path class="st25" d="M115.8,72.5c16.6,0,30.2,8.3,30.2,14.7c0,7.1-13.4,9.9-30,9.9c-16.6,0-30-2.8-30-9.9
			C86,80.8,99.2,72.5,115.8,72.5z"/>
		<path class="st26" d="M115.8,73c16.3,0,29.6,8.1,29.6,14.4c0,7-13.2,9.7-29.5,9.7c-16.3,0-29.5-2.8-29.5-9.7
			C86.5,81.1,99.5,73,115.8,73z"/>
		<path class="st27" d="M115.8,73.5c16,0,29.1,7.9,29.1,14.1c0,6.8-13,9.5-29,9.5c-16,0-29-2.7-29-9.5C87,81.4,99.8,73.5,115.8,73.5
			z"/>
		<path class="st28" d="M115.8,74c15.7,0,28.6,7.7,28.6,13.7c0,6.7-12.8,9.3-28.5,9.3c-15.7,0-28.5-2.7-28.5-9.3
			C87.5,81.7,100.1,74,115.8,74z"/>
		<path class="st29" d="M115.8,74.5c15.4,0,28.1,7.5,28.1,13.4c0,6.5-12.5,9.1-28,9.1c-15.4,0-28-2.6-28-9.1
			C88,82,100.3,74.5,115.8,74.5z"/>
		<path class="st30" d="M115.8,75c15.2,0,27.6,7.3,27.6,13.1c0,6.4-12.3,8.9-27.4,8.9c-15.2,0-27.5-2.5-27.5-8.9
			C88.5,82.3,100.6,75,115.8,75z"/>
		<path class="st31" d="M115.8,75.5c14.9,0,27.1,7.1,27.1,12.8c0,6.2-12.1,8.7-26.9,8.7C101.1,97,89,94.5,89,88.3
			C89,82.6,100.9,75.5,115.8,75.5z"/>
		<path class="st32" d="M115.8,76c14.6,0,26.6,7,26.6,12.4c0,6.1-11.8,8.5-26.4,8.5c-14.6,0-26.4-2.4-26.4-8.5
			C89.5,83,101.2,76,115.8,76z"/>
		<path class="st33" d="M115.8,76.5c14.3,0,26.1,6.8,26.1,12.1c0,6-11.6,8.3-25.9,8.3c-14.3,0-25.9-2.4-25.9-8.3
			C90,83.3,101.4,76.5,115.8,76.5z"/>
		<path class="st34" d="M115.8,77c14,0,25.6,6.6,25.6,11.8c0,5.8-11.4,8.1-25.4,8.1c-14,0-25.4-2.3-25.4-8.1
			C90.6,83.6,101.7,77,115.8,77z"/>
		<path class="st35" d="M115.7,77.5c13.7,0,25.1,6.4,25.1,11.5c0,5.7-11.2,7.9-24.9,7.9c-13.8,0-24.9-2.2-24.9-7.9
			C91.1,83.9,102,77.5,115.7,77.5z"/>
		<path class="st36" d="M115.7,78c13.5,0,24.6,6.2,24.6,11.2c0,5.5-10.9,7.7-24.4,7.7c-13.5,0-24.4-2.2-24.4-7.7
			C91.6,84.2,102.3,78,115.7,78z"/>
		<path class="st37" d="M115.7,78.5c13.2,0,24.1,6,24.1,10.8c0,5.4-10.7,7.5-23.9,7.5c-13.2,0-23.9-2.1-23.9-7.5
			C92.1,84.5,102.5,78.5,115.7,78.5z"/>
		<path class="st38" d="M115.7,79c12.9,0,23.6,5.8,23.6,10.5c0,5.2-10.5,7.3-23.4,7.3c-12.9,0-23.4-2.1-23.4-7.3
			C92.6,84.8,102.8,79,115.7,79z"/>
		<path class="st39" d="M115.7,79.5c12.6,0,23.1,5.6,23.1,10.2c0,5.1-10.2,7.1-22.9,7.1c-12.6,0-22.9-2-22.9-7.1
			C93.1,85.1,103.1,79.5,115.7,79.5z"/>
		<path class="st40" d="M115.7,80c12.3,0,22.6,5.4,22.6,9.9c0,4.9-10,6.9-22.3,6.9c-12.3,0-22.3-1.9-22.3-6.9
			C93.6,85.4,103.4,80,115.7,80z"/>
		<path class="st41" d="M115.7,80.5c12.1,0,22.1,5.2,22.1,9.5c0,4.8-9.8,6.7-21.8,6.7c-12.1,0-21.8-1.9-21.8-6.7
			C94.1,85.7,103.7,80.5,115.7,80.5z"/>
		<path class="st42" d="M115.7,81c11.8,0,21.6,5,21.6,9.2c0,4.7-9.6,6.5-21.3,6.5c-11.8,0-21.3-1.8-21.3-6.5
			C94.6,86.1,103.9,81,115.7,81z"/>
		<path class="st43" d="M115.7,81.6c11.5,0,21.1,4.8,21.1,8.9c0,4.5-9.3,6.3-20.8,6.3c-11.5,0-20.8-1.8-20.8-6.3
			C95.1,86.4,104.2,81.6,115.7,81.6z"/>
		<path class="st44" d="M115.7,82.1c11.2,0,20.6,4.6,20.6,8.6c0,4.4-9.1,6.1-20.3,6.1c-11.2,0-20.3-1.7-20.3-6.1
			C95.7,86.7,104.5,82.1,115.7,82.1z"/>
		<path class="st45" d="M115.7,82.6c10.9,0,20.1,4.4,20.1,8.2c0,4.2-8.9,5.9-19.8,5.9c-10.9,0-19.8-1.6-19.8-5.9
			C96.2,87,104.8,82.6,115.7,82.6z"/>
		<path class="st46" d="M115.7,83.1c10.6,0,19.6,4.2,19.6,7.9c0,4.1-8.6,5.7-19.3,5.7c-10.7,0-19.3-1.6-19.3-5.7
			C96.7,87.3,105,83.1,115.7,83.1z"/>
		<path class="st47" d="M115.7,83.6c10.4,0,19.1,4,19.1,7.6c0,3.9-8.4,5.5-18.8,5.5c-10.4,0-18.8-1.5-18.8-5.5
			C97.2,87.6,105.3,83.6,115.7,83.6z"/>
		<path class="st48" d="M115.7,84.1c10.1,0,18.6,3.8,18.6,7.3c0,3.8-8.2,5.3-18.3,5.3c-10.1,0-18.3-1.5-18.3-5.3
			C97.7,87.9,105.6,84.1,115.7,84.1z"/>
		<path class="st49" d="M115.7,84.6c9.8,0,18.1,3.6,18.1,6.9c0,3.6-8,5-17.7,5c-9.8,0-17.8-1.4-17.8-5
			C98.2,88.2,105.9,84.6,115.7,84.6z"/>
		<path class="st50" d="M115.7,85.1c9.5,0,17.5,3.5,17.5,6.6c0,3.5-7.7,4.8-17.2,4.8c-9.5,0-17.2-1.3-17.2-4.8
			C98.7,88.5,106.1,85.1,115.7,85.1z"/>
		<path class="st51" d="M115.6,85.6c9.2,0,17,3.3,17,6.3c0,3.4-7.5,4.6-16.7,4.6c-9.2,0-16.7-1.3-16.7-4.6
			C99.2,88.9,106.4,85.6,115.6,85.6z"/>
		<path class="st52" d="M132.2,92.1c0,3.2-7.3,4.4-16.2,4.4c-9,0-16.2-1.2-16.2-4.4c0-2.9,6.9-6,15.9-6
			C124.6,86.1,132.2,89.2,132.2,92.1z"/>
	</g>
	<g>
		<path class="st1" d="M181.6,63.3c0,26.3-28.7,31.4-65.9,31.4c-37.2,0-65.6-5-65.6-31.4c0-18.8,28.6-30.7,65.8-30.7
			C153,32.6,181.6,44.5,181.6,63.3z"/>
		<path class="st53" d="M181.1,63.6c0,26-28.5,31.1-65.4,31.1c-36.9,0-65.1-5-65.1-31.1c0-18.8,28.3-30.6,65.2-30.6
			C152.7,32.9,181.1,44.8,181.1,63.6z"/>
		<path class="st54" d="M180.5,63.9c0,25.7-28.3,30.8-64.9,30.8c-36.6,0-64.5-5-64.6-30.8c0-18.7,28.1-30.6,64.7-30.6
			C152.4,33.3,180.5,45.2,180.5,63.9z"/>
		<path class="st55" d="M180,64.2c0,25.5-28.1,30.6-64.3,30.6c-36.3,0-64-5-64-30.6c0-18.7,27.9-30.5,64.2-30.5
			C152.1,33.7,180,45.5,180,64.2z"/>
		<path class="st56" d="M179.4,64.5c0,25.2-27.8,30.3-63.8,30.3c-35.9,0-63.4-5-63.5-30.3c0-18.6,27.7-30.5,63.6-30.5
			C151.8,34,179.4,45.8,179.4,64.5z"/>
		<path class="st57" d="M178.9,64.8c0,24.9-27.6,30-63.2,30c-35.6,0-62.9-5-62.9-30c0-18.6,27.5-30.4,63.1-30.4
			C151.4,34.4,178.9,46.2,178.9,64.8z"/>
		<path class="st58" d="M178.4,65.1c0,24.6-27.4,29.7-62.7,29.7c-35.3,0-62.4-5-62.4-29.7c0-18.5,27.2-30.3,62.5-30.3
			C151.1,34.7,178.4,46.5,178.4,65.1z"/>
		<path class="st59" d="M177.8,65.3c0,24.4-27.1,29.5-62.1,29.5c-35,0-61.8-5-61.9-29.5c0-18.5,27-30.3,62-30.3
			C150.8,35.1,177.8,46.9,177.8,65.3z"/>
		<path class="st60" d="M177.3,65.6c0,24.1-26.9,29.2-61.6,29.2c-34.7,0-61.3-5-61.3-29.2c0-18.4,26.8-30.2,61.5-30.2
			C150.5,35.4,177.3,47.2,177.3,65.6z"/>
		<path class="st61" d="M176.7,65.9c0,23.8-26.7,28.9-61.1,28.9c-34.4,0-60.8-5-60.8-28.9c0-18.4,26.6-30.1,60.9-30.1
			C150.2,35.8,176.7,47.6,176.7,65.9z"/>
		<path class="st62" d="M176.2,66.2c0,23.5-26.5,28.6-60.5,28.6c-34.1,0-60.2-5-60.3-28.6c0-18.3,26.3-30.1,60.4-30.1
			C149.9,36.1,176.2,47.9,176.2,66.2z"/>
		<path class="st63" d="M175.7,66.5c0,23.3-26.2,28.4-60,28.4c-33.7,0-59.7-5-59.7-28.4c0-18.3,26.1-30,59.8-30
			C149.5,36.5,175.7,48.2,175.7,66.5z"/>
		<path class="st64" d="M175.1,66.8c0,23-26,28.1-59.4,28.1c-33.4,0-59.2-5-59.2-28.1c0-18.2,25.9-29.9,59.3-29.9
			C149.2,36.9,175.1,48.6,175.1,66.8z"/>
		<path class="st65" d="M174.6,67.1c0,22.7-25.8,27.8-58.9,27.8c-33.1,0-58.6-5-58.7-27.8c0-18.2,25.7-29.9,58.8-29.9
			C148.9,37.2,174.6,48.9,174.6,67.1z"/>
		<path class="st66" d="M174,67.4c0,22.4-25.6,27.5-58.3,27.5c-32.8,0-58.1-5-58.1-27.5c0-18.1,25.4-29.8,58.2-29.8
			C148.6,37.6,174,49.3,174,67.4z"/>
		<path class="st67" d="M173.5,67.7c0,22.2-25.3,27.3-57.8,27.3c-32.5,0-57.5-5-57.6-27.3c0-18.1,25.2-29.8,57.7-29.8
			C148.3,37.9,173.5,49.6,173.5,67.7z"/>
		<path class="st68" d="M173,68c0,21.9-25.1,27-57.3,27c-32.2,0-57-5-57-27c0-18,25-29.7,57.1-29.7C148,38.3,173,50,173,68z"/>
		<path class="st69" d="M172.4,68.3c0,21.6-24.9,26.7-56.7,26.7c-31.8,0-56.5-5-56.5-26.7c0-18,24.8-29.6,56.6-29.6
			C147.7,38.6,172.4,50.3,172.4,68.3z"/>
		<path class="st70" d="M171.9,68.6c0,21.3-24.6,26.5-56.2,26.5c-31.5,0-55.9-5-56-26.5c0-17.9,24.5-29.6,56.1-29.6
			C147.3,39,171.9,50.6,171.9,68.6z"/>
		<path class="st71" d="M171.3,68.8c0,21.1-24.4,26.2-55.6,26.2c-31.2,0-55.4-5-55.4-26.2c0-17.9,24.3-29.5,55.5-29.5
			C147,39.3,171.3,51,171.3,68.8z"/>
		<path class="st72" d="M170.8,69.1c0,20.8-24.2,25.9-55.1,25.9c-30.9,0-54.9-5-54.9-25.9c0-17.8,24.1-29.4,55-29.4
			C146.7,39.7,170.8,51.3,170.8,69.1z"/>
		<path class="st73" d="M170.3,69.4c0,20.5-24,25.6-54.5,25.6c-30.6,0-54.3-5-54.4-25.6c0-17.8,23.9-29.4,54.4-29.4
			C146.4,40.1,170.3,51.7,170.3,69.4z"/>
		<path class="st74" d="M169.7,69.7c0,20.2-23.7,25.4-54,25.4c-30.3,0-53.8-5-53.8-25.4c0-17.7,23.6-29.3,53.9-29.3
			C146.1,40.4,169.7,52,169.7,69.7z"/>
		<path class="st75" d="M169.2,70c0,20-23.5,25.1-53.5,25.1c-30,0-53.3-5-53.3-25.1c0-17.7,23.4-29.2,53.4-29.2
			C145.8,40.8,169.2,52.3,169.2,70z"/>
		<path class="st76" d="M168.6,70.3c0,19.7-23.3,24.8-52.9,24.8c-29.6,0-52.7-5-52.7-24.8c0-17.6,23.2-29.2,52.8-29.2
			C145.4,41.1,168.6,52.7,168.6,70.3z"/>
		<path class="st77" d="M168.1,70.6c0,19.4-23,24.5-52.4,24.5c-29.3,0-52.2-5-52.2-24.5c0-17.6,23-29.1,52.3-29.1
			C145.1,41.5,168.1,53,168.1,70.6z"/>
		<path class="st78" d="M167.6,70.9c0,19.1-22.8,24.3-51.8,24.3c-29,0-51.7-5-51.7-24.3c0-17.5,22.7-29.1,51.7-29.1
			C144.8,41.8,167.6,53.4,167.6,70.9z"/>
		<path class="st79" d="M167,71.2c0,18.9-22.6,24-51.3,24c-28.7,0-51.1-5-51.1-24c0-17.5,22.5-29,51.2-29
			C144.5,42.2,167,53.7,167,71.2z"/>
		<path class="st80" d="M166.5,71.5c0,18.6-22.4,23.7-50.7,23.7c-28.4,0-50.6-5-50.6-23.7c0-17.4,22.3-28.9,50.7-28.9
			C144.2,42.5,166.5,54.1,166.5,71.5z"/>
		<path class="st81" d="M165.9,71.8c0,18.3-22.1,23.4-50.2,23.4c-28.1,0-50-5-50.1-23.4c0-17.4,22.1-28.9,50.1-28.9
			C143.9,42.9,165.9,54.4,165.9,71.8z"/>
		<path class="st82" d="M165.4,72.1c0,18-21.9,23.2-49.7,23.2c-27.7,0-49.5-5.1-49.5-23.2c0-17.3,21.8-28.8,49.6-28.8
			C143.6,43.3,165.4,54.7,165.4,72.1z"/>
		<path class="st83" d="M164.9,72.3c0,17.8-21.7,22.9-49.1,22.9c-27.4,0-49-5.1-49-22.9c0-17.3,21.6-28.7,49.1-28.7
			C143.2,43.6,164.9,55.1,164.9,72.3z"/>
		<path class="st84" d="M164.3,72.6c0,17.5-21.5,22.6-48.6,22.6c-27.1,0-48.4-5.1-48.5-22.6c0-17.2,21.4-28.7,48.5-28.7
			C142.9,44,164.3,55.4,164.3,72.6z"/>
		<path class="st85" d="M163.8,72.9c0,17.2-21.2,22.3-48,22.3c-26.8,0-47.9-5.1-47.9-22.3c0-17.2,21.2-28.6,48-28.6
			C142.6,44.3,163.8,55.8,163.8,72.9z"/>
		<path class="st86" d="M163.2,73.2c0,16.9-21,22.1-47.5,22.1c-26.5,0-47.4-5.1-47.4-22.1c0-17.1,20.9-28.6,47.4-28.6
			C142.3,44.7,163.2,56.1,163.2,73.2z"/>
		<path class="st87" d="M162.7,73.5c0,16.7-20.8,21.8-46.9,21.8c-26.2,0-46.8-5.1-46.8-21.8c0-17.1,20.7-28.5,46.9-28.5
			C142,45,162.7,56.5,162.7,73.5z"/>
		<path class="st88" d="M162.2,73.8c0,16.4-20.5,21.5-46.4,21.5c-25.9,0-46.3-5.1-46.3-21.5c0-17,20.5-28.4,46.4-28.4
			C141.7,45.4,162.2,56.8,162.2,73.8z"/>
		<path class="st89" d="M161.6,74.1c0,16.1-20.3,21.2-45.9,21.2C90.2,95.3,70,90.3,70,74.1c0-17,20.3-28.4,45.8-28.4
			C141.4,45.7,161.6,57.1,161.6,74.1z"/>
		<path class="st90" d="M161.1,74.4c0,15.8-20.1,21-45.3,21c-25.2,0-45.2-5.1-45.2-21c0-16.9,20-28.3,45.3-28.3
			C141,46.1,161.1,57.5,161.1,74.4z"/>
		<path class="st91" d="M160.5,74.7c0,15.6-19.9,20.7-44.8,20.7c-24.9,0-44.7-5.1-44.7-20.7c0-16.9,19.8-28.2,44.7-28.2
			C140.7,46.5,160.5,57.8,160.5,74.7z"/>
		<path class="st92" d="M160,75c0,15.3-19.6,20.4-44.2,20.4c-24.6,0-44.1-5.1-44.2-20.4c0-16.8,19.6-28.2,44.2-28.2
			C140.4,46.8,160,58.2,160,75z"/>
		<path class="st93" d="M159.5,75.3c0,15-19.4,20.1-43.7,20.1c-24.3,0-43.6-5.1-43.6-20.1c0-16.8,19.4-28.1,43.7-28.1
			C140.1,47.2,159.5,58.5,159.5,75.3z"/>
		<path class="st94" d="M158.9,75.6c0,14.7-19.2,19.9-43.1,19.9c-24,0-43.1-5.1-43.1-19.9c0-16.7,19.1-28,43.1-28
			C139.8,47.5,158.9,58.9,158.9,75.6z"/>
		<path class="st95" d="M158.4,75.9c0,14.5-18.9,19.6-42.6,19.6c-23.6,0-42.5-5.1-42.5-19.6c0-16.7,18.9-28,42.6-28
			C139.5,47.9,158.4,59.2,158.4,75.9z"/>
		<path class="st96" d="M157.8,76.1c0,14.2-18.7,19.3-42.1,19.3c-23.3,0-42-5.1-42-19.3c0-16.6,18.7-27.9,42-27.9
			C139.1,48.2,157.8,59.5,157.8,76.1z"/>
		<path class="st97" d="M157.3,76.4c0,13.9-18.5,19-41.5,19c-23,0-41.5-5.1-41.5-19c0-16.6,18.5-27.9,41.5-27.9
			C138.8,48.6,157.3,59.9,157.3,76.4z"/>
		<path class="st98" d="M156.8,76.7c0,13.6-18.3,18.8-41,18.8c-22.7,0-40.9-5.1-40.9-18.8c0-16.5,18.3-27.8,41-27.8
			C138.5,48.9,156.8,60.2,156.8,76.7z"/>
		<path class="st99" d="M156.2,77c0,13.4-18,18.5-40.4,18.5c-22.4,0-40.4-5.1-40.4-18.5c0-16.5,18-27.7,40.4-27.7
			C138.2,49.3,156.2,60.6,156.2,77z"/>
		<path class="st100" d="M155.7,77.3c0,13.1-17.8,18.2-39.9,18.2c-22.1,0-39.9-5.1-39.9-18.2c0-16.4,17.8-27.7,39.9-27.7
			C137.9,49.6,155.7,60.9,155.7,77.3z"/>
		<path class="st101" d="M155.1,77.6c0,12.8-17.6,17.9-39.3,17.9c-21.8,0-39.3-5.1-39.3-17.9C76.5,61.2,94,50,115.8,50
			C137.6,50,155.1,61.2,155.1,77.6z"/>
		<path class="st102" d="M154.6,77.9c0,12.5-17.4,17.7-38.8,17.7C94.4,95.6,77,90.4,77,77.9c0-16.3,17.4-27.5,38.8-27.5
			C137.3,50.4,154.6,61.6,154.6,77.9z"/>
		<path class="st103" d="M154.1,78.2c0,12.3-17.1,17.4-38.3,17.4c-21.1,0-38.3-5.1-38.3-17.4c0-16.3,17.1-27.5,38.3-27.5
			C136.9,50.7,154.1,61.9,154.1,78.2z"/>
		<path class="st104" d="M115.8,51.3c21,0,37.9,11.1,37.9,27.1c0,12.1-17,17.2-37.9,17.2c-21,0-37.9-5.1-37.9-17.2
			C77.9,62.3,94.8,51.3,115.8,51.3z"/>
		<path class="st105" d="M115.8,51.8c20.8,0,37.6,10.9,37.6,26.8c0,12-16.8,17.1-37.6,17.1c-20.8,0-37.6-5-37.6-17.1
			C78.2,62.7,95,51.8,115.8,51.8z"/>
		<path class="st106" d="M115.8,52.4c20.6,0,37.3,10.8,37.3,26.5c0,11.9-16.7,16.9-37.3,16.9c-20.6,0-37.3-5-37.3-16.9
			C78.5,63.2,95.2,52.4,115.8,52.4z"/>
		<path class="st107" d="M115.8,52.9c20.4,0,37,10.6,37,26.2c0,11.8-16.6,16.8-37,16.8c-20.4,0-37-5-37-16.8
			C78.8,63.6,95.4,52.9,115.8,52.9z"/>
		<path class="st108" d="M115.8,53.5c20.3,0,36.7,10.5,36.7,25.9c0,11.7-16.4,16.6-36.7,16.6c-20.3,0-36.7-4.9-36.7-16.6
			C79.1,64,95.5,53.5,115.8,53.5z"/>
		<path class="st109" d="M115.8,54c20.1,0,36.4,10.3,36.4,25.5c0,11.6-16.3,16.4-36.4,16.4c-20.1,0-36.4-4.9-36.4-16.4
			C79.4,64.4,95.7,54,115.8,54z"/>
		<path class="st110" d="M115.8,54.6c19.9,0,36.1,10.2,36.1,25.2c0,11.5-16.1,16.3-36.1,16.3c-19.9,0-36.1-4.8-36.1-16.3
			C79.7,64.8,95.9,54.6,115.8,54.6z"/>
		<path class="st111" d="M115.8,55.1c19.8,0,35.8,10.1,35.8,24.9c0,11.3-16,16.1-35.8,16.1C96,96.2,80,91.4,80,80
			C80,65.2,96,55.1,115.8,55.1z"/>
		<path class="st112" d="M115.8,55.7c19.6,0,35.4,9.9,35.4,24.6c0,11.2-15.9,16-35.4,16c-19.6,0-35.4-4.7-35.4-16
			C80.3,65.6,96.2,55.7,115.8,55.7z"/>
		<path class="st113" d="M115.8,56.2c19.4,0,35.1,9.8,35.1,24.2c0,11.1-15.7,15.8-35.1,15.8c-19.4,0-35.1-4.7-35.1-15.8
			C80.6,66,96.4,56.2,115.8,56.2z"/>
		<path class="st114" d="M115.8,56.8c19.2,0,34.8,9.6,34.8,23.9c0,11-15.6,15.7-34.8,15.7C96.5,96.4,81,91.7,81,80.7
			C81,66.4,96.5,56.8,115.8,56.8z"/>
		<path class="st115" d="M115.8,57.3c19.1,0,34.5,9.5,34.5,23.6c0,10.9-15.4,15.5-34.5,15.5c-19.1,0-34.5-4.6-34.5-15.5
			C81.3,66.8,96.7,57.3,115.8,57.3z"/>
		<path class="st116" d="M115.8,57.9c18.9,0,34.2,9.3,34.2,23.3c0,10.8-15.3,15.4-34.2,15.4c-18.9,0-34.2-4.6-34.2-15.4
			C81.6,67.2,96.9,57.9,115.8,57.9z"/>
		<path class="st117" d="M115.8,58.5c18.7,0,33.9,9.2,33.9,23c0,10.7-15.2,15.2-33.9,15.2c-18.7,0-33.9-4.5-33.9-15.2
			C81.9,67.6,97,58.5,115.8,58.5z"/>
		<path class="st118" d="M115.8,59c18.5,0,33.6,9,33.6,22.6c0,10.5-15,15-33.6,15c-18.5,0-33.6-4.5-33.6-15
			C82.2,68,97.2,59,115.8,59z"/>
		<path class="st119" d="M115.8,59.6c18.4,0,33.3,8.9,33.3,22.3c0,10.4-14.9,14.9-33.3,14.9c-18.4,0-33.3-4.5-33.3-14.9
			C82.5,68.5,97.4,59.6,115.8,59.6z"/>
		<path class="st120" d="M115.7,60.1c18.2,0,32.9,8.8,32.9,22c0,10.3-14.7,14.7-32.9,14.7c-18.2,0-32.9-4.4-32.9-14.7
			C82.8,68.9,97.6,60.1,115.7,60.1z"/>
		<path class="st121" d="M115.7,60.7c18,0,32.6,8.6,32.6,21.7c0,10.2-14.6,14.6-32.6,14.6c-18,0-32.6-4.4-32.6-14.6
			C83.1,69.3,97.7,60.7,115.7,60.7z"/>
		<path class="st122" d="M115.7,61.2c17.9,0,32.3,8.5,32.3,21.3c0,10.1-14.5,14.4-32.3,14.4c-17.8,0-32.3-4.3-32.3-14.4
			C83.4,69.7,97.9,61.2,115.7,61.2z"/>
		<path class="st123" d="M115.7,61.8c17.7,0,32,8.3,32,21c0,10-14.3,14.3-32,14.3c-17.7,0-32-4.3-32-14.3
			C83.7,70.1,98.1,61.8,115.7,61.8z"/>
		<path class="st124" d="M115.7,62.3c17.5,0,31.7,8.2,31.7,20.7c0,9.9-14.2,14.1-31.7,14.1c-17.5,0-31.7-4.2-31.7-14.1
			C84.1,70.5,98.2,62.3,115.7,62.3z"/>
		<path class="st125" d="M115.7,62.9c17.3,0,31.4,8,31.4,20.4c0,9.7-14,13.9-31.4,13.9c-17.3,0-31.4-4.2-31.4-13.9
			C84.4,70.9,98.4,62.9,115.7,62.9z"/>
		<path class="st126" d="M115.7,63.4c17.2,0,31.1,7.9,31.1,20c0,9.6-13.9,13.8-31.1,13.8c-17.2,0-31.1-4.2-31.1-13.8
			C84.7,71.3,98.6,63.4,115.7,63.4z"/>
		<path class="st127" d="M115.7,64c17,0,30.7,7.7,30.7,19.7c0,9.5-13.8,13.6-30.7,13.6c-17,0-30.7-4.1-30.7-13.6
			C85,71.7,98.7,64,115.7,64z"/>
		<path class="st128" d="M115.7,64.5c16.8,0,30.4,7.6,30.4,19.4c0,9.4-13.6,13.5-30.4,13.5c-16.8,0-30.4-4.1-30.4-13.5
			C85.3,72.1,98.9,64.5,115.7,64.5z"/>
		<path class="st129" d="M115.7,65.1c16.6,0,30.1,7.4,30.1,19.1c0,9.3-13.5,13.3-30.1,13.3c-16.6,0-30.1-4-30.1-13.3
			C85.6,72.5,99.1,65.1,115.7,65.1z"/>
		<path class="st130" d="M115.7,65.6c16.5,0,29.8,7.3,29.8,18.8c0,9.2-13.3,13.2-29.8,13.2c-16.5,0-29.8-4-29.8-13.2
			C85.9,72.9,99.3,65.6,115.7,65.6z"/>
		<path class="st131" d="M115.7,66.2c16.3,0,29.5,7.2,29.5,18.4c0,9.1-13.2,13-29.5,13c-16.3,0-29.5-3.9-29.5-13
			C86.2,73.4,99.4,66.2,115.7,66.2z"/>
		<path class="st132" d="M115.7,66.7c16.1,0,29.2,7,29.2,18.1c0,8.9-13.1,12.9-29.2,12.9c-16.1,0-29.2-3.9-29.2-12.9
			C86.5,73.8,99.6,66.7,115.7,66.7z"/>
		<path class="st132" d="M115.7,67.3c16,0,28.9,6.9,28.9,17.8c0,8.8-12.9,12.7-28.9,12.7c-15.9,0-28.9-3.9-28.9-12.7
			C86.8,74.2,99.8,67.3,115.7,67.3z"/>
		<path class="st133" d="M115.7,67.9c15.8,0,28.6,6.7,28.6,17.5c0,8.7-12.8,12.5-28.6,12.5c-15.8,0-28.6-3.8-28.6-12.5
			C87.1,74.6,99.9,67.9,115.7,67.9z"/>
		<path class="st134" d="M115.7,68.4c15.6,0,28.2,6.6,28.2,17.1c0,8.6-12.6,12.4-28.2,12.4c-15.6,0-28.2-3.8-28.2-12.4
			C87.5,75,100.1,68.4,115.7,68.4z"/>
		<path class="st135" d="M115.7,69c15.4,0,27.9,6.4,27.9,16.8c0,8.5-12.5,12.2-27.9,12.2c-15.4,0-27.9-3.7-27.9-12.2
			C87.8,75.4,100.3,69,115.7,69z"/>
		<path class="st136" d="M115.7,69.5c15.3,0,27.6,6.3,27.6,16.5c0,8.4-12.4,12.1-27.6,12.1c-15.3,0-27.6-3.7-27.6-12.1
			C88.1,75.8,100.4,69.5,115.7,69.5z"/>
		<path class="st137" d="M115.7,70.1c15.1,0,27.3,6.1,27.3,16.2c0,8.3-12.2,11.9-27.3,11.9c-15.1,0-27.3-3.7-27.3-11.9
			C88.4,76.2,100.6,70.1,115.7,70.1z"/>
		<path class="st138" d="M115.7,70.6c14.9,0,27,6,27,15.8c0,8.1-12.1,11.8-27,11.8c-14.9,0-27-3.6-27-11.8
			C88.7,76.6,100.8,70.6,115.7,70.6z"/>
		<path class="st139" d="M115.7,71.2c14.7,0,26.7,5.9,26.7,15.5c0,8-11.9,11.6-26.7,11.6C101,98.3,89,94.7,89,86.7
			C89,77,101,71.2,115.7,71.2z"/>
		<path class="st140" d="M115.7,71.7c14.6,0,26.4,5.7,26.4,15.2c0,7.9-11.8,11.4-26.4,11.4c-14.6,0-26.4-3.5-26.4-11.4
			C89.3,77.4,101.1,71.7,115.7,71.7z"/>
		<path class="st141" d="M115.7,72.3c14.4,0,26.1,5.6,26.1,14.9c0,7.8-11.7,11.3-26.1,11.3c-14.4,0-26.1-3.5-26.1-11.3
			C89.6,77.8,101.3,72.3,115.7,72.3z"/>
		<path class="st142" d="M115.7,72.8c14.2,0,25.7,5.4,25.7,14.6c0,7.7-11.5,11.1-25.7,11.1c-14.2,0-25.7-3.4-25.7-11.1
			C89.9,78.2,101.5,72.8,115.7,72.8z"/>
		<path class="st143" d="M115.7,73.4c14,0,25.4,5.3,25.4,14.2c0,7.6-11.4,11-25.4,11c-14,0-25.4-3.4-25.4-11
			C90.2,78.7,101.6,73.4,115.7,73.4z"/>
		<path class="st144" d="M115.7,73.9c13.9,0,25.1,5.1,25.1,13.9c0,7.5-11.2,10.8-25.1,10.8c-13.9,0-25.1-3.4-25.1-10.8
			C90.6,79.1,101.8,73.9,115.7,73.9z"/>
		<path class="st145" d="M115.7,74.5c13.7,0,24.8,5,24.8,13.6c0,7.3-11.1,10.7-24.8,10.7c-13.7,0-24.8-3.3-24.8-10.7
			C90.9,79.5,102,74.5,115.7,74.5z"/>
		<path class="st146" d="M115.7,75c13.5,0,24.5,4.8,24.5,13.3c0,7.2-11,10.5-24.5,10.5c-13.5,0-24.5-3.3-24.5-10.5
			C91.2,79.9,102.1,75,115.7,75z"/>
		<path class="st147" d="M115.7,75.6c13.4,0,24.2,4.7,24.2,12.9c0,7.1-10.8,10.4-24.2,10.4c-13.4,0-24.2-3.2-24.2-10.4
			C91.5,80.3,102.3,75.6,115.7,75.6z"/>
		<path class="st148" d="M115.7,76.1c13.2,0,23.9,4.6,23.9,12.6c0,7-10.7,10.2-23.9,10.2c-13.2,0-23.9-3.2-23.9-10.2
			C91.8,80.7,102.5,76.1,115.7,76.1z"/>
		<path class="st149" d="M115.7,76.7c13,0,23.5,4.4,23.5,12.3c0,6.9-10.5,10-23.5,10c-13,0-23.6-3.2-23.6-10
			C92.1,81.1,102.6,76.7,115.7,76.7z"/>
		<path class="st150" d="M115.7,77.2c12.8,0,23.2,4.3,23.2,12c0,6.8-10.4,9.9-23.2,9.9c-12.8,0-23.2-3.1-23.2-9.9
			C92.4,81.5,102.8,77.2,115.7,77.2z"/>
		<path class="st151" d="M115.7,77.8c12.7,0,22.9,4.1,22.9,11.7c0,6.7-10.3,9.7-22.9,9.7c-12.7,0-22.9-3.1-22.9-9.7
			C92.7,81.9,103,77.8,115.7,77.8z"/>
		<path class="st152" d="M115.7,78.4c12.5,0,22.6,4,22.6,11.3c0,6.5-10.1,9.6-22.6,9.6c-12.5,0-22.6-3-22.6-9.6
			C93,82.3,103.2,78.4,115.7,78.4z"/>
		<path class="st153" d="M137.9,89.9c0,6.4-10,9.4-22.3,9.4c-12.3,0-22.3-3-22.3-9.4c0-7.2,10-11,22.3-11
			C128,78.9,137.9,82.7,137.9,89.9z"/>
	</g>
	<defs>
		<filter id="Adobe_OpacityMaskFilter" filterUnits="userSpaceOnUse" x="20.3" y="30.8" width="198.1" height="41.9">
			<feColorMatrix  type="matrix" values="1 0 0 0 0  0 1 0 0 0  0 0 1 0 0  0 0 0 1 0"/>
		</filter>
	</defs>
	<mask maskUnits="userSpaceOnUse" x="20.3" y="30.8" width="198.1" height="41.9" id="SVGID_1_">
		<g class="st154">
			<g>
				<g>
					<defs>
						<rect id="SVGID_2_" x="20.3" y="30.8" width="198.1" height="41.9"/>
					</defs>
					<clipPath id="SVGID_3_">
						<use xlink:href="#SVGID_2_"  style="overflow:visible;"/>
					</clipPath>
					<g>
						<defs>
							<rect id="SVGID_4_" x="20.3" y="30.8" width="198.1" height="41.9"/>
						</defs>
						<clipPath id="SVGID_5_" class="st155">
							<use xlink:href="#SVGID_4_"  style="overflow:visible;"/>
						</clipPath>
						<g style="clip-path:url(#SVGID_5_);">
							
								<image style="overflow:visible;" width="1476" height="312" xlink:href="A9745D8CD65F14A6.jpg"  transform="matrix(0.1342 0 0 0.1342 20.288 30.809)">
							</image>
						</g>
					</g>
				</g>
			</g>
		</g>
	</mask>
	<g class="st156">
		<polyline class="st1" points="20.3,30.8 218.3,30.8 218.3,72.7 20.3,72.7 20.3,30.8 		"/>
	</g>
	<g>
		<path class="st157" d="M113.4,67.1h-6.5c0,0,0,0,0,0c-2.8-9.7-9-17.8-15.2-23.2v23.2h-7.3V33.3h6.1c2.1,1.4,5.2,4.2,8.1,7.1
			c2.6,2.7,5.2,5.8,7.6,9.4V33.3h7.3V67.1z M180.3,33.3H173v16.5c-2.4-3.6-5-6.7-7.6-9.4c-2.9-2.9-5.9-5.7-8.1-7.1h-6.1v33.8h7.3
			V43.9c6.2,5.3,12.4,13.5,15.2,23.2c0,0,0,0,0,0h6.5V33.3z M205.8,59.1l7,1.7c-4.8,6.8-10.8,7.5-14.1,7.7
			c-4.8,0.3-8.9-1.3-11.7-4.1c-3.4-3.4-4.8-8.5-4.7-14.1c0.1-5.5,1.9-10.4,5.1-13.6c2.8-2.8,6.6-4.4,10.9-4.4
			c3.5,0,8.4,0.6,11.9,5.2c2.9,3.9,3.4,7.9,3.5,11.5c0,1.4-0.2,2.9-0.3,4l-23.7,0v0c0.5,3.7,3,8.6,8.7,8.9
			C200.6,61.9,203.4,61.5,205.8,59.1z M189.6,47.2h1l15.1,0h0.9l0-0.7c-0.1-1.2-0.5-3.8-2.6-5.7c-1.5-1.4-3.8-2.1-5.6-2.1
			c-2.8,0-7.6,2-8.7,7.7L189.6,47.2z M132.3,32.2c-9.4,0-17.1,8.1-17.1,18.1c0,10,7.7,18.1,17.1,18.1c9.5,0,17.1-8.1,17.1-18.1
			C149.4,40.2,141.8,32.2,132.3,32.2z M142.6,50.2c0,6.3-4.6,11.4-10.3,11.4c-5.7,0-10.3-5.1-10.3-11.4c0-6.3,4.6-11.4,10.3-11.4
			C138,38.8,142.6,43.9,142.6,50.2z M51.6,49.6C51.3,65,37.8,68.3,30.3,68.3c-3.9,0-7.8-0.5-8.7-0.8c0.1-1.1,0.4-4.6,0.4-17.2
			c0-12.6-0.2-15.8-0.6-17.2c1.4-0.3,5.4-0.8,10-0.8C37.9,32.3,51.9,34,51.6,49.6z M44.6,50.2c0-10-8.9-11.5-12.6-11.5
			c-1,0-2,0-2.8,0.1v22.9c0.6,0.1,1.4,0.1,2.2,0.1C35.9,61.9,44.6,60.2,44.6,50.2z M82.9,67.1h-7.7c-0.2-2.5-0.5-4.9-1-7.4H58.7
			c-0.4,2.4-0.8,4.9-1,7.4h-7.4c1.1-12.3,5-25.4,12.8-33.8h7.1C78,41.7,81.8,54.8,82.9,67.1z M72.8,53.5c-1.5-5-3.5-9.8-6.3-14
			c-2.8,4.2-4.9,9-6.3,14H72.8z"/>
		<path class="st158" d="M115.8,99.5c-37.1,0-66.1-21.1-62.9-24.2c2.9-2.9,25.1,14.5,62.9,14.5c37.9,0,60.1-17.4,62.9-14.5
			C181.8,78.3,152.8,99.5,115.8,99.5z"/>
		<path class="st157" d="M116.1,113.6c-48.5,0-87.6-17.1-108.5-26.2c-5.3-2.3-7-4.3-7-9.2c0,0-0.7-10.6-0.7-21
			C0,47,0.7,32.6,0.7,32.6c0-4.8,1.6-7.5,7-9.8C28.6,13.7,67.6,1,116.1,1c48.5,0,87.6,12.7,108.4,21.8c5.3,2.3,7,5,7,9.8
			c0,0,0.7,14.3,0.7,24.6c0,10.4-0.7,21-0.7,21c0,4.8-1.6,6.8-7,9.2C203.7,96.5,164.7,113.6,116.1,113.6z M116.1,106.7
			c44.5,0,83.8-13.1,107.2-22.6c3.7-1.5,4.7-4.5,4.7-7c0,0,0.2-9.5,0.2-19.8c0-10.3-0.2-23.8-0.2-23.8c0-2.4-1-5.5-4.7-6.9
			C200,17,160.7,7.9,116.1,7.9C71.6,7.9,32.3,17,8.9,26.5C5.3,28,4.2,31,4.2,33.5C4.2,33.5,4,47,4,57.3c0,10.4,0.2,19.8,0.2,19.8
			c0,2.4,1,5.5,4.7,7C32.3,93.6,71.6,106.7,116.1,106.7z"/>
	</g>
</g>
</svg>
