<?xml version="1.0" encoding="utf-8"?>
<!-- Generator: Adobe Illustrator 20.1.0, SVG Export Plug-In . SVG Version: 6.00 Build 0)  -->
<svg version="1.1" id="Layer_1" xmlns="http://www.w3.org/2000/svg" xmlns:xlink="http://www.w3.org/1999/xlink" x="0px" y="0px"
	 viewBox="0 0 250 83.5" style="enable-background:new 0 0 250 83.5;" xml:space="preserve">
<style type="text/css">
	.st0{fill-rule:evenodd;clip-rule:evenodd;fill:#FFFFFF;stroke:#000000;stroke-width:0.121;}
	.st1{fill:#F12E2C;}
	.st2{fill:#176489;}
</style>
<g>
	<g>
		<circle class="st0" cx="39.7" cy="42.5" r="36.2"/>
		<g>
			<path class="st1" d="M60.2,15.2l0.1-0.3C54.6,10.6,47.4,8,39.7,8C20.7,8,5.2,23.5,5.2,42.5c0,7.8,2.6,15,7,20.8l0.7-0.3
				C36.5,54.8,53.1,39.7,60.2,15.2z"/>
			<path class="st2" d="M69.8,25.8C69.8,25.8,69.8,25.8,69.8,25.8c-0.1,0-0.1,0.3-0.1,0.3c0.2,1.5,0.2,2.9,0.2,4.2
				c0,27.9-33.5,27.3-55.7,34.2l-0.9,0.3C19.7,72.3,29.2,77,39.7,77c19,0,34.5-15.4,34.5-34.5C74.2,36.4,72.6,30.7,69.8,25.8z"/>
		</g>
	</g>
	<path d="M103.6,21.7c-10.3,0-18.7,8.4-18.7,18.7c0,0.1,0,0.2,0,0.3h0v34.1h5.9V54.1c3.3,3.1,7.8,5.1,12.8,5.1
		c10.3,0,18.7-8.4,18.7-18.7C122.3,30.1,114,21.7,103.6,21.7z M103.6,53.3c-6.9,0-12.5-5.5-12.8-12.3v-0.2h0c0-0.1,0-0.2,0-0.3
		c0-7.1,5.7-12.8,12.8-12.8c7.1,0,12.8,5.7,12.8,12.8C116.4,47.5,110.7,53.3,103.6,53.3z M186.3,21.7c-10.3,0-18.7,8.4-18.7,18.7
		c0,0.1,0,0.2,0,0.3h0v34.1h5.9V54.1c3.3,3.1,7.8,5.1,12.8,5.1c10.3,0,18.7-8.4,18.7-18.7C205,30.1,196.6,21.7,186.3,21.7z
		 M186.3,53.3c-6.9,0-12.5-5.5-12.8-12.3v-0.2h0c0-0.1,0-0.2,0-0.3c0-7.1,5.7-12.8,12.8-12.8c7.1,0,12.8,5.7,12.8,12.8
		C199.1,47.5,193.4,53.3,186.3,53.3z M163.6,39.3L163.6,39.3c0-0.5-0.1-0.9-0.1-1.3c0,0,0,0,0,0c0-0.2-0.1-0.4-0.1-0.7
		c0-0.2-0.1-0.4-0.1-0.6c-1.8-9-9.9-15.5-19.3-15c-10.3,0.6-18.2,9.4-17.7,19.7c0.6,10.3,9.4,18.2,19.7,17.7
		c8.1-0.4,14.7-6,16.9-13.3l-6.4,0.4c-2,4-6,6.8-10.8,7.1c-6.5,0.4-12-4.1-13.3-10.3c10.3-2.1,21,2.3,31.2-1.1c0,0,0.1-1,0-2.2
		C163.6,39.5,163.6,39.4,163.6,39.3z M132.7,36.9c1.5-5.1,6-8.9,11.6-9.2c6.1-0.3,11.4,3.6,13,9.2C149.1,37.6,140.8,35.3,132.7,36.9
		z M230.6,42.1c-0.9-0.8-1.9-1.4-3-1.9c-1.1-0.5-2.3-1-3.4-1.4c-1.2-0.4-2.3-0.8-3.4-1.3c-1.1-0.4-2.1-0.9-3-1.4
		c-0.9-0.5-1.6-1.1-2.1-1.8c-0.5-0.7-0.8-1.5-0.8-2.5c0-0.7,0.1-1.4,0.4-2c0.3-0.6,0.7-1.1,1.3-1.6c0.6-0.4,1.3-0.8,2.1-1
		c0.9-0.2,1.9-0.4,3-0.4c1.3,0,2.4,0.1,3.4,0.4c1,0.3,1.9,0.6,2.6,0.9c0.7,0.3,1.3,0.6,1.8,0.9c0.5,0.3,0.8,0.4,1.1,0.4
		c0.2,0,0.3,0,0.4-0.1c0.1-0.1,1.4-3.7,1.3-3.9c0-0.3-1.4-1-1.7-1.2c-0.3-0.2-0.7-0.4-1.3-0.7c-0.6-0.3-1.2-0.5-2-0.7
		c-0.8-0.2-1.7-0.4-2.7-0.6c-1-0.2-2-0.2-2.9-0.2c-2.2,0-4.2,0.3-5.9,0.8c-1.7,0.6-3.1,1.3-4.2,2.2c-1.1,0.9-2,2-2.5,3.2
		c-0.6,1.2-0.8,2.5-0.8,3.9c0,1.5,0.3,2.8,0.8,3.9c0.5,1.1,1.2,2,2.1,2.8c0.9,0.8,1.9,1.5,3,2c1.1,0.5,2.2,1,3.4,1.5
		c1.2,0.4,2.3,0.8,3.4,1.2c1.1,0.4,2.1,0.8,2.9,1.4c0.9,0.5,1.6,1.1,2.1,1.7c0.5,0.7,0.8,1.5,0.8,2.4c0,0.9-0.2,1.8-0.6,2.4
		c-0.4,0.7-0.9,1.3-1.6,1.7c-0.7,0.4-1.5,0.8-2.4,1c-0.9,0.2-2,0.3-3.1,0.3c-1.5,0-2.9-0.2-4.1-0.5c-1.2-0.3-2.2-0.7-3-1.1
		c-0.9-0.4-1.6-0.8-2.2-1.1c-0.6-0.3-1-0.5-1.3-0.5c-0.2,0-0.4,0-0.5,0.1c-0.1,0.1-0.3,0.2-0.3,0.4c-0.1,0.2-0.2,3.4-0.1,3.9
		c0.1,0.5,0.4,0.8,0.7,1.1c0.3,0.3,0.8,0.5,1.4,0.9c0.7,0.3,1.5,0.6,2.4,0.9c0.9,0.3,2,0.5,3.2,0.7c1.2,0.2,2.4,0.3,3.7,0.3
		c2.1,0,4.1-0.2,5.8-0.7c1.8-0.5,3.3-1.2,4.6-2.1c1.3-0.9,2.3-2.1,3-3.5c0.7-1.4,1-2.9,1-4.7c0-1.5-0.3-2.7-0.8-3.8
		C232.2,43.8,231.5,42.9,230.6,42.1z M245.5,24.1h-5.6c-0.2,0-0.3,0.1-0.3,0.3v34.8c0,0.2,0.1,0.3,0.3,0.3h5.6
		c0.2,0,0.3-0.1,0.3-0.3V24.4C245.8,24.2,245.6,24.1,245.5,24.1z M242.6,21.4c2.1,0,3.8-1.7,3.8-3.7c0-2-1.7-3.7-3.8-3.7
		c-2.1,0-3.8,1.7-3.8,3.7C238.9,19.7,240.5,21.4,242.6,21.4z"/>
</g>
</svg>
