<?xml version="1.0" encoding="utf-8"?>
<!-- Generator: Adobe Illustrator 20.1.0, SVG Export Plug-In . SVG Version: 6.00 Build 0)  -->
<svg version="1.1" id="Layer_1" xmlns="http://www.w3.org/2000/svg" xmlns:xlink="http://www.w3.org/1999/xlink" x="0px" y="0px"
	 viewBox="0 0 250 145.6" style="enable-background:new 0 0 250 145.6;" xml:space="preserve">
<style type="text/css">
	.st0{fill-rule:evenodd;clip-rule:evenodd;fill:#231C18;}
	.st1{fill-rule:evenodd;clip-rule:evenodd;fill:#F8D73F;}
	.st2{fill-rule:evenodd;clip-rule:evenodd;fill:#EF1723;}
	.st3{fill-rule:evenodd;clip-rule:evenodd;fill:#009C41;}
	.st4{fill-rule:evenodd;clip-rule:evenodd;fill:#FFFFFF;}
	.st5{fill:#FFFFFF;}
</style>
<g>
	<polygon class="st0" points="8.1,137.8 208.7,137.8 244.7,8.9 44,8.9 8.1,137.8 	"/>
	<polygon class="st1" points="15.5,132.2 65.9,132.2 224.6,59.1 237.3,14.5 198.1,14.5 26.6,92.7 15.5,132.2 	"/>
	<polygon class="st2" points="27.4,89 190.9,14.5 48.3,14.5 27.4,89 	"/>
	<polygon class="st3" points="72.6,132.2 204.5,132.2 223.6,63.3 72.6,132.2 	"/>
	<path class="st0" d="M209.7,54.7c-0.6-3.3-1.2-5.9-1.6-7.8c1.2,0.3,2.2,0.4,3.1,0.4c0.9-0.1,1.6-0.2,2.3-0.5
		c0.8-0.4,1.5-0.9,1.9-1.5c0.4-0.6,0.6-1.3,0.5-2.1c0-0.3-0.1-0.5-0.2-0.7c-0.1-0.2-0.2-0.4-0.4-0.7c-0.2-0.2-0.4-0.5-0.7-0.8
		c-1.1-0.9-2.2-1.8-3.3-2.6c-0.8-0.6-1.3-1-1.6-1.3c-0.6-0.6-1.1-1.1-1.5-1.7c-0.4-0.6-0.7-1.2-1-1.8c-0.2-0.7-0.4-1.4-0.5-2.2
		c-0.1-1-0.2-1.9-0.2-2.9c0.1-1,0.2-2,0.5-3c0.3-1,0.7-1.9,1.3-2.8c0.6-0.9,1.2-1.6,2-2.2c0.8-0.6,1.5-1,2.3-1.4
		c1.6-0.7,3.4-1.2,5.4-1.5c0.2,1.1,0.4,2,0.6,2.9c0.2,0.9,0.5,2.4,1,4.6c-0.9-0.2-1.8-0.2-2.6-0.1c-0.8,0.1-1.4,0.3-1.9,0.5
		c-0.7,0.3-1.3,0.9-1.7,1.5c-0.4,0.7-0.6,1.4-0.5,2c0,0.3,0.1,0.6,0.3,0.9c0.1,0.3,0.3,0.5,0.6,0.8c0.3,0.3,0.6,0.6,1,0.9
		c0.4,0.3,1.1,0.8,1.9,1.4c0.4,0.3,0.8,0.6,1.2,0.9c0.4,0.3,0.8,0.6,1.2,1c0.4,0.4,0.9,0.8,1.2,1.3c0.3,0.5,0.6,0.9,0.8,1.3
		c0.2,0.4,0.4,0.8,0.5,1.3c0.1,0.5,0.3,0.9,0.4,1.5c0.2,1.4,0.2,2.9,0,4.3c-0.2,1.4-0.6,2.8-1.2,3.9c-0.6,1.2-1.4,2.1-2.3,2.9
		c-0.8,0.7-1.8,1.3-2.8,1.8C214.2,53.8,212.2,54.3,209.7,54.7L209.7,54.7z"/>
	<path class="st0" d="M126.1,92.2c-0.3-3.2-0.5-5.8-0.7-7.8c-0.2-1.4-0.3-3.1-0.6-5.1c-0.2-2-0.5-4.2-0.8-6.7
		c-0.3-2.5-0.6-4.6-0.8-6.2c-0.2-1.7-0.4-2.9-0.5-3.8c-0.1-0.8-0.2-1.7-0.4-2.6c2.8-1.2,5.4-2.4,7.8-3.5c2.4-1.1,4.8-2.2,7-3.2
		c0.4,3.6,0.6,6,0.8,7.1c-0.4,0.2-0.8,0.3-1.2,0.5c-0.3,0.1-0.7,0.3-1,0.4c-0.3,0.1-0.7,0.3-1,0.4c-0.9,0.4-1.8,0.8-2.7,1.2
		c-0.3,0.1-1.2,0.6-2.8,1.3c0.2,1.8,0.4,3.6,0.7,5.5c0.7-0.3,1.3-0.6,2-0.8c0.7-0.3,1.5-0.7,2.3-1c0.6-0.3,1.6-0.8,3-1.4
		c0.3,3,0.6,5.3,0.9,7c-1.5,0.6-2.6,1.1-3.4,1.4c-1.2,0.6-2.5,1.2-4,1.9c0.2,1.4,0.3,2.8,0.5,4.2c0.2,1.4,0.4,2.8,0.6,4.2
		c0.1,1.1,0.3,2.1,0.5,3.1c0.1,0.3,0.1,0.7,0.2,1c-1,0.4-2,0.9-3,1.3C129.1,90.8,128,91.3,126.1,92.2L126.1,92.2z"/>
	<path class="st0" d="M103.8,102.1c-0.2-2.1-0.4-4.3-0.7-6.4c-0.2-2.2-0.4-4.3-0.7-6.4c-0.2-1.6-0.4-3.1-0.5-4.7
		c-0.2-1.6-0.4-3.1-0.5-4.7c-0.2-1.4-0.4-2.7-0.5-4.1c-0.1-1.2-0.3-2.3-0.5-3.4c-0.1-0.7-0.2-1.5-0.3-2.2c1.5-0.6,2.5-1.1,3.3-1.4
		c0.6-0.2,1.6-0.7,2.9-1.4c0.2,2.3,0.4,4.4,0.6,6.4c0.2,2,0.4,3.8,0.6,5.6c2.5-1.1,5-2.3,7.6-3.4c-0.1-1.3-0.4-3-0.6-5.2
		c-0.3-2.2-0.5-3.6-0.6-4.4c-0.1-0.4-0.2-1.1-0.4-2.2c1.1-0.5,2.2-1,3.3-1.4c0.4-0.2,1.3-0.6,2.9-1.4c0.2,2,0.4,3.9,0.6,5.7
		c0.2,1.8,0.4,3.4,0.5,4.9c0.3,3,0.6,5.5,0.9,7.4c0.2,2,0.5,4.1,0.8,6.4c0.3,2.3,0.7,4.9,1.1,7.6c-1,0.4-2,0.9-3,1.3
		c-0.5,0.2-1.5,0.7-3.2,1.5c-0.1-1.9-0.3-3.9-0.6-6.1c-0.2-2.2-0.5-4.5-0.8-7c-2.5,1.1-5,2.3-7.6,3.4c0.3,2.2,0.5,4.3,0.8,6.5
		c0.3,2.2,0.6,4.3,0.9,6.5c-1.1,0.5-2.2,0.9-3.2,1.4C106.4,100.9,105.4,101.3,103.8,102.1L103.8,102.1z"/>
	<path class="st0" d="M86.5,109.2c-0.6-3.2-1.1-5.8-1.6-7.7c1.2,0.3,2.1,0.4,3,0.4c0.8-0.1,1.6-0.2,2.2-0.5c0.8-0.4,1.4-0.8,1.8-1.4
		c0.4-0.6,0.6-1.3,0.5-2.1c0-0.3-0.1-0.5-0.2-0.7c-0.1-0.2-0.2-0.5-0.4-0.7c-0.2-0.2-0.4-0.5-0.7-0.7c-1-0.9-2.1-1.7-3.2-2.6
		c-0.7-0.6-1.2-1-1.5-1.3c-0.6-0.6-1.1-1.1-1.4-1.7c-0.4-0.6-0.7-1.2-0.9-1.8c-0.2-0.6-0.4-1.4-0.5-2.1c-0.1-0.9-0.2-1.9-0.1-2.9
		c0.1-1,0.3-2,0.5-2.9c0.3-1,0.7-1.9,1.3-2.7c0.6-0.9,1.2-1.6,1.9-2.1c0.7-0.5,1.5-1,2.3-1.4c1.5-0.7,3.3-1.2,5.2-1.4
		c0.2,1.1,0.4,2,0.5,2.9c0.2,0.9,0.5,2.4,1,4.5c-0.9-0.2-1.7-0.2-2.5-0.1c-0.7,0.1-1.3,0.2-1.9,0.5c-0.7,0.3-1.3,0.8-1.7,1.5
		c-0.4,0.7-0.5,1.3-0.5,2c0,0.3,0.1,0.6,0.2,0.9c0.1,0.3,0.3,0.5,0.5,0.8c0.2,0.3,0.6,0.6,1,0.9c0.4,0.3,1,0.8,1.9,1.4
		c0.4,0.3,0.8,0.6,1.2,0.9c0.3,0.3,0.7,0.6,1.2,1c0.4,0.4,0.8,0.9,1.1,1.3c0.3,0.4,0.6,0.9,0.8,1.3c0.2,0.4,0.4,0.8,0.5,1.3
		c0.1,0.4,0.2,0.9,0.3,1.5c0.2,1.4,0.2,2.8,0,4.2c-0.2,1.4-0.6,2.7-1.2,3.8c-0.6,1.1-1.3,2.1-2.2,2.8c-0.8,0.7-1.7,1.3-2.7,1.7
		C90.8,108.4,88.9,108.9,86.5,109.2L86.5,109.2z"/>
	<path class="st0" d="M69.3,83.2c1.5-0.7,2.9-1,4.4-0.9c1.4,0,2.8,0.6,4,1.6c1.2,1,2.2,2.3,3,4c0.8,1.7,1.3,3.7,1.7,6.2
		c0.4,2.6,0.4,5.1,0.2,7.5c-0.2,2.4-0.8,4.6-1.6,6.6c-0.8,2-1.9,3.6-3.2,5c-1.4,1.4-2.8,2.3-4.4,3.1c-1.5,0.7-3.1,1-4.6,1
		c-1.5-0.1-2.9-0.6-4.1-1.7c-1.3-1.1-2.3-2.4-3-4.1c-0.7-1.7-1.2-3.7-1.6-5.9c-0.2-1.7-0.4-3.3-0.3-4.9c0-1.6,0.2-3.1,0.4-4.6
		c0.6-3,1.7-5.6,3.3-7.8C65.1,85.9,67.1,84.2,69.3,83.2L69.3,83.2z M70.1,90.2c-1,0.5-1.9,1.3-2.6,2.6c-0.7,1.2-1.2,2.7-1.4,4.5
		c-0.2,1.8-0.2,3.5,0,5.3c0.2,1.6,0.7,3,1.3,4.2c0.6,1.2,1.4,2,2.3,2.3c1,0.4,1.9,0.3,2.9-0.1c1-0.4,1.9-1.3,2.6-2.5
		c0.7-1.2,1.2-2.7,1.4-4.5c0.2-1.7,0.2-3.4-0.1-5.1c-0.2-1.6-0.6-3.1-1.3-4.3c-0.6-1.2-1.4-2-2.3-2.4C72,89.8,71.1,89.8,70.1,90.2
		L70.1,90.2z"/>
	<path class="st0" d="M41.8,129.6c-0.2-2.8-0.5-5.2-0.7-7.4c-0.2-2.2-0.5-4.7-0.8-7.6c-0.2-1.4-0.3-2.9-0.5-4.4
		c-0.2-1.5-0.4-3.1-0.6-4.7c-0.4-3.2-0.7-5.7-1-7.6c1.1-0.5,2-0.8,2.7-1.2c0.7-0.3,1.6-0.8,2.6-1.3c1.1-0.5,2.1-1,3-1.5
		c1.1-0.5,2.2-0.9,3.1-1.1c0.7-0.2,1.4-0.3,1.9-0.2c0.6,0.1,1.2,0.2,1.6,0.6c0.4,0.3,0.8,0.7,1.2,1.2c0.3,0.5,0.7,1.1,0.9,1.8
		c0.2,0.7,0.4,1.6,0.6,2.5c0.1,1,0.2,2,0.2,3c0,1-0.2,1.9-0.4,2.9c-0.2,0.9-0.5,1.8-0.9,2.6c-0.4,0.8-1.1,1.7-1.9,2.7
		c2.2,4.1,4.8,7.7,7.2,11.5l-6.2,2.8c-2.5-5.1-5.2-10.2-7.7-15.3c0.5-0.1,1-0.2,1.5-0.4c0.6-0.3,1.2-0.7,1.7-1.3
		c0.5-0.6,0.8-1.3,1-2.1c0.2-0.8,0.2-1.6,0.1-2.4c-0.1-0.7-0.3-1.2-0.6-1.6c-0.3-0.4-0.6-0.6-1.1-0.7c-0.5,0-1.2,0.1-2.1,0.6
		c-0.3,0.1-0.6,0.3-1,0.5c-0.3,0.2-0.7,0.4-1.2,0.6c0.2,1.6,0.3,3.4,0.6,5.3c0.2,1.9,0.5,4,0.8,6.3c0.3,2.3,0.5,4.5,0.8,6.8
		c0.3,2.2,0.6,4.4,0.9,6.6c-1.5,0.6-2.5,1.1-2.9,1.3C44.1,128.5,43.1,129,41.8,129.6L41.8,129.6z"/>
	<path class="st0" d="M180.5,68.1c-0.4-1.2-0.9-2.5-1.4-3.9c-0.5-1.4-1.1-2.8-1.8-4.4c-2.4,1.1-4.8,2.1-7.1,3.2
		c-0.2,1.6-0.4,3.2-0.6,4.9c-0.2,1.7-0.4,3.5-0.6,5.3c-1.7,0.7-2.8,1.2-3.2,1.4c-0.7,0.3-1.9,0.9-3.5,1.6c0.2-1.3,0.4-2.6,0.6-3.9
		c0.3-2.2,0.6-4.3,0.9-6.5c0.3-2.2,0.7-4.3,1-6.5c0.3-2.2,0.6-4.3,1-6.5c0.3-2.2,0.7-4.4,1-6.5c0.1-1,0.3-1.9,0.4-2.9
		c0.1-0.8,0.3-2.1,0.5-3.6c1.7-0.7,2.9-1.2,3.6-1.6c1.4-0.6,2.6-1.2,3.7-1.7c0.6,1.5,1.2,2.9,1.7,4.4c0.6,1.5,1.2,2.9,1.8,4.4
		c0.6,1.4,1.2,2.8,1.7,4.2c0.6,1.4,1.2,2.8,1.7,4.2c0.6,1.4,1.2,2.8,1.8,4.2c0.6,1.4,1.2,2.8,1.8,4.2c0,0,0,0.1,0.1,0.1
		c0-0.5-0.1-1.1-0.1-1.6c-0.2-1.4-0.3-2.8-0.5-4.2c-0.2-1.4-0.3-2.8-0.5-4.2c-0.2-1.4-0.3-2.8-0.5-4.2c-0.2-1.4-0.3-2.8-0.5-4.2
		c-0.3-2.3-0.6-4.5-0.9-6.8c-0.2-1.2-0.3-2.4-0.5-3.7c1.5-0.6,2.8-1.2,3.9-1.7c0.8-0.4,1.9-0.9,3.4-1.6c0.7,1.3,1.5,2.6,2.2,3.9
		c0.7,1.3,1.5,2.6,2.2,3.8c0.7,1.3,1.5,2.6,2.2,3.9c0.7,1.3,1.5,2.6,2.2,3.9c0.4,0.8,0.8,1.5,1.2,2.3c-0.2-1.3-0.3-2.9-0.6-4.8
		c-0.2-1.9-0.5-4-0.8-6.4c-0.3-2.4-0.6-4.4-0.8-6c-0.2-1.6-0.4-2.9-0.5-3.8c1.2-0.5,2.1-0.9,2.8-1.2c0.3-0.1,1.3-0.6,2.8-1.3
		c0.3,2.4,0.5,4.8,0.7,7.1c0.2,1.6,0.4,3.3,0.5,4.9c0.2,1.6,0.4,3.3,0.6,4.9c0.2,1.6,0.4,3.3,0.6,4.9c0.2,1.6,0.4,3.3,0.6,4.9
		c0.2,1.9,0.5,3.8,0.8,5.7c-1.2,0.5-2.4,1-3.5,1.5c-0.9,0.4-2.1,1-3.7,1.7c-0.7-1.3-1.3-2.3-1.6-2.8c-1.1-1.9-2.3-3.8-3.4-5.6
		c-1.1-1.8-2.2-3.6-3.1-5.3c-0.6-1.1-1.3-2.2-2-3.6c0.2,1.9,0.4,3.8,0.7,5.6c0.3,1.9,0.5,3.7,0.7,5.6c0.2,1.6,0.4,3.1,0.6,4.7
		c0.2,1.6,0.4,3.1,0.6,4.7C187.9,64.8,184.1,66.4,180.5,68.1L180.5,68.1z M144.9,84c-0.2-2.8-0.4-5.3-0.7-7.6
		c-0.2-2.2-0.5-4.8-0.9-7.7c-0.2-1.5-0.4-3-0.6-4.5c-0.2-1.5-0.4-3.1-0.6-4.7c-0.5-3.2-0.8-5.8-1.1-7.7c1.2-0.5,2.1-0.9,2.8-1.2
		c0.7-0.3,1.7-0.8,2.7-1.3c1.1-0.5,2.1-1.1,3.1-1.5c1.2-0.5,2.3-0.9,3.3-1.2c0.7-0.2,1.4-0.3,2-0.2c0.6,0.1,1.2,0.3,1.7,0.6
		c0.5,0.3,0.8,0.7,1.2,1.2c0.4,0.5,0.7,1.1,0.9,1.9c0.3,0.7,0.5,1.6,0.6,2.5c0.2,1,0.2,2.1,0.2,3c0,1-0.2,2-0.4,2.9
		c-0.2,1-0.5,1.9-1,2.7c-0.5,0.8-1.1,1.8-1.9,2.8c0.4,0.9,0.8,1.8,1.2,2.6c0.3,0.7,0.7,1.5,1,2.2c0.9,2,1.9,4,2.9,6
		c0.1,0.3,0.4,0.8,0.7,1.6c-1.5,0.7-2.6,1.1-3.2,1.4c-0.7,0.3-1.8,0.8-3.3,1.5c-0.3-0.7-0.8-2.1-1.5-4.1c-0.3-0.8-0.5-1.5-0.7-1.9
		c-0.4-1-1-2.4-1.7-4.2c-0.8-2-1.6-4-2.4-6c0.5-0.1,1-0.2,1.5-0.4c0.7-0.3,1.3-0.7,1.8-1.3c0.5-0.6,0.8-1.3,1-2.2
		c0.2-0.8,0.2-1.7,0.1-2.4c-0.1-0.7-0.3-1.2-0.6-1.6c-0.3-0.4-0.7-0.6-1.2-0.7c-0.5,0-1.2,0.2-2.2,0.6c-0.3,0.1-0.7,0.3-1,0.5
		c-0.4,0.2-0.7,0.4-1.2,0.6c0.1,1.6,0.4,3.4,0.6,5.4c0.2,2,0.5,4.1,0.8,6.4c0.3,2.3,0.6,4.6,0.9,6.9c0.3,2.3,0.6,4.5,0.9,6.7
		c-1.6,0.7-2.6,1.1-3.1,1.3C147.2,82.9,146.3,83.3,144.9,84L144.9,84z M170.8,55.5c1.5-0.7,2.9-1.3,4.4-2c-1-2.5-1.7-4.4-2.3-5.8
		c-0.5-1.4-0.8-2.2-0.9-2.5c-0.3,2.6-0.6,4.7-0.7,6.3C171.2,52.8,171,54.2,170.8,55.5L170.8,55.5z"/>
	<path class="st4" d="M124.7,26.6c11.9-6.6-6.1-17.3-43,6c7.4,1.2,11.1,0.9,17-1.6c6.6-2.9,11.3-4,8.8-1.4c-1.6,1.7-7,6-12.3,8.2
		c-10.1,4.2-23.4,6.7-25.7,6.4c-3.5,4.7-6.6,19.5-28.1,21.4c-0.5,1.9-1,3.8-1.4,5.7c39.5,0.7,79-45.2,102.4-41.9l0.4-2.6
		c-2.3-0.4-4.5-0.7-6.8-1.1L124.7,26.6L124.7,26.6z M121.7,19.2c0.8,0,1.4,0.6,1.4,1.4c0,0.8-0.6,1.4-1.4,1.4
		c-0.8,0-1.4-0.6-1.4-1.4C120.3,19.8,120.9,19.2,121.7,19.2L121.7,19.2z"/>
	<polygon class="st5" points="153.2,112.8 155,104.3 156.7,104.3 155.2,111.4 159.6,111.4 159.3,112.8 153.2,112.8 	"/>
	<path class="st5" d="M162.2,104.3h1.7l-1,4.6l-0.2,1.1c0,0.1,0,0.2,0,0.3c0,0.3,0.1,0.6,0.4,0.8c0.2,0.2,0.6,0.3,1.1,0.3
		c0.4,0,0.8-0.1,1-0.2c0.3-0.2,0.5-0.4,0.6-0.7c0.2-0.3,0.3-0.8,0.5-1.6l1-4.7h1.7l-1,4.7c-0.2,1-0.4,1.7-0.7,2.2
		c-0.3,0.5-0.7,0.9-1.2,1.3c-0.5,0.3-1.2,0.5-2.1,0.5c-1,0-1.8-0.2-2.3-0.7c-0.5-0.5-0.8-1.1-0.8-1.9c0-0.2,0-0.3,0-0.5
		c0-0.1,0.1-0.5,0.2-1.1L162.2,104.3L162.2,104.3z"/>
	<path class="st5" d="M169,112.8l1.8-8.5h2.9c0.6,0,1.1,0,1.3,0.1c0.4,0.1,0.8,0.2,1.1,0.3c0.3,0.2,0.5,0.4,0.7,0.7
		c0.2,0.3,0.2,0.6,0.2,1c0,0.5-0.1,0.9-0.4,1.2c-0.3,0.3-0.7,0.6-1.2,0.8c0.4,0.1,0.8,0.3,1,0.6c0.2,0.3,0.4,0.7,0.4,1
		c0,0.5-0.1,1-0.4,1.5c-0.3,0.5-0.7,0.8-1.2,1c-0.5,0.2-1.2,0.3-2.1,0.3H169L169,112.8z M171.8,107.7h1.3c0.6,0,1,0,1.3-0.1
		c0.3-0.1,0.5-0.2,0.6-0.4c0.1-0.2,0.2-0.4,0.2-0.6c0-0.2-0.1-0.4-0.2-0.5c-0.1-0.1-0.3-0.2-0.5-0.3c-0.1,0-0.4,0-0.9,0h-1.4
		L171.8,107.7L171.8,107.7z M171,111.4h1.7c0.7,0,1.2,0,1.4-0.1c0.2-0.1,0.4-0.2,0.6-0.4c0.1-0.2,0.2-0.4,0.2-0.7
		c0-0.3-0.1-0.5-0.3-0.7c-0.2-0.2-0.6-0.3-1-0.3h-2.1L171,111.4L171,111.4z"/>
	<path class="st5" d="M179.4,112.8h-1.8l1.8-8.5h3.8c0.6,0,1.2,0.1,1.5,0.2c0.4,0.1,0.7,0.4,0.9,0.7c0.2,0.4,0.3,0.8,0.3,1.3
		c0,0.7-0.2,1.3-0.7,1.8c-0.4,0.5-1.1,0.8-2,0.9c0.2,0.2,0.4,0.5,0.6,0.8c0.4,0.7,0.8,1.6,1.3,2.8h-1.9c-0.2-0.5-0.4-1.2-0.9-2.2
		c-0.2-0.5-0.5-0.9-0.8-1.1c-0.2-0.1-0.5-0.2-0.9-0.2h-0.7L179.4,112.8L179.4,112.8z M180.4,108h0.9c0.9,0,1.6-0.1,1.9-0.2
		c0.3-0.1,0.5-0.3,0.7-0.5c0.2-0.2,0.3-0.5,0.3-0.8c0-0.3-0.1-0.5-0.4-0.7c-0.2-0.1-0.5-0.1-1-0.1h-1.9L180.4,108L180.4,108z"/>
	<polygon class="st5" points="186.1,112.8 187.9,104.3 189.6,104.3 187.9,112.8 186.1,112.8 	"/>
	<path class="st5" d="M195.6,109.7l1.8,0.3c-0.3,1-0.9,1.7-1.5,2.2c-0.7,0.5-1.5,0.8-2.4,0.8c-1,0-1.9-0.3-2.4-0.9
		c-0.6-0.6-0.9-1.5-0.9-2.7c0-1,0.2-1.9,0.6-2.7c0.4-0.8,0.9-1.4,1.6-1.8c0.7-0.4,1.5-0.6,2.3-0.6c0.9,0,1.7,0.2,2.2,0.7
		c0.6,0.5,0.9,1.2,1,2l-1.7,0.2c-0.1-0.5-0.3-0.9-0.5-1.1c-0.3-0.2-0.6-0.3-1.1-0.3c-0.5,0-0.9,0.1-1.4,0.4c-0.4,0.3-0.8,0.8-1,1.4
		s-0.4,1.2-0.4,1.9c0,0.7,0.2,1.2,0.5,1.6c0.3,0.4,0.7,0.6,1.2,0.6c0.5,0,0.9-0.1,1.2-0.4C195.2,110.7,195.5,110.3,195.6,109.7
		L195.6,109.7z"/>
	<path class="st5" d="M203.6,110.9h-3.4l-1,1.9h-1.8l4.8-8.5h1.9l1.4,8.5h-1.7L203.6,110.9L203.6,110.9z M203.4,109.5l-0.5-3.4
		l-2.1,3.4H203.4L203.4,109.5z"/>
	<polygon class="st5" points="158,126.1 156.4,126.1 156.1,119 154.7,126.1 153.1,126.1 154.9,117.6 157.4,117.6 157.7,123.5 
		160.6,117.6 163.1,117.6 161.3,126.1 159.7,126.1 161.4,119 158,126.1 	"/>
	<polygon class="st5" points="163.1,126.1 164.8,117.6 171.1,117.6 170.8,119 166.3,119 165.9,120.9 170.3,120.9 170,122.3 
		165.6,122.3 165.1,124.6 170,124.6 169.7,126.1 163.1,126.1 	"/>
	<path class="st5" d="M175.9,117.6h1.7l-1.1,5.2c-0.3,1.4-0.7,2.3-1.1,2.8c-0.5,0.5-1.2,0.7-2.1,0.7c-0.8,0-1.4-0.2-1.8-0.6
		c-0.4-0.4-0.6-0.9-0.6-1.5c0-0.1,0-0.3,0-0.5l1.6-0.2c0,0.2,0,0.3,0,0.4c0,0.3,0.1,0.5,0.2,0.6c0.2,0.1,0.4,0.2,0.7,0.2
		c0.4,0,0.8-0.1,0.9-0.4c0.1-0.2,0.3-0.8,0.5-1.7L175.9,117.6L175.9,117.6z"/>
	<path class="st5" d="M178.2,122.7c0-0.5,0.1-1,0.2-1.6c0.2-0.7,0.5-1.4,0.9-1.9c0.4-0.5,0.9-1,1.5-1.3c0.6-0.3,1.3-0.5,2.1-0.5
		c1.1,0,1.9,0.3,2.6,1c0.7,0.7,1,1.5,1,2.6c0,0.9-0.2,1.8-0.6,2.6c-0.4,0.8-1,1.5-1.7,1.9c-0.7,0.5-1.5,0.7-2.5,0.7
		c-0.8,0-1.5-0.2-2-0.5c-0.5-0.4-0.9-0.8-1.1-1.3C178.3,123.8,178.2,123.3,178.2,122.7L178.2,122.7z M179.9,122.7
		c0,0.6,0.2,1.1,0.5,1.5c0.4,0.4,0.8,0.6,1.4,0.6c0.5,0,0.9-0.2,1.4-0.5c0.4-0.3,0.8-0.8,1.1-1.4c0.3-0.6,0.4-1.2,0.4-1.8
		c0-0.7-0.2-1.2-0.5-1.6c-0.4-0.4-0.8-0.6-1.4-0.6c-0.9,0-1.5,0.4-2.1,1.2C180.2,120.9,179.9,121.7,179.9,122.7L179.9,122.7z"/>
	<path class="st5" d="M188.6,126.1h-1.8l1.8-8.5h3.8c0.6,0,1.2,0.1,1.5,0.2c0.4,0.1,0.7,0.4,0.9,0.7c0.2,0.4,0.3,0.8,0.3,1.3
		c0,0.7-0.2,1.3-0.7,1.8c-0.4,0.5-1.1,0.8-2,0.9c0.2,0.2,0.4,0.5,0.6,0.8c0.4,0.7,0.8,1.6,1.3,2.8h-1.9c-0.2-0.5-0.4-1.2-0.9-2.2
		c-0.2-0.5-0.5-0.9-0.8-1.1c-0.2-0.1-0.5-0.2-0.9-0.2h-0.7L188.6,126.1L188.6,126.1z M189.6,121.3h0.9c0.9,0,1.6-0.1,1.9-0.2
		c0.3-0.1,0.5-0.3,0.7-0.5c0.2-0.2,0.3-0.5,0.3-0.8c0-0.3-0.1-0.5-0.4-0.7c-0.2-0.1-0.5-0.1-1-0.1h-1.9L189.6,121.3L189.6,121.3z"/>
</g>
</svg>
