<?xml version="1.0" encoding="utf-8"?>
<!-- Generator: Adobe Illustrator 20.1.0, SVG Export Plug-In . SVG Version: 6.00 Build 0)  -->
<svg version="1.1" id="Layer_1" xmlns="http://www.w3.org/2000/svg" xmlns:xlink="http://www.w3.org/1999/xlink" x="0px" y="0px"
	 viewBox="0 0 250 150.5" style="enable-background:new 0 0 250 150.5;" xml:space="preserve">
<style type="text/css">
	.st0{fill-rule:evenodd;clip-rule:evenodd;fill:#231F20;}
</style>
<path class="st0" d="M152.9,73.1V44c0-0.1-0.1-0.2-0.2-0.2H96.5c-0.1,0-0.2,0.1-0.2,0.2v29.1c0,0,0,0.1,0,0.1
	c0.2,10.2,3.1,19.7,8.3,27.5c5.1,7.6,12.1,13,19.9,15.2c0,0,0.1,0,0.1,0c7.7-2.1,14.8-7.5,19.8-15.2
	C149.8,92.8,152.6,83.3,152.9,73.1C152.9,73.1,152.9,73.1,152.9,73.1 M151.8,72.9c0,0.1,0,0.1,0,0.1c-0.5,20-11.6,37.1-27.1,41.6
	C109.2,110.1,98,93.1,97.5,73c0,0,0-0.1,0-0.1v-28h54.2V72.9z"/>
<path class="st0" d="M124.6,107.8c0,0,0.1,0,0.1,0c12-4.5,20.7-18.8,21.1-34.9c0-0.1,0-0.2,0-0.3V51.4c0-0.1-0.1-0.2-0.2-0.2h-41.9
	c-0.1,0-0.2,0.1-0.2,0.2v21.1c0,0.1,0,0.2,0,0.3C103.9,88.9,112.6,103.3,124.6,107.8 M124.6,106.5c-11.4-4.5-19.6-18.3-20-33.7
	c0-0.1,0-0.3,0-0.3c0,0,0-16.2,0-19.6c0.1,0.3,0.2,0.5,0.4,0.7c0.3,0.5,1,1.8,1,1.8s0.1,0.6-0.2,0.7c-0.2,0.1,0.3,0.4,0.5,0.7
	c0.2,0.2,0.6,1,0.9,1c0.3,0.1,0.4-0.3,0.2-0.7c-0.2-0.4-0.7-1.4-0.7-1.4s-0.1-0.6-0.4-1.1c-0.2-0.6-0.5-1.3-0.5-1.3s1.3,0.3,1.5,1.1
	c0.1,0.3,0.5,2.2,0.9,3.3c0.2,0.6,0.6,1.1,1,1.7c0.4,0.6,1.4,1.5,2.5,1.8c1.1,0.3,2.4-0.4,3,0c0.6,0.4,1.6,1.4,2.3,1.7
	c0.7,0.2,2.7,0.6,3,1.4c0.4,0.8,1.4,0.9,1.8,1c0.5,0.1,2.1,0.7,2.1,2.2l-1.3,2.7c0,0-1,1-1.1,2c-0.2,1-0.6,1.5,0.3,3
	c1,1.4,1.6,3.2,1.7,4.5c0.1,1.3,1.3,1.4,2.1,2c0.8,0.6,0,1.1-0.5,2.3c-0.5,1.2-0.2,3.7-0.7,5.3c-0.5,1.6-1,2.2-1,3.4
	c0,1.3,0.1,2.7-0.4,3.8c-0.5,1.1-0.2,2.2-0.2,3.4c-0.1,1.2,0.2,2.7,1,3.7c0.8,1,2.7,1.5,2.4-0.1c-0.2-1.6,0.1-3.7,1-4.7l1-1
	c0,0-0.2-1.5,0.8-2.2c1-0.7,1.6-1.1,1-1.4c-0.6-0.2,0-0.8,0.6-0.8c0.6,0,0.8,0.2,2.1-1.3c1.3-1.5,1.7-1.8,3-2.6
	c1.3-0.7,1.8-2.2,2.6-3c0.8-0.8,2.2-1.5,3.1-1.7c0.9-0.2,1.4-1,1.4-2.1s-0.3-1.8,0.4-2.9c0.7-1.1,0.3-1.3,0.9-1.9
	C142.4,91.1,134.8,102.5,124.6,106.5 M144.6,72.5c0,0.1,0,0.2,0,0.3c0,0.6-0.1,1.3-0.1,1.9c-0.6-0.6-1.5-1-2.1-1.6
	c-0.6-0.7-1.5-1.2-1.8-1.4c-0.3-0.2-0.5-0.5-1.4-0.3c-0.9,0.2-1.6,0-1.8-0.9c-0.2-0.9-0.1-1.8-1-2.2c-0.9-0.5-1.4-1-2.1-1.5
	c-0.6-0.5-1.3-1.4-1.5-1.4c-0.2-0.1-1.9,0.1-1.9,0.1s-1-0.9-2.4-0.6c0,0-0.9-1.4-1.8-0.6c-1,0.7-1.8,1.2-2.3,0.5
	c-0.6-0.7-1.5-0.4-2.2-0.3c-0.6,0.1-1.2-1-1.4-1.5c-0.2-0.5,0-1.2-0.2-1.2c-0.2,0-1.2,0.3-1.8-0.2c-0.6-0.5-0.3-1-0.1-1.4
	c0.2-0.4,0.6-2,0.4-2.3l-0.7-0.1c0,0-0.9-0.2-1,0.5c-0.2,0.6-1.3,1.3-2.2,1c-0.9-0.2-1.5-0.8-1.9-1.7c-0.3-0.9-0.2-1.4-0.1-1.9
	c0.2-0.5-0.6-1.4-0.8-1.6c-0.2-0.2-0.3,0.1-0.7-0.6c-0.3-0.4-0.6-0.8-0.9-1h33.8V72.5z"/>
<path class="st0" d="M109.1,20.7c-1.1-0.5-2.3-0.3-2.7,0.3c-0.3,0.3-0.4,0.4-0.5,0.5c-0.3,0-1.8-0.1-2.5,0.8
	c-0.3,0.5-0.4,1.1-0.1,1.8c1,2.6,1.1,3.1,1.1,3.1c0,0,0,0.1,0,0.1c0,0,1.7,1.7,1,3.2c-0.8,1.7-0.6,2.1,0.3,2.6
	c0.7,0.4,1.1,0.9,1.1,2.5v0.1c0,1.2,0,2.2,0.6,2.8c0.3,0.3,0.7,0.4,1.2,0.4c0.4,0,0.7-0.2,0.9-0.5c0.8-1,0.5-3.2,0.3-4.2
	c-0.2-0.9-0.7-3,0-3.5c0.8-0.6,1.1-0.7,1.5-0.3c0,0,0.1,0.1,0.1,0c0.3,0,1-0.3,1-1c0-0.3-0.1-0.5-0.2-0.7c0,0,0,0,0,0
	c0.1,0,0.2,0,0.3,0.1c0.5,0.1,0.9,0,1.2-0.4c0.3-0.3,0.3-0.8,0.1-1.2c-0.4-0.8-1.5-2.7-2.4-3.5l-0.3-0.2c-0.5-0.5-0.5-0.5-0.5-0.9
	C110.7,21.9,110.2,21.2,109.1,20.7 M111.3,29.1c0,0.1,0,0.1,0.1,0.2c-0.9-0.4-1.7,0.3-2.2,0.6c-1.1,0.8-0.8,2.8-0.4,4.5
	c0.3,1.2,0.3,2.9-0.1,3.4c0,0.1-0.1,0.1-0.2,0.1c-0.2,0-0.4,0-0.5-0.1c-0.3-0.3-0.3-1.2-0.3-2.1v-0.1c0-1.9-0.4-2.8-1.6-3.4
	c-0.2-0.1-0.2-0.1-0.3-0.2c0-0.1,0.1-0.4,0.4-1.2c0.9-1.9-0.6-3.6-1-4.2c-0.1-0.4-0.4-1.2-1-3c-0.2-0.4-0.2-0.7,0-0.9
	c0.3-0.4,1.2-0.4,1.7-0.4c0.1,0,0.2,0,0.2,0c0.2-0.1,0.6-0.2,1.1-0.8c0.1-0.2,0.8-0.4,1.5,0c0.9,0.4,1.1,0.8,1,1
	c-0.1,0.9,0.1,1.1,0.8,1.7l0.3,0.2c0.7,0.7,1.8,2.5,2.1,3.2c0,0.1,0,0.1,0,0.1c0,0-0.1,0-0.2,0c-0.4-0.1-0.9-0.2-1.3,0.2
	C111,28.5,111.2,29,111.3,29.1"/>
<path class="st0" d="M107.1,24.4c-0.5,0-0.9,0.4-0.9,0.9c0,0.5,0.4,0.9,0.9,0.9c0.5,0,0.9-0.4,0.9-0.9
	C107.9,24.7,107.6,24.4,107.1,24.4"/>
<path class="st0" d="M98.1,24.8c-0.2,0-3.8,1-3.8,3.4c0,2.5,2.4,2.6,2.4,2.6c0.1,0,0.1,0,0.2-0.1c0-0.1,0-0.1,0-0.2
	c-0.3-0.4-0.5-0.8-0.4-1.1c0.1-0.3,0.4-0.5,0.8-0.8c0.4-0.3,0.9-0.6,0.9-1.1c-0.2-1.1,0.3-2.6,0.3-2.6c0-0.1,0-0.1,0-0.2
	C98.2,24.8,98.2,24.8,98.1,24.8 M95.5,29.1c-0.1-0.2-0.2-0.5-0.2-0.9c0-0.9,0.9-1.5,1.8-2c-0.1,0.5-0.1,1,0,1.4
	c-0.1,0.1-0.3,0.2-0.4,0.2C96.3,28.1,95.7,28.4,95.5,29.1"/>
<path class="st0" d="M100.1,29c-1.5,0.8-2.5,1.4-2.6,1.5c-0.1,0-0.1,0.1-0.1,0.2c0,0.1,0.1,0.1,0.1,0.1c0.5,0.1,4.7,1,5.5,0.9
	c0.4-0.1,1.3-0.4,1.7-1.3c0.3-0.8,0.1-1.7-0.6-2.8c-1.2-2.4-2-4.2-2-4.2c0-0.1-0.1-0.1-0.2-0.1c0,0-4,0.9-3.4,4.7
	c0,0.1,0.1,0.1,0.2,0.1h1.4c0.2,0.1,0.5,0.2,0.5,0.3C100.7,28.5,100.7,28.7,100.1,29 M101.7,28.3c-0.1-0.8-1-1.1-1.3-1.2
	c-0.1,0-0.1,0-0.2,0h-0.6c0.1-1.6,1.2-2.3,2-2.7c0.3,0.7,0.9,2,1.7,3.6c0,0,0,0.1,0,0.1c0.4,0.6,0.8,1.3,0.5,1.9
	c-0.2,0.5-0.7,0.7-0.9,0.7c-0.3,0-1.4-0.1-3-0.5c0.2-0.1,0.4-0.2,0.7-0.4C100.9,29.7,101.8,29.2,101.7,28.3"/>
<path class="st0" d="M106.9,39.1c0-0.1-0.1-0.2-0.3-0.3l-0.9-0.5c0,0,0,0,0,0c0,0-0.5-0.1-1,0.4l-4.2,3.1c-0.1,0.1-0.5,0.4-0.4,0.7
	c0,0.1,0.1,0.2,0.4,0.3c0.6,0.1,2.5,0.3,2.6,0.3c0,0,0.9,0,1.3-0.4c0.3-0.4,2.3-2.6,2.3-2.7C106.7,39.9,107,39.5,106.9,39.1
	 M103.6,42c0,0-0.3,0.1-0.6,0.1l-1.2-0.1l3.4-2.4c0,0,0.1-0.1,0.1-0.1c0-0.1,0.1-0.1,0.1-0.1l0.3,0.2C105,40.3,103.9,41.7,103.6,42"
	/>
<path class="st0" d="M105.1,43.2c0.7,0.1,1.6,0.2,1.7,0.2c0.1,0,0.7,0.1,1.1-0.8l1.1-2.1c0-0.1,0.2-0.4,0.1-0.6
	c0-0.1-0.2-0.3-0.4-0.3c-0.6-0.2-0.8-0.2-0.8-0.2c0,0-0.7-0.2-1,0.3c-0.3,0.4-2.1,2.6-2.1,2.6c0,0.1-0.3,0.4-0.2,0.7
	C104.7,43.1,104.9,43.2,105.1,43.2 M106.9,42.4c-0.1,0-0.4,0-0.9-0.1c0.5-0.6,1.3-1.6,1.6-2c0,0,0.1,0,0.3,0.1
	c-0.3,0.5-0.9,1.8-0.9,1.8C107,42.3,106.9,42.4,106.9,42.4"/>
<path class="st0" d="M109.4,43.4h1.3c0.3,0,0.9-0.2,0.9-1v-2.3c0,0,0-0.1,0-0.1c0,0-0.3-0.4-0.8-0.4c-0.5,0-0.8,0-0.8,0
	c0,0-0.5,0-0.7,0.5c-0.1,0.4-0.9,2.1-0.9,2.1c0,0-0.2,0.4,0,0.8C108.6,43.3,108.9,43.4,109.4,43.4 M110.6,42.4L110.6,42.4l-1.2,0h0
	c0.2-0.4,0.6-1.3,0.8-1.8c0.1,0,0.3,0,0.5,0V42.4z"/>
<path class="st0" d="M115.6,43.2l1.2-0.1c0.1,0,0.2,0,0.3-0.2c0.1-0.2,0.1-0.4,0-0.7c-0.3-0.7-1.7-3.6-1.8-3.7c0,0,0,0,0,0
	c0,0-0.3-0.4-0.6-0.3c0,0,0,0,0,0l-0.8,0.5c-0.2,0.1-0.4,0.3-0.3,0.8c0.2,0.6,1,3.1,1,3.2c0,0,0,0,0,0
	C114.7,42.9,114.9,43.3,115.6,43.2 M114.7,39.4c0.3,0.7,1,2.1,1.3,2.8c-0.2,0-0.5,0-0.5,0h0C115.3,41.7,114.9,40.2,114.7,39.4
	L114.7,39.4z"/>
<path class="st0" d="M112.3,43.4c0.4,0,1.7-0.1,1.7-0.1c0,0,0.3,0,0.4-0.2c0.1-0.2,0.1-0.3,0-0.6l-1-3c0,0,0,0,0,0
	c-0.1-0.2-0.3-0.5-0.7-0.3c-0.3,0.1-0.8,0.2-0.8,0.3c0,0,0,0,0,0c-0.1,0-0.2,0.1-0.2,0.6c0,0.3,0.1,2.6,0.1,2.7
	C111.8,43,111.9,43.5,112.3,43.4 M112.8,42.4c0-0.8-0.1-1.7-0.1-2.1h0l0.7,2.1L112.8,42.4z"/>
<path class="st0" d="M118.1,43c0.5-0.1,1.2-0.2,1.3-0.2c0.1,0,0.4,0,0.6-0.3c0.1-0.2,0.1-0.6-0.1-1c-0.6-1.1-2.6-4.3-2.7-4.5
	c0,0-0.1-0.2-0.4-0.3c-0.2,0-0.3,0-0.5,0.2c0,0-0.8,0.7-0.8,0.7c-0.2,0.1-0.4,0.5-0.2,1c0.3,0.6,1.9,3.9,1.9,4c0,0,0,0,0,0
	C117.3,42.7,117.6,43.1,118.1,43 M116.3,38.2c0.1-0.1,0.2-0.2,0.3-0.3c0.6,0.9,1.9,3.1,2.4,3.9c-0.2,0-0.6,0.1-0.9,0.1
	C117.9,41.5,116.6,38.9,116.3,38.2"/>
<path class="st0" d="M92.5,77.9c-2.1-1-4.1-0.2-4.1,1.7c0,4.4,9,3.7,7.5-3.8c-0.8-4.3-3.5-9.9-4.1-18c-0.7-8.1,3.7-10.8,3.7-10.8
	v-2.1c-6.9,3.4-5.5,18.1-3.5,25C94,76.8,92.5,77.9,92.5,77.9"/>
<path class="st0" d="M161,79.6c0-1.9-2-2.7-4.1-1.7c0,0-1.5-1.1,0.5-8c2.1-6.9,3.4-21.7-3.5-25v2.1c0,0,4.4,2.7,3.7,10.8
	c-0.7,8.1-3.3,13.7-4.1,18C152.1,83.3,161,83.9,161,79.6"/>
<path class="st0" d="M89.8,84l-4.2,3.4c-4.9-3.8-7,0.7-7,0.7c1.8-0.3,3.3,0.2,3.3,0.2c-3.8,1-2.8,3.4-2.8,3.4s3.9-2.3,5.5,0.3
	c2.1,3.4-0.5,6.1-0.5,6.1c6.4,0,4.3-8.6,4.3-8.6l5.7-5.6H89.8z"/>
<path class="st0" d="M169.9,88.2c0,0-2.1-4.5-7-0.7l-4.2-3.4h-4.1l5.7,5.6c0,0-2.1,8.6,4.3,8.6c0,0-2.6-2.7-0.5-6.1
	c1.6-2.7,5.5-0.3,5.5-0.3s0.9-2.4-2.8-3.4C166.7,88.3,168.1,87.8,169.9,88.2"/>
<path class="st0" d="M95.3,51.8l0.1-3.4c-0.1,0.7-0.7,1.2-1.3,1.5c-0.6,0.4-0.3,0.8-0.3,0.8C95.1,50.7,95.3,51.8,95.3,51.8"/>
<path class="st0" d="M94.6,60.7c0.2,2.3,0.9,1.5,0.9,1.5s-0.2-3.8-0.2-4.6c-0.1-0.7-2.3-0.4-2.4,0.4c0,0.8,0.4,4.1,0.4,4.1l0.7-0.1
	l-0.1-2.9C93.8,59.1,94.3,58.4,94.6,60.7"/>
<path class="st0" d="M95.1,68.7c0.6,0.8,0.7-3.1,0.5-3.8c0,0-1.7-0.5-1.5,0.4C94.2,66.2,94.4,67.7,95.1,68.7"/>
<path class="st0" d="M92.9,53.9c0,0.8,2.3,0.5,2.3,0.5v-1.2C95.2,53.1,92.9,52.8,92.9,53.9"/>
<path class="st0" d="M95.2,56.2V55c0,0-2.3-0.4-2.3,0.8C92.9,56.5,95.2,56.2,95.2,56.2"/>
<path class="st0" d="M101.5,98.3c0-0.4-0.3-0.7-0.7-0.7c-0.4,0-0.7,0.3-0.7,0.7c0,0.4,0.3,0.7,0.7,0.7
	C101.2,99,101.5,98.7,101.5,98.3"/>
<path class="st0" d="M155.8,90.6c-0.4,0-0.7,0.3-0.7,0.7c0,0.4,0.3,0.7,0.7,0.7c0.4,0,0.7-0.3,0.7-0.7
	C156.5,90.9,156.2,90.6,155.8,90.6"/>
<path class="st0" d="M154.2,91.6c0-0.4-0.3-0.7-0.7-0.7c-0.4,0-0.7,0.3-0.7,0.7c0,0.4,0.3,0.7,0.7,0.7
	C153.8,92.3,154.2,92,154.2,91.6"/>
<path class="st0" d="M152,92c0-0.4-0.3-0.7-0.7-0.7c-0.4,0-0.7,0.3-0.7,0.7c0,0.4,0.3,0.7,0.7,0.7C151.7,92.7,152,92.3,152,92"/>
<path class="st0" d="M94.2,104.5l0.4-4.3c0,0-0.4-0.8-1.6-0.2l-0.2,3.2c0,0-0.7,1.2-2.3-0.2l0.2-3.3c0,0-0.5-0.7-1.5-0.2l-0.3,4.4
	C88.9,103.9,91,106.7,94.2,104.5"/>
<path class="st0" d="M91.7,102.7c0.2,0,0.5-0.2,0.5-0.4l0.1-1.4c0-0.3-0.2-0.5-0.4-0.5c-0.2,0-0.5,0.2-0.5,0.4l-0.1,1.4
	C91.3,102.5,91.4,102.7,91.7,102.7"/>
<path class="st0" d="M100.2,105.4l0.3-4.1c0,0-0.3-0.8-1.5-0.2l-0.2,3.1c0,0-0.7,1.2-2.2-0.1l0.2-3.2c0,0-0.5-0.7-1.4-0.2l-0.2,4.2
	C95.1,104.8,97.1,107.5,100.2,105.4"/>
<path class="st0" d="M97.8,103.7c0.2,0,0.4-0.2,0.5-0.4l0.1-1.3c0-0.2-0.2-0.4-0.4-0.4c-0.2,0-0.4,0.2-0.4,0.4l-0.1,1.3
	C97.4,103.5,97.5,103.7,97.8,103.7"/>
<path class="st0" d="M105.5,105.8l0.1-2.1c0,0-0.2-1.1-1.2-0.3l-0.1,1c0,0-0.6,0.8-0.5-0.6l0.1-1.3c0,0-0.3-0.4-0.7,0.2l0,1.7
	c0,0-0.3,0.3-0.8,0l0.2-2.4c0,0-0.3-1-1.3-0.2l-0.2,3.7C101.1,105.3,102.6,107.9,105.5,105.8"/>
<path class="st0" d="M91.7,96.8c0-0.4-0.3-0.7-0.7-0.7c-0.4,0-0.7,0.3-0.7,0.7c0,0.4,0.3,0.7,0.7,0.7C91.4,97.5,91.7,97.2,91.7,96.8
	"/>
<path class="st0" d="M95.2,97.3c0-0.4-0.3-0.7-0.7-0.7c-0.4,0-0.7,0.3-0.7,0.7c0,0.4,0.3,0.7,0.7,0.7C94.9,98,95.2,97.7,95.2,97.3"
	/>
<path class="st0" d="M98,97.7c0-0.4-0.3-0.7-0.7-0.7c-0.4,0-0.7,0.3-0.7,0.7c0,0.4,0.3,0.7,0.7,0.7C97.7,98.5,98,98.1,98,97.7"/>
<path class="st0" d="M94.6,85.5l0,2.5l1.6,1.4C96.2,89.3,97.1,86.2,94.6,85.5"/>
<path class="st0" d="M96.9,92c-0.2,0.2-0.5,0.7-0.7-0.1c-0.2-0.9-0.9-0.8-1.3-0.8c-0.4,0-0.9,1.6-1.2,0.5c-0.3-1.1-0.5-1.6-1.8-1.4
	v2.6l6.6,1.5c0,0,0-1.8-0.3-2C97.9,91.9,97.1,91.7,96.9,92"/>
<path class="st0" d="M98.7,95.3c0,0-4.5-1.4-6.7-1.5l0,1l6.9,1.6C98.8,96.5,99.1,96.2,98.7,95.3"/>
<path class="st0" d="M159.9,103.9l-0.3-4.4c-1-0.5-1.5,0.2-1.5,0.2l0.2,3.3c-1.5,1.4-2.3,0.2-2.3,0.2l-0.2-3.2
	c-1.2-0.6-1.6,0.2-1.6,0.2l0.4,4.3C157.9,106.7,159.9,103.9,159.9,103.9"/>
<path class="st0" d="M156.7,102.3c0,0.2,0.2,0.4,0.5,0.4c0.2,0,0.4-0.2,0.4-0.5l-0.1-1.4c0-0.2-0.2-0.4-0.5-0.4
	c-0.2,0-0.4,0.2-0.4,0.5L156.7,102.3z"/>
<path class="st0" d="M153.7,104.8l-0.2-4.2c-1-0.5-1.4,0.2-1.4,0.2l0.2,3.2c-1.5,1.3-2.2,0.1-2.2,0.1l-0.2-3.1
	c-1.2-0.6-1.5,0.2-1.5,0.2l0.4,4.1C151.8,107.5,153.7,104.8,153.7,104.8"/>
<path class="st0" d="M151,101.5c-0.2,0-0.4,0.2-0.4,0.4l0.1,1.3c0,0.2,0.2,0.4,0.4,0.4c0.2,0,0.4-0.2,0.4-0.4l-0.1-1.3
	C151.4,101.7,151.2,101.5,151,101.5"/>
<path class="st0" d="M144.6,104.3l-0.1-1c-1-0.8-1.2,0.3-1.2,0.3l0.1,2.1c3,2.1,4.4-0.5,4.4-0.5l-0.2-3.7c-1-0.8-1.3,0.2-1.3,0.2
	l0.2,2.4c-0.5,0.3-0.8,0-0.8,0l0-1.7c-0.3-0.6-0.7-0.2-0.7-0.2l0.1,1.3C145.1,105,144.6,104.3,144.6,104.3"/>
<path class="st0" d="M72.6,21.6c0.5-0.2,0.9-0.6,0.7-1.3l-2.1-5.4l-0.6,0.2l2.1,5.2c0.2,0.4,0.1,0.6-0.2,0.8c-0.3,0.1-0.5,0-0.7-0.4
	l-2.1-5.2l-0.6,0.2l2.1,5.4C71.5,21.8,72.1,21.8,72.6,21.6"/>
<polygon class="st0" points="75.1,20.7 73.4,14.9 73.4,14.9 75.9,20.5 76.7,20.2 74.8,13.8 74.3,13.9 75.9,19.4 75.9,19.4 
	73.5,14.1 72.7,14.4 74.6,20.8 "/>
<polygon class="st0" points="78.4,19.8 76.7,13.3 76.1,13.4 77.8,19.9 "/>
<polygon class="st0" points="80.7,19.2 80,12.5 79.4,12.6 80.2,18.7 80.1,18.7 78.2,12.9 77.6,13 79.8,19.4 "/>
<polygon class="st0" points="83.8,18.6 83.7,18.1 82.7,18.3 82.2,15.6 83.1,15.4 83,14.9 82.1,15.1 81.6,12.7 82.6,12.5 82.5,12 
	80.9,12.3 82.2,18.9 "/>
<path class="st0" d="M85.4,18.3l-0.6-3.2l0.4-0.1c0.3-0.1,0.5,0,0.5,0.3l0.5,2.8l0.6-0.1l-0.5-2.8c-0.1-0.5-0.4-0.5-0.8-0.5v0
	c0.5-0.1,0.6-0.3,0.5-0.8l-0.3-1.7c-0.1-0.7-0.5-0.7-1.1-0.6l-1.1,0.2l1.2,6.6L85.4,18.3z M84.3,12.2l0.3-0.1c0.3,0,0.5,0,0.6,0.4
	l0.3,1.5c0.1,0.4-0.1,0.5-0.4,0.6l-0.4,0.1L84.3,12.2z"/>
<path class="st0" d="M87.2,13c0.1,0.3,0.2,0.6,0.4,0.8l1.1,1.4c0.2,0.2,0.2,0.4,0.3,0.6l0.1,0.9c0,0.3,0,0.5-0.3,0.6
	c-0.3,0-0.4-0.1-0.5-0.4L88.2,16l-0.6,0.1l0.1,0.9c0.1,0.7,0.5,0.9,1.1,0.8c0.6-0.1,0.9-0.5,0.8-1.1l-0.2-1c0-0.3-0.2-0.6-0.3-0.8
	L88,13.3c-0.1-0.2-0.2-0.4-0.2-0.6l-0.1-0.7c0-0.3,0-0.5,0.3-0.5c0.3-0.1,0.4,0.1,0.4,0.4l0.1,0.8l0.6-0.1l-0.1-0.8
	c-0.1-0.6-0.4-0.9-1.1-0.8c-0.6,0.1-0.9,0.5-0.8,1.1L87.2,13z"/>
<polygon class="st0" points="91.4,17.4 90.5,10.7 89.9,10.8 90.8,17.4 "/>
<path class="st0" d="M93.7,17.1c0.8-0.1,1-0.6,0.9-1.2L94,11.4c-0.1-0.7-0.3-1.1-1.2-1l-1,0.1l0.8,6.7L93.7,17.1z M92.8,10.9
	c0.4,0,0.5,0.1,0.6,0.5L94,16c0.1,0.4-0.1,0.5-0.5,0.6l-0.3,0L92.5,11L92.8,10.9z"/>
<path class="st0" d="M96.1,14.9l1.1-0.1l0.5,1.8l0.6-0.1L96.6,10L95.7,10l-0.2,6.8l0.6-0.1L96.1,14.9z M96.2,10.5L96.2,10.5l0.9,3.8
	l-0.9,0.1L96.2,10.5z"/>
<path class="st0" d="M100.2,16.4c0.8-0.1,1-0.5,0.9-1.2l-0.4-4.5c-0.1-0.7-0.3-1.1-1.1-1l-1,0.1l0.6,6.7L100.2,16.4z M99.5,10.2
	c0.4,0,0.5,0.1,0.6,0.5l0.4,4.6c0,0.4-0.1,0.5-0.5,0.6l-0.3,0l-0.5-5.7L99.5,10.2z"/>
<polygon class="st0" points="104.4,16 104,10 104,10 105.2,15.9 106.1,15.9 105.6,9.2 105.1,9.2 105.5,14.9 105.5,14.9 104.3,9.3 
	103.4,9.3 103.9,16 "/>
<path class="st0" d="M107.7,13.9l1.1-0.1l0.4,1.8l0.6,0L108.3,9L107.5,9l-0.6,6.8l0.6,0L107.7,13.9z M107.9,9.5L107.9,9.5l0.7,3.8
	l-0.9,0.1L107.9,9.5z"/>
<path class="st0" d="M111.4,15.6c0.6,0,0.9-0.4,0.9-1l0-1l-0.6,0l0,0.9c0,0.3-0.1,0.4-0.3,0.4c-0.2,0-0.4-0.1-0.4-0.4l-0.2-4.9
	c0-0.3,0.1-0.4,0.3-0.4c0.2,0,0.3,0.1,0.4,0.4l0,0.9l0.6,0l0-0.9c0-0.6-0.4-0.9-1-0.9c-0.6,0-0.9,0.4-0.9,1l0.2,5
	C110.5,15.3,110.8,15.6,111.4,15.6"/>
<rect x="113.1" y="8.7" transform="matrix(0.9992 -4.039446e-02 4.039446e-02 0.9992 -0.396 4.5927)" class="st0" width="0.6" height="6.7"/>
<path class="st0" d="M116.2,15.4c0.8,0,1.1-0.5,1-1.2l-0.1-4.6c0-0.7-0.3-1.1-1.1-1.1c-0.8,0-1.1,0.5-1,1.2l0.1,4.6
	C115.1,15,115.3,15.4,116.2,15.4 M116,9.1c0.4,0,0.5,0.2,0.5,0.6l0.1,4.5c0,0.4-0.1,0.6-0.4,0.6c-0.4,0-0.5-0.2-0.5-0.6l-0.1-4.5
	C115.5,9.4,115.6,9.1,116,9.1"/>
<polygon class="st0" points="118.9,15.3 118.8,9.3 118.8,9.3 119.7,15.3 120.6,15.3 120.5,8.5 119.9,8.5 120,14.3 120,14.3 
	119.2,8.6 118.3,8.6 118.4,15.3 "/>
<path class="st0" d="M122.3,13.4l1.1,0l0.3,1.9h0.6l-1-6.7l-0.8,0l-0.9,6.7l0.6,0L122.3,13.4z M122.8,9L122.8,9l0.5,3.9l-1,0
	L122.8,9z"/>
<polygon class="st0" points="126.7,14.7 125.7,14.7 125.7,8.5 125.1,8.5 125.1,15.2 126.7,15.2 "/>
<path class="st0" d="M129.6,13.4l1.1,0l0.2,1.9l0.6,0l-0.9-6.7l-0.8,0l-1.1,6.7l0.6,0L129.6,13.4z M130.2,9L130.2,9l0.4,3.9l-1,0
	L130.2,9z"/>
<path class="st0" d="M133.3,15.4c0.5,0,1.1-0.2,1.1-0.9l0.2-5.8l-0.6,0l-0.2,5.6c0,0.5-0.2,0.6-0.5,0.6c-0.3,0-0.5-0.2-0.4-0.6
	l0.2-5.6l-0.6,0l-0.2,5.8C132.2,15.2,132.8,15.4,133.3,15.4"/>
<polygon class="st0" points="136,15.5 136.6,15.5 136.8,9.3 137.5,9.3 137.6,8.8 135.6,8.7 135.5,9.2 136.2,9.3 "/>
<path class="st0" d="M139.3,15.7c0.8,0.1,1.1-0.4,1.1-1.1l0.2-4.6c0-0.7-0.2-1.1-1-1.2c-0.8,0-1.1,0.4-1.1,1.1l-0.2,4.6
	C138.2,15.2,138.4,15.6,139.3,15.7 M138.8,14.5l0.2-4.5c0-0.4,0.1-0.6,0.5-0.6c0.4,0,0.4,0.3,0.4,0.7l-0.2,4.5
	c0,0.4-0.1,0.6-0.5,0.6C138.9,15.1,138.8,14.9,138.8,14.5"/>
<polygon class="st0" points="142.4,9.8 142.4,9.8 142.8,15.8 143.7,15.9 144.1,9.2 143.6,9.2 143.2,14.9 143.2,14.9 142.8,9.1 
	141.9,9 141.5,15.8 142,15.8 "/>
<path class="st0" d="M145.8,16.1c0.8,0.1,1.1-0.4,1.2-1l0.4-4.6c0-0.7-0.2-1.2-1-1.2c-0.8-0.1-1.1,0.4-1.2,1l-0.4,4.6
	C144.8,15.6,145,16.1,145.8,16.1 M145.5,14.9l0.4-4.5c0-0.4,0.1-0.6,0.5-0.6c0.4,0,0.4,0.3,0.4,0.7l-0.4,4.5c0,0.4-0.1,0.6-0.5,0.6
	C145.5,15.6,145.4,15.3,145.5,14.9"/>
<polygon class="st0" points="149.2,10.1 149.2,10.1 149.3,16.4 150.1,16.5 151.4,10.4 151.4,10.4 150.8,16.5 151.3,16.6 152,9.9 
	151,9.8 149.8,15.7 149.7,15.7 149.6,9.7 148.7,9.6 148,16.3 148.6,16.3 "/>
<path class="st0" d="M153.2,14.9l1.1,0.1l0,1.9l0.6,0.1l-0.2-6.8l-0.8-0.1l-1.8,6.6l0.6,0.1L153.2,14.9z M154.2,10.6L154.2,10.6
	l0,3.9l-0.9-0.1L154.2,10.6z"/>
<polygon class="st0" points="163.5,12 163.5,12 163.1,18.2 163.9,18.3 165.7,12.3 165.7,12.3 164.6,18.5 165.1,18.5 166.3,11.9 
	165.4,11.8 163.6,17.6 163.6,17.6 164,11.5 163,11.4 161.9,18 162.4,18.1 "/>
<polygon class="st0" points="167.8,19.1 167.9,18.6 166.9,18.4 167.5,15.7 168.4,15.9 168.5,15.4 167.6,15.2 168.1,12.8 169,13 
	169.2,12.5 167.6,12.2 166.2,18.8 "/>
<polygon class="st0" points="168.4,19.2 169,19.3 170.2,16.7 170.2,16.7 170.2,19.6 170.8,19.8 170.7,16.3 172.2,13.2 171.6,13 
	170.5,15.6 170.5,15.6 170.6,12.8 170,12.7 170,16.1 "/>
<polygon class="st0" points="172.1,20.1 173.8,13.6 173.2,13.4 171.5,19.9 "/>
<path class="st0" d="M174.1,20.7c0.6,0.2,1-0.1,1.2-0.6l0.3-0.9L175,19l-0.3,0.9c-0.1,0.3-0.2,0.4-0.5,0.3c-0.2-0.1-0.3-0.2-0.2-0.5
	l1.5-4.7c0.1-0.3,0.2-0.4,0.5-0.3c0.2,0.1,0.3,0.2,0.2,0.5l-0.3,0.8l0.6,0.2l0.3-0.9c0.2-0.5,0-1-0.6-1.2c-0.6-0.2-1,0.1-1.2,0.6
	l-1.5,4.8C173.3,20.1,173.5,20.6,174.1,20.7"/>
<path class="st0" d="M176.7,21.7c0.8,0.3,1.2,0,1.4-0.6l1.7-4.2c0.3-0.6,0.2-1.1-0.6-1.5c-0.8-0.3-1.2,0-1.4,0.6l-1.7,4.2
	C175.9,20.8,176,21.4,176.7,21.7 M176.7,20.4l1.7-4.2c0.1-0.4,0.3-0.6,0.7-0.4c0.4,0.1,0.3,0.4,0.2,0.8l-1.7,4.2
	c-0.1,0.3-0.3,0.6-0.7,0.4C176.6,21.1,176.6,20.8,176.7,20.4"/>
<path class="st0" d="M66.1,19.9c1.1,1.6,1.4,2.1,1.4,3.4l0,0.4c0,1,0,2.2,0.8,3c0.7,0.7,1.7,1,3.3,1c1.2,0,2.8-0.3,4.7-0.7
	c2.9-0.6,6.5-1.2,9.8-1c-0.8,0.8-3.2,2.7-8.3,2.2c-5-0.5-10.4-0.7-12.3,1.9c-1,1.4-0.8,3.6,0.5,6.4c0,0.1,0.1,0.1,0.2,0.1
	c0,0,3.9-1.4,3-5.6c1.5,0.1,3,0.6,4.5,1.1c0.3,0.1,0.7,0.2,1,0.3c-3.1,0.9-5.7,2.2-5.7,3.6c0,0.9,1,1.2,3.2,2.2
	c2.4,1.1,4.6,1.9,6.7,2.9c5.8,2.9,10,5.4,10.7,4.8c0.8-0.8-13.1-6.3-9.8-11.1c1.8-2.7,4.9,0.9,2.4,1.4c-2.5,0.6,3.6,6.8,10.8,8.9
	c0,0,1.3-1.3,2.3-1.8c0,0,1.1-0.8-0.5-1.2c-1.6-0.4-11.4-3.4-7.4-7.2c1.2-1.1,1.3-1.9,0.8-2.4c1.4-0.5,2.6-1.2,3.4-2.1
	c0.8-0.8,1.3-1.8,1.3-2.7c0-2.6-3.2-6.1-4.4-7.3c9.4-1.5,21.7-2.5,36.1-2.5c14.8,0,27.5,1.1,37,2.7c-1.2,1.2-4.5,4.8-4.5,7.4
	c0,0.9,0.4,1.8,1.3,2.7c0.6,0.6,1.3,1.1,2.2,1.5c-1,0.6-1.6,1.3-1.6,1.8c0,2.2,2,2.9,2,2.9c0.3,2.5-5.8,5.3-7.5,6
	c0.4,0.2,1.2,0.5,2.1,1.1c5.8-1.7,7.3-4.7,8.5-6.2c1.3-1.7-2-0.8-2-2.5c0-1.7,5-2.9,4,1.7c-0.9,4.2-6.9,6.8-9.5,7.7
	c0.3,0.3,0.7,0.6,1,1c0.1,0.2,0.5,0.8,0.7,0.7c0.3-0.1,0.1-1,0.6-0.9c0.5,0.1,0.9,0.3,1.1-0.2c0.2-0.5,0.2-1,0.6-0.7
	c0.4,0.3,0.5,0.5,0.9,0.4c0.4-0.2-0.3-1.3,0.6-1c0.9,0.3,1-0.2,0.8-0.7c-0.2-0.5,0.4-0.2,1,0.2c0.6,0.4,0.7-0.4,0.3-0.8
	c-0.3-0.5,0.1-0.8,0.6-0.3c0.5,0.5,1.5,0.4,0.8-0.4c-0.7-0.7,0.1-1.4,0.9-0.8c0.8,0.6,0.7,0.2,0.2-0.5c-0.4-0.7-0.1-1,0.9-0.4
	c1,0.6,1.6,0.4,0.6-0.4c-1-0.8-0.6-1.4,0.5-0.8c1.1,0.6,2.4,0.9,1.2-0.1c-1.2-1.1-1.6-1.8-0.1-1.1c1.4,0.7,2.5,0.6,0.4-0.7
	c-2.2-1.3,1.1-0.1,1.9,0.5c0.8,0.6,0.9-0.4-0.6-1.2c-1.5-0.8-0.6-1.1,1.4-0.1c1.9,1,1.9,0.1,0.3-0.5c-1.6-0.6-2.3-1.8-0.3-0.8
	c2,1,4,1.1,2,0.1c-0.9-0.5-1.6-0.8-1.8-1.1c0.6-0.2,1.3,0,2.7,0.9c2.6,1.8,0.1,3.8-2.2,4.7c-3.3,1.3-4.7,2.6-8.2,5.1
	c-2.1,1.5-4.9,2-6.8,2.1c0.2,0.4,0.4,0.8,0.5,1.2c3.1-0.1,6.6-1.1,8.8-2.5c2.9-1.7,7.8-4.5,11.3-5.4c2.8-0.7,5.4-2.1,1.2-5.1
	c-1.5-1-2.9-1.9-4.3-2.5c0.1,0,0.2-0.1,0.2-0.1c1.6-0.5,3-1,4.5-1.1c-0.8,4.3,3,5.6,3,5.6c0.1,0,0.2,0,0.2-0.1
	c1.3-2.8,1.5-4.9,0.5-6.3c-1.9-2.6-7.2-2.4-12.3-1.9c-5.7,0.6-8.1-1.9-8.5-2.4c0.6-0.1,1.4-0.1,2.1,0c1.6,0.1,3.4,0.4,5.1,0.7
	c4.1,0.7,8.4,1.4,10.3-0.1c0.6-0.5,1-1.1,1-2c0.2-1.8,1.1-3.4,1.9-4.7c0.9-1.4,1.6-2.7,1.2-3.8c-0.2-0.7-1-1.4-2.2-1.9
	c-5.5-2.4-14-4.6-23.8-6.1c-10.9-1.7-23-2.6-35.2-2.6c-23.4,0-45.1,3-56.8,7.7c-0.1,0-2.3,0.8-2.9,2.4c-0.3,0.8-0.1,1.6,0.5,2.5
	C65.4,18.9,65.8,19.5,66.1,19.9 M67.7,14.3C67.8,14.3,67.8,14.3,67.7,14.3c11.6-4.7,33.2-7.7,56.5-7.7c28.5,0,49.4,4.6,58.6,8.6
	c0.9,0.4,1.5,0.9,1.7,1.3c0.2,0.7-0.4,1.7-1.1,3c-0.9,1.5-1.8,3.1-2.1,5.1c-0.1,0.6-0.3,1-0.7,1.3c0,0,0,0-0.1,0
	c-0.1-0.3-0.3-0.6-0.6-1c-3.9-3.9-27.6-8.2-55.4-8.2c-14.2,0-28.3,1.1-39.5,3.1c-5,0.9-9.1,1.9-12,3c-2.4,0.9-3.9,1.8-4.3,2.7
	c-0.2-0.5-0.2-1.2-0.2-1.8l0-0.4c0-1.7-0.4-2.2-1.6-4c-0.3-0.4-0.7-1-1.1-1.7c-0.4-0.6-0.5-1.1-0.3-1.6
	C65.8,15.2,67.3,14.5,67.7,14.3 M171.1,25.8c-1.8-0.3-3.6-0.6-5.2-0.7c-4-0.3-6.4,1.2-7.7,2.4c0.3-2,3-5.1,4.7-6.8
	c9,1.6,14.8,3.5,16.4,5.1c0.2,0.2,0.3,0.4,0.3,0.5c0,0.1,0,0.1-0.1,0.2C177.6,26.9,174.2,26.3,171.1,25.8 M162.5,26.5l0.4,0.2
	c0.5,0.6,3.2,3.4,9.4,2.7c2.6-0.3,8.2-0.9,10.6,0.8c-2.5-0.4-4.7,0.4-7,1.1c-0.4,0.1-0.9,0.3-1.3,0.4c-5.4-2.1-10.1-1.5-12.9-0.3
	c-1.2-0.5-2-1.1-2.6-1.7c-0.4-0.4-0.6-0.7-0.8-1.1c0.6-0.8,1.9-1.9,4.1-2.4C162.5,26.4,162.5,26.4,162.5,26.5 M181.8,31.1
	c0.7,0,1.4,0.1,2.2,0.3c0.4,1,0.2,2.4-0.5,4.1C182.5,35,181.2,33.7,181.8,31.1 M91.7,26.8c-4.6-2.7-10.9-1.5-15.6-0.7
	c-1.8,0.3-3.4,0.6-4.5,0.6c-0.8,0-1.5-0.1-2-0.3c-0.1-0.1-0.1-0.2-0.1-0.3c0-0.1,0.1-0.2,0.3-0.5c1.6-1.6,7.8-3.6,17.3-5.2
	C88.7,22.1,91.1,24.8,91.7,26.8 M87.1,31.8c-2-0.6-5.4-0.5-7.4-0.3c-1,0.1-2,0.3-3,0.5c-0.9-0.2-1.7-0.5-2.6-0.8
	c-2.3-0.8-4.5-1.5-7.1-1.1c2.4-1.7,8.1-1.1,10.6-0.8c6.1,0.7,8.9-2.1,9.4-2.7l0.4-0.2c0,0,0,0,0,0c1.6,0.3,3.1,0.8,4.3,1.8
	C91.6,29.5,89.9,30.9,87.1,31.8 M66.6,35.4c-0.7-1.7-0.9-3.1-0.5-4.1c0.8-0.2,1.5-0.3,2.2-0.3C68.8,33.5,67.5,34.8,66.6,35.4"/>
<path class="st0" d="M128.1,39.7c0,0-0.1,0-0.1,0c0,0,0,0.1,0,0.1c0,0,0.3,3.2,3.9,3.2c3.2,0,6.1-2.6,6.8-3.2
	c0.4,0.7,2.2,3.3,3.7,3.1c0.6-0.1,1.2-0.6,1.5-1.6c0.5,0.5,1.8,1.7,3.4,1.6c1.3-0.1,2.6-1,3.6-2.8c0-0.1,0-0.1,0-0.2
	c0,0-0.1-0.1-0.2,0c0,0-3.1,0.9-5-0.5c-1-0.8-1.5-2-1.5-3.8c0-2.7,0.2-4.3,0.5-5.3c0.9,0.5,1.9,0.8,3.1,0.9c3.4,0.1,4.1-2,4.1-2.1
	c0,0,0-0.1,0-0.2c0,0-0.1-0.1-0.1-0.1c-1.1,0.2-2,0.1-2.4-0.1c1.6-0.5,2.7-0.5,3.3,0c0.6,0.5,0.4,1.5,0.4,1.5c0,0.1,0,0.1,0.1,0.2
	c0.1,0,0.1,0,0.2,0c1.2-1.3,1.7-2.4,1.3-3.4c-0.5-1.6-3.1-2.3-5.6-2.8c-3.5-0.7-4.8-4.5-4.8-4.6c0,0,0-0.1-0.1-0.1c0,0-0.1,0-0.1,0
	c-0.9,0.5-1.5,1-2,1.6l-2.3-2.6c0,0-0.1-0.1-0.1-0.1c0,0-0.1,0-0.1,0.1c0,0.1-1,1.2-0.4,3.1c-0.5-0.5-1.1-1.3-1.1-2.2
	c0-0.1,0-0.1-0.1-0.1c-0.1,0-0.1,0-0.2,0c0,0-2.4,2.2-0.1,5.6c-0.5,0.2-2.4,0.7-6-0.3c0,0-0.1,0-0.1,0c0,0-0.1,0.1-0.1,0.1
	c0,0.1-0.3,1.3,0.5,2.3c0.7,0.9,2,1.4,3.7,1.5c-0.6,0.4-2.2,1.2-5.5,0.3c-0.1,0-0.1,0-0.1,0c-0.1,0-0.1,0.1-0.1,0.2c0,0,1,4,6,3.3
	c-1,0.9-3.8,3-7.5,1.9c0,0-0.1,0-0.1,0c0,0-0.1,0.1-0.1,0.1c0,0.1,0.1,2.3,1.8,3.2c1.4,0.8,3.6,0.4,6.4-1.3
	C136,37.5,134.3,40.3,128.1,39.7 M136.6,29c0.2-0.2,0.2-0.6,0.1-0.9c-0.1-0.3-0.4-0.5-0.7-0.5c-1.6,0-2.8-0.4-3.4-1.1
	c-0.2-0.2-0.3-0.4-0.3-0.6c4,0.9,5.7,0,5.9-0.1c0.2-0.1,0.3-0.3,0.4-0.6c0.1-0.2,0-0.5-0.1-0.7c-1-1.3-1.1-2.3-0.9-3.1
	c0.6,0.9,1.3,1.5,1.3,1.5c0.3,0.2,0.7,0.2,1,0c0.3-0.2,0.4-0.6,0.2-1c-0.3-0.6-0.4-1.2-0.3-1.7l1.6,1.8c-0.1,0.2-0.1,0.3-0.2,0.5
	c-0.3,1.1,0.1,2,0.3,2.3c-2.7,1.8-2.8,3.4-2.7,4.2c-0.3,0.5-1.4,1.9-3.4,2.3c-2,0.2-3.2-0.5-3.9-1.2C135.2,30.8,136.6,29.1,136.6,29
	 M143.7,21.1c0.3,0.5,0.7,1.2,1.2,1.8l-1.4,0.1l-0.9-1C142.9,21.7,143.3,21.4,143.7,21.1 M153.5,28.4c-0.1-0.1-0.2-0.3-0.3-0.4
	c-1-0.8-2.5-0.8-4.7,0c-0.3,0.1-0.5,0.4-0.5,0.7c0,0.3,0.2,0.6,0.5,0.8c0.1,0,0.5,0.2,1.3,0.3c-0.5,0.2-1.1,0.3-1.9,0.3
	c-1,0-1.9-0.4-2.7-0.8c0.3-0.5,0.7-0.8,1.2-1.1c0.1-0.1,0.3-0.2,0.4-0.3c0.8-0.6,1.4-1.8,1.9-2.8c0.1,0,0.2,0.1,0.3,0.1
	c1.3,0.3,4.5,0.9,4.8,2.1C153.7,27.7,153.7,28,153.5,28.4 M148.7,41.3c-0.5,0.4-1,0.7-1.6,0.7c-1.5,0.1-2.8-1.4-2.8-1.4
	c-0.1-0.1-0.3-0.2-0.4-0.3c-0.2-0.5-0.5-1.2-0.7-2c0.1,0,0.2,0,0.3,0c0.3,0.9,0.8,1.6,1.5,2.1C146.2,41.1,147.6,41.3,148.7,41.3
	 M142.2,23l0.6,0.7c0.2,0.2,0.4,0.3,0.6,0.3c0,0,0.5,0,1.1-0.1c-0.1,0.4-0.3,0.6-0.5,0.8c-0.4,0.3-1,0.2-1.5,0c0-0.1,0-0.1-0.1-0.2
	C142.5,24.6,142.1,23.9,142.2,23 M146.1,27.2c-0.1,0.1-0.3,0.2-0.4,0.3c-0.6,0.4-1.1,0.8-1.4,1.4c-0.1-0.1-0.3-0.2-0.4-0.3
	c0.4-0.6,1.1-1.2,1.9-1.6c1.1-0.5,1.2-1.7,1.1-2.4c0.2,0.1,0.5,0.2,0.7,0.4C147.2,25.8,146.7,26.8,146.1,27.2 M139.6,39.4
	c-0.2-0.1-0.6-0.5-0.5-2.4c0.7-0.4,1.2-1,1.5-1.4c-0.1,0.9,0.1,1.6,0.6,2.1c0.1,0.1,0.2,0.2,0.4,0.3C141,38.7,140.1,39.6,139.6,39.4
	 M139.5,33.1C139.5,33.1,139.5,33.1,139.5,33.1c0.1,0,1-0.3,1.6-1c0,0.2,0,0.5,0.1,0.9c-1.4,2.3-2.6,3.3-3.3,3.3
	C137.9,35.9,138.6,34.5,139.5,33.1 M143.3,37.1c-0.5,0.1-0.9,0-1.1-0.2c-0.6-0.6-0.3-2.2,0-3.3c0.3-0.1,0.7-0.2,1-0.3
	c0,0.7-0.1,1.5-0.1,2.4C143.2,36.2,143.2,36.6,143.3,37.1 M142.3,25.7c0.6,0.2,1.4,0.3,2.1-0.1c0.4-0.2,1-0.7,1.2-1.8
	c0.1,0,0.1,0,0.2,0l0.1,0.2l0,0.1c0,0,0.3,1.5-0.6,1.9c-1,0.5-1.7,1.1-2.2,1.9c-0.3-0.3-0.4-0.5-0.5-0.5c-0.2-0.3-0.6-0.4-0.9-0.2
	c-0.3,0.1-0.4,0.3-0.5,0.6c0,0.1-0.3,0.3-1.3,0.6C140,27.9,140.4,26.9,142.3,25.7C142.3,25.7,142.3,25.7,142.3,25.7 M142.4,38.8
	c0.2,0.6,0.4,1.3,0.7,1.8c0,0.1-0.1,0.1-0.1,0.2c-0.2,0.7-0.5,1.2-0.8,1.2c-0.5,0.1-1.3-0.7-2.1-1.7C141,40,141.8,39.6,142.4,38.8
	 M142.2,32.4c-0.1-0.4-0.4-1.6-0.2-2.6c0-0.1,0-0.1-0.1-0.2c-0.1,0-0.1,0-0.2,0c0,0-1,1-1.8,1.6c-0.1-0.2-0.3-0.7-0.3-1.7
	c0,0,0-0.1,0.1-0.1c1.6-0.4,2.1-0.9,2.3-1.2c0.3,0.3,0.9,0.9,1.8,1.5c-0.2,0.5-0.3,1.2-0.4,2.1C143.1,32.1,142.7,32.3,142.2,32.4
	 M137,32.8c0.1-0.2,0.2-0.4,0.2-0.6c0.3-0.1,0.9-0.4,1.4-1c0.1,0.3,0.1,0.6,0.3,0.9c-0.7,1.4-1.7,2.6-2.3,3.2
	c-0.1,0-0.2,0.1-0.3,0.1c-2.6,1.6-4.6,2.1-5.7,1.5c-0.5-0.3-0.8-0.8-1-1.3C133.9,36.2,136.9,32.9,137,32.8 M137.1,37.1
	c0.3,0.1,0.6,0.2,0.9,0.2c0,0.3,0.1,1,0.3,1.6c-0.1,0-0.2,0.1-0.3,0.2c0,0-3.1,3.1-6.2,3.1c-1.6,0-2.3-0.7-2.7-1.4
	C134.6,41,136.5,38.5,137.1,37.1"/>
<path class="st0" d="M74.4,101.7c0.1-0.5,0.1-1-0.2-1.1c-0.3-0.1-0.6,0.2-0.7,0.4c0,0,0,0,0,0v0c0,0-0.4,0.9-1.8,0.8
	c-0.9,0-1.8,0.4-2.3,1.1c-0.3,0.5-0.4,1-0.2,1.4c0.4,0.8,1,1.3,1.3,1.2c0.1,0,0.3-0.1,0.2-0.5l0-0.2c0-0.2-0.1-0.4-0.1-0.5
	c0,0,0.1,0,0.3,0.1c0.5,0.3,1,0.3,1.2,0.1c0.1-0.1,0.3-0.3,0.2-0.7c-0.1-0.2-0.1-0.4-0.2-0.5c-0.1-0.1-0.1-0.2-0.1-0.3
	c0,0,0.1-0.1,0.6-0.1C73.9,102.7,74.2,102.7,74.4,101.7 M71,103.2c-0.1,0-0.1,0-0.2,0c0.1,0,0.1-0.1,0.2-0.1
	C70.9,103.1,71,103.1,71,103.2"/>
<path class="st0" d="M186.5,100.5c-0.3-0.1-0.5-0.2-0.7-0.4c-0.3-0.3-0.6-0.5-1.5-0.5c-0.4,0-0.7,0.1-0.8,0.4
	c-0.3,0.4-0.2,1.1,0.4,2.2c0.1,0.3,0.2,0.4,0.2,0.6c-0.6-0.2-1.1-0.3-1.7-0.6c-0.4-0.2-0.7-0.2-1,0c-0.6,0.4-0.7,1.8-0.7,3.2
	c-1.5,0.1-2.8,1.2-3.7,2c0-0.6-0.1-1.2-0.4-1.6c-0.2-0.2-0.6-0.3-1.1-0.3c-0.5,0-1.1,0.2-1.8,0.6c0-0.3,0-0.7-0.1-0.9
	c-0.1-0.2-0.3-0.4-0.6-0.5c-0.4-0.1-1.1-0.1-1.6,0.4c-0.2,0.2-0.3,0.5-0.2,0.8c0.1,0.5,0.7,1.1,1.3,1.3c-0.1,0.1-0.1,0.2-0.2,0.3
	c-0.3,0.4-0.4,0.8-0.3,1.2c0.2,0.7,1.2,1.2,2.3,1.6c-1.3,1.3-2.9,2.4-4.6,1.9c-0.3-0.3-2-2.1-5.4-1.3l-0.4,0.1
	c-3.3,0.8-6,1.4-7.3,4.7c-0.4,1-0.8,1.5-1.1,1.9c-0.8,1-1.4,1.8-2,8c-0.5,0.2-3,1-4.6,1.9c-0.3,0.1-0.7,0.2-1.1,0.2
	c-0.8,0.1-1.8,0.1-3,1.5c-0.7,0.5-1.1,0.5-1.5,0.4c-0.4-0.1-0.9-0.2-1.6,0.4c-0.5,0.3-0.9,0.3-1.2,0.3c0.2-0.5,0.9-2,2.2-2.3
	c1.3-0.3,4.5-1.3,5.8-3c0,0,0,0,0,0c0.5-1,1.2-1.5,1.7-1.9c0.7-0.5,1.3-1,0.9-2c-0.3-0.7,0-1.5,0.3-2.3c0.3-0.8,0.5-1.5,0.1-2
	c0.6-0.2,1.8-0.6,2.1-1.2c0.1-0.2,0.1-0.4,0.1-0.6c-0.1-0.3,0-0.8,0.1-1.3c0.2-0.8,0.4-1.7,0-2.2c-0.2-0.2-0.5-0.4-0.9-0.4
	c-0.1-0.2-0.4-0.8-1-0.9c-0.5-0.1-1,0.1-1.5,0.6c-0.3-0.1-1-0.3-1.5,0c-0.3,0.2-0.5,0.6-0.5,1.2l-1,1.6c-0.4-0.1-1.6-0.2-3.7,1.2
	l-0.9,0.5c-2.1,1.3-3.8,2.4-4.4,4.9c-0.3,1.3-0.5,2-0.6,2.3c-0.1-0.1-0.3-0.2-0.5-0.3c-0.5-0.3-1.1-0.5-1.6-0.8
	c-1-0.4-1.8-0.8-2.3-1.5c-1.1-1.5-2.7-1.6-4.6-0.3c-2.3,1.4-4,1.2-6.4,0.2c-0.4-0.2-0.9-0.3-1.4-0.5c-2.6-1-6.1-2.3-7.4-4.1
	c-0.2-0.3-0.5-0.7-0.7-1c-1.1-1.7-2-3-4.3-3.1c-0.2-0.1-1.7-0.7-3.4,0.6c0,0,0,0,0,0c0,0-0.1,0.1-0.2,0.1c-0.1,0-0.2,0-0.3-0.2
	c-0.6-0.6-1-0.7-2.2,0.1c-0.1,0.1-2,1.5-2.7,2.9c-0.1-0.1-0.2-0.1-0.2-0.2c-0.9-2-1.8-3.2-2.8-3.5c-0.8-0.2-1.5-1-2.2-1.8
	c-0.4-0.5-0.8-1-1.3-1.4c-0.4-0.4-0.8-0.5-1.2-0.5c-0.7,0.1-1.3,0.8-1.9,1.6l-0.2,0.2c-0.7,0.8-1.8,1.7-2.8,2.5
	c-0.4,0.3-0.8,0.6-1.1,0.9c0,0-0.1,0-0.1,0.1c-0.5-0.3-0.8-0.6-0.9-0.9c-0.5-1.4-1.7-3-2.3-3.8c0.2-0.9,0.1-1.8-0.5-2.5
	c0.7,0,1.2-0.4,1.7-1.3c0.2-0.4,0.2-0.8,0.1-1c-0.3-0.5-1-0.7-2.3-0.8c-1,0-2,0.8-2.5,1.4c-0.6,0-1.3,0.1-2.2,0.4
	c0.1-0.5,0-0.9-0.4-1.2c-1.5-1.2-3.8,1-4.9,2.1c-0.8,0.8-0.9,1.7-0.8,2.2h0c-0.1,0-0.1,0-0.2,0.1c0,0-0.2,0-0.3-0.1
	c-0.3-0.1-0.8-0.2-1.3-0.2c-0.2-0.9-0.8-2.6-2.1-2.5c-0.2,0-0.3,0-0.5,0.1c0-0.1,0-0.2,0-0.4c0-0.4-0.2-0.8-0.5-1.1
	c-0.3-0.3-0.7-0.4-1.1-0.4c-0.9,0-1.5,0.7-1.5,1.5c0,0.4,0.2,0.8,0.5,1.1c0.1,0.1,0.2,0.2,0.3,0.2c-0.3,0.2-0.6,0.5-0.7,0.8
	c-0.1,0.3-0.1,0.8,0.4,1.3c0.4,0.4,1,0.9,1.6,1.4c-0.2,0.4-0.3,0.9-0.4,1.5c0,0,0,0,0,0.1c-0.3,0.1-0.8,0.4-0.8,0.9
	c0,0.4,0.4,0.8,0.7,1c0,0.7,0,1.5,0.1,2.2c-0.2,0.3-0.4,0.7-0.1,0.9c0.1,0.1,0.3,0.2,0.5,0.3c0.1,0.1,0.2,0.2,0.2,0.3
	c0.3,0.3,0.6,0.7,0.9,1c0.1,0.1,0.1,0.2,0.2,0.2c-0.1,0.5-0.2,1.2,0.3,1.3c0.3,0.1,0.7,0.1,1.1,0c0.3,0.2,0.6,0.4,0.9,0.6
	c0.4,0.2,0.8,0.5,1.2,0.8c0,0.5,0,1.2,0.5,1.1c0.3-0.1,0.6-0.1,0.8-0.1c1.1,0.9,2,1.7,2,1.9c-0.4,0.5-1.8,2-2.4,2
	c-0.3,0-0.5,0.1-0.6,0.4c-0.3,0.5-0.3,1.2,0,2.1c-0.3,0.3-1.2,1.1-0.9,1.8c0.1,0.2,0.3,0.4,0.5,0.6c0.2,0.2,0.5,0.5,0.5,0.7
	c0,0.1-0.2,0.2-0.4,0.3c-0.8,0.3-1.8,0.8-2,1.7c-0.2,0.7,0.1,1.4,0.8,2.2c0,0,0,0.1,0.1,0.1l-0.4,0.5c0,0-1.4,0.3-0.9,1.4
	c0.5,1.1,2.2,1.1,1.9-0.5l0.4-0.4c0.8,0.5,1.6,0.7,2.3,0.5c0.7-0.3,1.2-0.9,1.3-1.9c0.8,0.3,3.5,1.4,6.2,1.2
	c0.3,0.3,0.8,0.6,1.3,0.4c0.4-0.1,0.6-0.4,0.7-0.7c0.6,0,2,0.1,3.2,0c0.2,0.2,0.5,0.5,1,0.5c0.5,0,0.6-0.4,0.6-0.7
	c0.3-0.1,0.5-0.2,0.7-0.3c0.5-0.3,1.8-0.5,3.8-0.5c0.1,0.1,0.1,0.2,0.2,0.3c0.6,1,1,1.4,1.1,1.6c0.1,0.1,0.1,0.1,0.1,0.3
	c-0.1,0.3-0.1,0.6,0.1,0.9c0.2,0.2,0.5,0.4,1.1,0.5h0c1.1,0.1,1.8,0.2,2.3,1l0.1,0.1c0.3,0.4,0.4,0.7,0.8,0.8
	c0.3,0.1,0.7-0.1,1.4-0.5c1.2-0.7,2.3-0.1,2.5,0.1c0.1,0.2,0.7,1,1.3,1c0.4,0,0.7-0.4,0.9-1.1c0.3-0.2,0.7-0.2,1-0.2
	c0.6,0,1.3,0,2.5-0.7c0,0,2.5-1.6,4-2.4c0.2,0.4,0.3,0.8,0.4,1.3c0.2,1.3-5.2,3.8-3.1,7.1c0.3,0.4,0.5,0.3,0.5,0.3s-0.4-1.1,0.3-1.9
	c0.6-0.6,3.5,0.2,5-1.6c0.5,1.9,2.5,2.1,2.5,2.1c0.1,0,0.2-0.1,0.2-0.1l0.7-4.9c0.3,0.6,0.7,1.1,1.1,1.4c0.6,0.3,1.2,0.2,1.4,0.2
	c1.5,2.4,3.5,1.8,3.8,1.7c0.9,0,1.4-0.2,1.5-0.5c0-0.1,0.2-0.6-1.4-1.5c-0.2-0.1-0.2-0.2-0.2-0.2c0-0.1,0.1-0.1,0.3-0.2
	c0.6-0.1,1.9,0.3,3,2.4c1.5,2.9,4.5,2,4.6,2c0.1,0,0.1-0.1,0.1-0.1c0-0.1,0-0.1-0.1-0.2c-0.7-0.2-0.9-1-1-1.5c1.8,1.4,3.4,2,4.9,1.8
	c1.7-0.2,2.5-1.3,2.5-1.4c0,0,0-0.1,0-0.2c0-0.1-0.1-0.1-0.2-0.1c-1.9,0.5-2.7-0.2-3.6-1.3c0.8-0.1,2.1-0.8,3.8-2.9
	c0.4-0.1,2.8-0.8,5.3,0c0.2,0.1,0.5,0.2,0.8,0.3c3,1,9.3,3.1,13.5-0.2c2.8-2.2,3.5-3.6,3.6-4.4c0-0.2,0-0.3,0-0.5
	c0.5,0.1,0.9,0.1,0.9,0.1c0,0,0.1,0,0.1,0c0.9,0.2,2.2,0.4,3.2,0.8c0.2,0.1,0.5,0.2,0.8,0.3c-0.2,0.3-0.7,1.1-0.1,1.4
	c0.8,0.4,2.8-0.8,2.8,0.3c0,1.1,1,1,2.6,0.3c0,0,0.8-0.2,0.9,0.3c0.1,0.4,0.5,0.9,1.1,0.8c0.3,0,0.7-0.5,1.2-1
	c0.6,0,1.1-0.1,1.6-0.2c0.6,0.4,1,0.5,1.4,0.2c0.2-0.2,0.3-0.5,0.4-0.8c0.7-0.4,1.3-0.9,1.6-1.6c0.5-0.9,0.4-1.9,0.3-2.5
	c0.2-0.2,0.5-0.6,0.6-1.2c0.1-0.8-0.7-0.7-1.3-1.5c-0.2-0.4-0.5-0.8-0.9-1.2c-0.1-0.2-0.2-0.5-0.3-1c-0.1-1.2-1.3-1.6-1.5-0.3
	c-3-1.4-7-1.3-9.7-0.6c-0.8,0.2-1.6,0.4-2.3,0.6c-2.4,0.7-4.6,1.4-5.7,0.3c0.1-0.4,0.8-2.1,4.1-3.3c2.4-0.9,8.1-3.2,9.1-6.7
	c1.1,0.1,9.3,0.4,11.3-2.4c1.8-2.5,3.3-4.7,1.6-6.8c0.8-0.6,1.4-1.3,1.9-2c0.3-0.5,0.4-0.9,0.3-1.2c-0.1-0.4-0.5-0.6-0.9-0.8
	c0.1-0.2,0.5-0.5,1.3-0.7c0.7-0.2,0.8-0.5,0.8-0.7C187.8,101.3,187.1,100.7,186.5,100.5 M81.8,103.6c0.8,0,1.2,0.1,1.3,0.2
	c-0.4,0.8-0.6,0.9-1.4,0.5c-0.3-0.1-0.5-0.2-0.8-0.4C81.3,103.7,81.6,103.5,81.8,103.6 M172.6,106c-0.1-0.1-0.2-0.2-0.3-0.3
	c0.1,0,0.2-0.1,0.3-0.1C172.6,105.8,172.6,105.9,172.6,106 M178.2,130.8c0,0.1,0,0.3,0.1,0.4c0,0,0.4,1.2-0.1,2.2
	c-0.3,0.6-1,1.1-2,1.4c-3.3,1-7.6-0.8-9.9-1.7c-0.3-0.1-0.6-0.3-0.9-0.4c-2.1-0.8-4.7-1-4.8-1c-0.1,0-0.2,0-0.3,0
	c-1.6-0.4-1.8-0.8-1.8-2c0-0.9,0.6-1.3,1.1-1.5c1.4,0.1,3.1-0.4,4.8-0.9c0.7-0.2,1.5-0.4,2.2-0.6c2.7-0.6,6.8-0.8,9.5,0.8
	C178.3,128.8,178.2,130.7,178.2,130.8 M159.6,133.1c0,0.1,0,1.3-3.1,3.7c-3.7,2.9-9.4,1-12.5,0l-0.1,0c-0.3-0.1-0.6-0.2-0.8-0.3
	c-2.6-0.8-5.1-0.2-5.8-0.1c0-0.7,0.1-1.9-0.1-2.6c-0.2-0.8,0.6-1.5,1.1-1.9c1-0.1,1.7-0.3,2.2-0.5c0.3,0,1,0,1.7-0.3
	c-0.2,0.5-0.7,1.4-0.2,1.5c0.6,0.2,2.1,0.5,1.6-1.8c0.5,0.1,1.2,0,2.1-0.6c0.1,0,0.1-0.1,0.2-0.1c0.9-1.1,1.5-1.1,2.2-1.2
	c0.4,0,0.9-0.1,1.5-0.3c0,0,0.1,0,0.1,0c1.7-1,4.4-1.8,4.4-1.8c0,0,0,0,0.1,0c0.7,0.4,2.1,1,3.4,0.4c0,0,0,0,0,0
	c0.2,0.2,0.5,0.4,0.7,0.6c-0.5,0.5-0.8,1.1-0.9,2c-0.1,0.6,0.1,1.2,0.5,1.7c0.4,0.5,1,0.8,1.7,1.1
	C159.4,132.7,159.5,132.9,159.6,133.1 M129.4,140.4c-0.3,0.2-0.5,0.5-0.5,0.9c0,0.3,0.1,0.7,0.2,1c-0.7-0.2-1.2-0.7-1.6-1.4
	c-1.3-2.4-3-3.1-4.2-2.9c-0.2,0-0.4,0.1-0.6,0.2c0.2-0.3,0.3-0.6,0.3-1.1c0.5,0.1,2.2,0.2,3-0.6c0.1,0.1,0.2,0.1,0.3,0.2
	c0.1,0,0.2,0.1,0.3,0.1c1,0.5,4,2.2,5.2,3.4c0.3,0.3,0.5,0.6,0.8,0.8c0.4,0.5,0.8,0.9,1.3,1.3c-1.1-0.1-2.2-0.7-3.5-1.8
	C130.1,140.3,129.8,140.3,129.4,140.4 M112.7,140.6C112.7,140.6,112.7,140.6,112.7,140.6C112.7,140.6,112.7,140.6,112.7,140.6
	 M112.8,140.3C112.8,140.3,112.8,140.3,112.8,140.3C112.8,140.3,112.8,140.3,112.8,140.3 M114.5,140.7c0-0.1-0.1-0.3-0.1-0.4
	c0.2-0.9,0.6-2.5,0.5-3.3c0-0.4-0.2-0.6-0.4-0.7c-0.4-0.2-0.7,0.2-0.7,0.2c0,0,0.6,3.9-1.8,4.7c-0.7,0.3-1.6,0.3-2.3,0.4
	c-0.5,0.1-1.1,0.4-1.1,0.4c0.3-1.9,3.5-2.5,3.5-4.6c0-1.7-1.6-3.2-1.9-3.5c-0.1-0.1-2.1-2.2-2.5-4.4c0,0,0.1-0.1,0.1-0.1
	c0-0.2-0.1-0.4-0.1-0.5c0-0.2,0-0.5,0.1-0.7c0.5-2.2,2.1-4.6,4.9-4c0.1,0.1,0.9,0.2,1.4,0.8c0.3,0.4,0.5,0.9,0.5,1.1
	c0.1,1.1-1.4,1.4-1.5,1.4c0,0,0-2.2-1.2-2.2c-1,0-2.1,1-2.3,2c-0.3,1.2,0.3,2.1,1.6,2.6c0.4,0.2,0.8,0.3,1.2,0.5
	c0.6,0.3,1.2,0.5,1.7,0.7c-0.1,0-0.1,0-0.2,0c-0.1,0-0.1,0-0.2,0.1c0,0-0.1,0.3,0.1,0.5c0.3,0.4,0.8,0.6,1.8,0.8
	c1.9,0.3,3.9,0.8,3.9,2.7c0,1.5-0.8,2.2-1.2,2.4c-0.2-0.7-1-2.8-3.7-3.8c-3.3-1.2-4.5-2.3-5-4.6c0-0.1,0-0.1-0.1-0.1
	c-0.1,0-0.6-0.3-0.9,0c-0.2,0.2-0.2,0.4-0.2,0.8c0,0.1,0.6,2.6,3,3.7c0.4,0.2,0.9,0.4,1.3,0.6c1.6,0.7,3.2,1.4,3.9,2.7
	c-0.3,0.1-0.5,0.4-0.5,0.7l-0.6,4.5C114.8,141.6,114.5,141.2,114.5,140.7 M101.8,139c0-0.1-0.1-0.1-0.1-0.2
	c-0.1-0.1-0.2-0.2-0.3-0.3c-0.1-0.1-1.9-1.3-3.8-0.1c-0.2,0.2-0.4,0.3-0.5,0.3c0-0.1-0.1-0.1-0.1-0.2l-0.1-0.1
	c-0.8-1.2-2-1.4-3.1-1.6c0,0,0,0,0,0c-0.1,0-0.1,0-0.2,0c0.1-0.5,0.1-0.8-0.3-1.3c-0.1-0.1-0.4-0.5-1-1.4c-0.9-1.5,0.5-3.9,1-4.7
	c0.4-0.7,3.2-2.4,5.7-2.4c2.1,0,5.7,1.3,7.3,1.9c0.2,2.8,2.7,5.4,2.8,5.6c0,0,0.2,0.2,0.5,0.5c-1.4,0.8-3.6,2.2-3.9,2.4
	c-1,0.5-1.5,0.5-2,0.5c-0.5,0-1,0-1.6,0.4C102,138.5,101.9,138.7,101.8,139C101.8,139,101.8,139,101.8,139 M81.2,134.4
	c-3,0.9-7.2-1-7.3-1c-0.3-0.1-0.6-0.1-0.9,0.1c-0.3,0.2-0.4,0.5-0.5,0.8c0,0.3-0.1,0.9-0.5,1.1c-0.5,0.2-1.3-0.1-2.1-1.1
	c-0.4-0.5-0.6-1-0.6-1.2c0.1-0.2,0.3-0.5,1.4-0.9c0.6-0.2,1-0.6,1.1-1.1c0.2-0.8-0.4-1.3-0.7-1.7c-0.1-0.1-0.1-0.2-0.2-0.2
	c0.1-0.2,0.3-0.4,0.6-0.6c0.3-0.3,0.4-0.7,0.3-1.1c-0.2-0.5-0.2-0.8-0.2-1c1.4-0.3,3.1-2.4,3.1-2.4c0.2-0.3,0.2-0.6,0.2-0.9
	c-0.3-1.5-5-4.4-5-4.4c-1-0.6-1.6-1.3-2.2-2c-0.3-0.4-0.6-0.7-1-1.1c-0.4-0.4-0.6-2.7-0.3-4.8c0.1-1.1,0.5-1.8,1.1-2.2
	c0.9-0.6,2.3-0.3,2.9-0.1c0.3,0.1,0.5,0.1,0.8,0.1c0.1,0,0.2,0,0.3-0.1c0.2-0.1,0.3-0.1,0.4-0.1c0,0,0,0,0,0
	c0.2,0.3,0.2,0.4,0.3,0.6c0.1,0.2,0.1,0.4,0.4,0.8c0.2,0.5,0.9,1.3,1.6,2.3c0.5,0.7,1.1,1.4,1.4,1.9c0.5,0.8,1.5,2.6,2.7,5.3
	c0.2,0.4,0,2-0.3,3.4c0,0.2,0,0.4,0,0.5c-0.2,0.6-0.4,1.5-0.1,1.6c0.4,0.3,0.9,0.1,1.4-1.1c0.2-0.1,0.3-0.2,0.4-0.3v0
	c0,0,0.3-0.3,2.6,0.2l0.1,0c0.9,0.2,2.4,0.8,2.9,1.3c0.2,0.2,0.6,0.6,1,1c1,1,2.4,2.4,3.3,3.1c0.7,0.5,1.5,0.8,2.1,1
	c-0.5,0.9-0.9,2.1-0.8,3.3c-2.1,0.1-3.5,0.3-4.2,0.7c-0.6,0.4-3.1,0.5-5.1,0.4C81.5,134.4,81.3,134.4,81.2,134.4 M68.1,107
	c-0.5,0.1-0.9,0.2-1.3,0.5c-0.2,0.1-0.4,0.3-0.6,0.5c-0.5-0.5-1-0.9-1.4-1.3c0,0-0.1-0.1-0.1-0.1c0.2-0.4,1.5-1,2.5-1.1
	C67.5,105.6,67.9,106.2,68.1,107 M72.7,105.8c2.3-2.2,3.1-2.2,3.4-2c0.1,0.1,0,0.5-0.8,1.7c-0.4,0.7-0.8,1.4-0.8,2.1
	c-0.6,0.2-1.1,0.4-1.4,0.6c-0.1-0.2-0.2-0.3-0.4-0.6c-0.1-0.2-0.3-0.3-0.5-0.4C72.2,106.9,72.2,106.4,72.7,105.8 M91,110l0.2-0.2
	c0.3-0.5,0.9-1.2,1.2-1.2c0,0,0.2,0.1,0.3,0.2c0.4,0.4,0.8,0.8,1.2,1.3c0.8,0.9,1.6,1.9,2.7,2.2c0.2,0,1,0.4,2.1,2.8
	c0.2,0.4,0.5,0.8,1,0.9c0,0.3,0.2,0.6,0.5,0.8c1.2,1,2.3,1.1,3.3,1.2c0.7,0.1,1.4,0.2,1.9,0.7c1.4,1.4,2.7,2.3,3.9,2.8
	c0.5,0.2,1.2,0.7,1.9,1.3c-2.2,0.2-4,2.1-4.7,5c0,0,0,0.1,0,0.1c-0.8-0.3-1.9-0.7-3.1-1c0.1-0.2-0.1-0.6-0.3-1.1
	c-0.3-0.9-1.6-1.9-1.3-1c0,0,0.1,0.5,0.1,1c0,0.2,0,0.5,0.1,0.7c-0.9-0.2-1.7-0.4-2.5-0.4c0-0.2-0.1-0.4-0.3-0.7
	c-0.5-0.7-0.6-0.5-0.7-0.2c0,0-0.2,0.5,0,0.9c-1.1,0.1-2.2,0.4-3.2,0.9c0.1-0.3,0-0.8-0.1-1.2c-0.1-0.6-0.2-1.2-0.5-0.8
	c0,0-0.5,0.6-0.5,1.3c0.1,0.5,0.2,0.8,0.4,0.9c-1.2,0.6-2.1,1.3-2.4,1.8c0,0,0,0.1-0.1,0.1c-0.5-0.1-1.3-0.3-2-0.9
	c-0.7-0.5-1.6-1.4-2.4-2.2c0.1-0.5,0.3-1.5,0.1-1.8c-0.3-0.3-0.7,0.1-1,0.8c-0.4-0.4-0.8-0.8-1-0.9c-0.1-0.1-0.3-0.3-0.5-0.4
	c0-0.4,0-1.1-0.2-1.2c-0.3-0.1-0.5,0.4-0.6,0.8c-0.7-0.3-1.5-0.6-2.1-0.7l-0.1,0c-0.1,0-0.2,0-0.3-0.1c0.2-0.5,0.3-1.1,0.1-1.1
	c-0.3,0-0.7,0.5-1.1,0.9c-0.8-0.1-1.6-0.1-2.1,0.2c0.1-0.7,0.4-2,0.3-2.9l0.1-0.1c1.5-1.2,6.5-5,7.5-5.9c0.3-0.2,0.7-0.5,1.1-0.8
	C89.1,111.9,90.3,111,91,110 M101,115.4c0,0,0.1-0.1,0.1-0.1v-0.1c0.4-0.8,1.4-1.7,2.2-2.3c0.3-0.2,0.5-0.3,0.6-0.3
	c0,0,0.1,0.1,0.1,0.1c0.5,0.5,0.9,0.5,1.2,0.5c0.3,0,0.6-0.2,0.8-0.4c1.2-0.8,2.2-0.4,2.2-0.4c0.1,0,0.3,0.1,0.4,0.1
	c1.8,0,2.4,0.9,3.4,2.6c0.2,0.3,0.4,0.7,0.7,1c1.1,1.6,3.7,2.8,6,3.8c0,0,0,0-0.1,0.1c0,0-0.4,0.3,0,0.8c0.4,0.5,1.5,1.9,1.6,1.6
	c0.2-0.3-0.2-1.5-0.4-2c0.2,0.1,0.5,0.2,0.7,0.3c0.5,0.2,1,0.4,1.4,0.5c2.7,1.1,4.8,1.4,7.4-0.3c1.9-1.2,2.7-0.7,3.2,0
	c0.7,0.9,1.7,1.3,2.7,1.8c0.5,0.2,1,0.4,1.5,0.7c0.5,0.3,0.6,0.5,0.6,0.6v0v0c0,0,0,0.1,0,0.1c0,0-0.5,1.8-1.2,4.2
	c-0.4,1.3-1.2,1.4-1.5,1.4c-4.2-1.7-6.9,0.3-8.6,1.7c-0.7,0.5-1.3,1-1.7,1c-0.4,0-0.6-0.1-0.9-0.3c-0.1-0.1-0.1-0.2-0.2-0.3
	c-0.1-0.2-0.3-0.4-0.5-0.6c-0.1-0.2-0.2-0.4-0.3-0.6c-0.3-0.6-0.6-1.2-1.1-1.9c-1.1-1.6-4.8-3.6-6.8-4.7c-0.4-0.4-0.9-0.8-1.5-1
	c-0.8-0.7-2.2-2-3.3-2.5c-1-0.4-2.2-1.3-3.5-2.6c-0.5-0.4-1-0.7-1.5-0.8c-0.1-0.6-0.3-1.6-0.6-1.6c-0.4,0-0.7,0.9-0.8,1.4
	c-0.7-0.1-1.5-0.3-2.3-0.9c-0.1-0.1-0.1-0.1-0.1-0.2C100.8,115.6,100.9,115.5,101,115.4L101,115.4z M147.1,114.8
	C147.1,114.8,147.1,114.8,147.1,114.8c0.1,0,0.1,0,0.2,0.1c-0.1,0.3-0.3,0.9,0.4,0.9c0.9,0,1.6-0.6,0.8-1.6c0.3-0.5,0.9-1.5,0.9-1.5
	c0.1-0.2,0.2-0.4,0.1-0.6c0-0.1,0-0.2,0-0.3c0.1,0,0.3,0,0.5,0.1c0.4,0.1,0.8,0.1,1-0.2c0.3-0.3,0.5-0.4,0.6-0.4
	c0,0,0.2,0.2,0.3,0.4c0.1,0.4,0.5,0.6,0.9,0.6c0,0,0.1,0,0.1,0c0,0.1,0,0.5-0.2,1.2c-0.1,0.5-0.2,1.1-0.2,1.6
	c-0.2,0.2-0.9,0.5-1.7,0.7c-0.4,0.1-0.7,0.4-0.7,0.8c-0.1,0.4,0.1,0.7,0.4,0.9c0,0.2-0.2,0.7-0.3,0.9c-0.3,0.9-0.7,2-0.3,3.1
	c0.1,0.2,0.1,0.2-0.5,0.6c-0.6,0.4-1.4,1.1-2,2.2c-0.8,1-2.7,1.9-5.1,2.6c-2.2,0.6-3,3.2-3.1,3.3c-0.1,0.2-0.1,0.4,0,0.6
	c-0.9,0.3-3.1,0.8-3.6-0.5c0.5-0.3,1.1-0.9,1.4-1.9c0.6-2.3,1.1-4,1.2-4.1c0-0.1,0.1-0.3,0.1-0.6c0.3-0.5,0.6-1.3,1-3.2
	c0.4-2.1,1.8-2.9,3.9-4.2l0.9-0.6C146.2,114.6,147.1,114.8,147.1,114.8 M115.3,125.8c0-0.1,0-0.1,0-0.2c1.9,1.1,4.4,2.6,5.1,3.7
	c0,0,0,0,0,0c-0.6-0.2-1.4-0.2-2.4,0.1c-2.9,0.9-3.9,0.5-5.6-0.2c-0.4-0.1-0.8-0.3-1.2-0.5c-0.7-0.3-1-0.7-0.9-1.3
	c0.2-0.7,0.9-1.2,1.1-1.2c0,0,0.7,0.3,0.4,1.6c-0.1,0.5,1.7,0.5,2.5,0C114.9,127.5,115.4,126.8,115.3,125.8 M76.4,113.3
	c-0.4-0.5-0.9-1.3-1.4-2c-0.6-0.8-1.2-1.6-1.5-2c2.2-1,4.4-1.5,5-1.2l0,0c0.7,0.4,1.2,0.7,1.3,1.1c0,0.4-0.2,1.6-3.3,4.3
	C76.5,113.4,76.5,113.3,76.4,113.3 M118.4,130.5c1.8-0.5,2.6,0.1,3.4,1.2c0.2,0.4,0.5,0.8,0.8,1.1c0.6,0.9,1.3,1.7,2.5,1.9
	c0.6,0.1,0.8,0.2,0.9,0.2c0,0,0,0.1-0.1,0.3c0,0.1,0,0.1,0,0.1c0,0,0,0.1,0,0.2c-0.6,0.4-2,0.9-4,0.2c0,0-0.1,0-0.1,0
	c0,0-0.4,0.3-0.2,1.2c0.1,0.2,0.1,0.4,0,0.5c-0.1,0.2-0.6,0.3-1.1,0.3c-0.2,0-0.4,0-0.6,0.1c0.5-0.6,0.8-1.4,0.8-2.7
	c0-2.7-1.7-3.7-4.4-4C116.7,131,117.4,130.8,118.4,130.5 M79,118.3c-0.6-1.3-1.3-2.8-1.9-3.9c1.3-1.1,2.2-2.1,2.9-3
	c0.5,0,1.7,0,2.3-1.2c0.1-0.2,0.2-0.5,0.3-0.8c0.6,0.8,1.3,1.8,1.6,2.8c0.2,0.5,0.5,0.9,1,1.3C83.5,114.9,80.3,117.4,79,118.3
	 M81.2,109.8c-0.1,0.3-0.4,0.5-0.6,0.5c0.2-0.5,0.3-0.9,0.2-1.2c-0.1-1-1.1-1.6-1.8-2l0,0c-0.8-0.4-2.1-0.2-3.3,0.2
	c0.1-0.3,0.4-0.7,0.6-1.1c0.1-0.2,0.2-0.3,0.3-0.5c0.2-0.1,0.3-0.1,0.5-0.2c2.7-1,3.3-0.4,4.5,0.7C82.2,106.8,82.1,107.9,81.2,109.8
	 M122.1,138.8c0,0.1-0.1,0.1-0.1,0.2c0,0.2-0.1,0.9,0.7,1.4c0,0,0,0,0.1,0c-0.3,0.1-1.4,0.3-2.4-1.3
	C120.9,139.2,121.5,139.2,122.1,138.8 M133.2,139.5L133.2,139.5C133.1,139.5,133.1,139.5,133.2,139.5c-0.1,0-0.3-0.1-0.6-0.1
	c-0.7-0.7-1.9-1.5-3-2.2c0-0.3,0.1-0.7-0.1-1c-0.2-0.4-1,0-1.4,0.1c-0.6-0.3-1.1-0.6-1.2-0.7c0,0,0,0,0-0.1c0,0,0-0.1,0-0.1
	c0.1-0.3,0.2-0.8,0-1.2c-0.3-0.4-0.8-0.6-1.7-0.8c-0.2,0-0.3-0.1-0.5-0.1c0.6-0.2,1.3-0.6,2-1.2c1.8-1.4,3.9-3.1,7.6-1.5
	c0,0,0,0,0,0c0,0,0.2,0,0.5,0c0.2,0.5,0.7,1.2,2,1.4c-0.6,0.7-0.7,1.3-0.6,2.3c0.1,0.7,0.1,2,0.1,2.7
	C134.4,139.7,133.2,139.5,133.2,139.5 M157.3,126c-0.6,0.1-1.8,0.2-2.7-0.3c0.5-5.8,1.1-6.5,1.7-7.4c0.4-0.5,0.8-1,1.3-2.2
	c1.1-2.7,3.2-3.3,6.5-4l0.4-0.1c2.3-0.5,3.5,0.3,4,0.7c-0.3,0.6-0.8,1.6-0.5,2.6c0.3,0.7,0.9,1.3,2,1.6c-1.1,1.8-4,3.7-8,5.1
	C158.5,123.4,157.6,125.2,157.3,126 M170.6,116c-0.8-0.2-1.3-0.5-1.4-1c-0.2-0.6,0.2-1.3,0.4-1.6c3,0.7,5.5-2.2,7.2-4.1
	c0.4-0.4,0.7-0.8,0.9-1c1.7-1.6,3.2-2.7,5.2-1.1c2,1.6,1.4,2.9-0.9,6.2c-1.2,1.7-6.8,2.1-10.4,1.9
	C171.1,115.3,170.7,115.6,170.6,116 M173.1,108.1c1-1.4,2.3-1.6,2.7-1.6c0.1,0.2,0.1,0.9,0,1.5c0,0.2,0,0.3,0,0.5
	c-0.2,0.3-0.5,0.5-0.7,0.8c-1.6-0.5-2-0.9-2.1-1C173,108.3,173.1,108.3,173.1,108.1 M183.5,106.4c-0.6-0.5-1.1-0.8-1.7-0.9
	c0-1.1,0-1.9,0.2-2.3c0.6,0.2,1.1,0.4,1.7,0.6c0.4,0.1,1.5,0.5,1.7,0.7c0,0-0.1,0.1-0.1,0.2C184.9,105.3,184.4,105.8,183.5,106.4
	C183.6,106.4,183.6,106.4,183.5,106.4 M184.9,101.6c-0.2-0.5-0.3-0.8-0.4-1c0.3,0,0.4,0.1,0.6,0.3c0.2,0.2,0.5,0.5,1.1,0.6
	c0,0,0,0,0.1,0c-0.5,0.1-0.8,0.3-1.1,0.6C185,101.9,184.9,101.7,184.9,101.6 M64.8,103.9c0.1-0.1,0.2-0.1,0.3-0.1
	c0.1,0,0.2,0,0.3,0.1c0.1,0.1,0.1,0.2,0.1,0.3c0,0.2-0.2,0.4-0.4,0.4c-0.1,0-0.2,0-0.3-0.1c-0.1-0.1-0.1-0.2-0.1-0.3
	C64.7,104.1,64.8,104,64.8,103.9"/>
<path class="st0" d="M87.2,114.5c-0.6,0.2-1.7,1.7-0.9,1.8c0,0,1.5-0.8,1.7-1.3C88.2,114.6,87.8,114.4,87.2,114.5"/>
<path class="st0" d="M88.4,116.8c0.6,0.2,1-0.3,1.3-0.9c0.4-0.6,0-1.4-0.5-0.8C89.2,115.1,87.8,116.6,88.4,116.8"/>
<path class="st0" d="M91,117.7c0.4-0.6,0.8-1.4,0.6-2c-0.1-0.6-0.5-0.3-0.5-0.3s-1.2,1.3-1.1,1.8C90.1,117.7,90.5,118.3,91,117.7"/>
<path class="st0" d="M94,118.3c0.6-0.2,0.4-0.9,0.2-1.6c-0.2-0.7-0.3-1.2-0.6-0.9c0,0-0.4,0.5-0.4,1.2
	C93.2,117.7,93.4,118.5,94,118.3"/>
<path class="st0" d="M110.5,32c0,0-0.7,0.2-0.6,1.1c0.1,0.8,0.3,1.4,1.4,1.2c1.1-0.1,0.3-2.1,0.1-2.3C111.3,31.7,110.5,32,110.5,32
	 M110.9,33.5c0,0-0.1-0.2-0.1-0.6c0-0.2,0-0.2,0-0.2c0.1,0,0.1,0,0.2,0c0.1,0.3,0.2,0.6,0.2,0.8C111,33.5,110.9,33.5,110.9,33.5"/>
<path class="st0" d="M110.5,34.7c0,0-0.4,0.3-0.3,0.9c0.1,0.6,0,1.2,0.9,1.2c0.9,0,1-0.7,0.9-1.4C111.9,34.7,111,34.4,110.5,34.7
	 M111.2,36c0,0-0.1,0-0.2,0H111c0-0.1,0-0.2,0-0.2c0-0.1,0-0.2,0-0.2c0-0.1,0-0.2,0-0.2c0,0,0.1,0,0.1,0c0.1,0,0.1,0.1,0.1,0.1
	C111.2,35.9,111.2,36,111.2,36"/>
<path class="st0" d="M110.5,37.3c0,0-1,1.2-0.3,1.5c0.7,0.4,1.3,0.5,1.6-0.5C112.1,37.3,111.4,36.6,110.5,37.3 M111,38.1
	c0,0.1-0.1,0.2-0.1,0.2c0,0-0.1,0-0.1-0.1c0.1-0.1,0.1-0.2,0.2-0.3c0,0,0,0,0,0C111.1,37.9,111.1,38,111,38.1"/>
<path class="st0" d="M112.2,30.8c0,0-0.6,0.1-0.5,0.8c0.2,0.7,0.5,1.7,1.4,1.4c0.9-0.3,0.7-1,0.4-1.9
	C113.2,30.3,112.7,30.6,112.2,30.8 M112.9,32.3C112.9,32.3,112.9,32.3,112.9,32.3c-0.1,0-0.2-0.2-0.3-0.8l0.1-0.1c0,0,0.1,0,0.1,0
	c0,0,0,0,0,0C112.8,31.7,113,32.1,112.9,32.3C113,32.3,112.9,32.3,112.9,32.3"/>
<path class="st0" d="M112.3,34.2c0,0-0.3,1.6,0.5,1.6c0.8,0,1.4-0.2,1.3-1.3C114.1,33,112.4,32.8,112.3,34.2 M113.3,34.9
	c0,0-0.1,0-0.3,0c0-0.2,0-0.4,0-0.6c0,0,0,0,0-0.1c0-0.2,0.1-0.2,0.1-0.2c0,0,0,0,0.1,0c0,0,0.1,0.1,0.1,0.4
	C113.4,34.8,113.3,34.9,113.3,34.9"/>
<path class="st0" d="M113.1,36.1c0,0-0.7,0.2-0.7,0.8c0,0.6-0.4,1.7,0.5,1.6c0.9-0.1,1.7-0.4,1.5-1.6
	C114.1,35.6,113.7,35.9,113.1,36.1 M113.6,37.4c-0.1,0.1-0.3,0.1-0.5,0.2c0-0.1,0-0.1,0-0.2c0-0.2,0-0.3,0-0.5c0,0,0.1-0.1,0.2-0.1
	c0.1,0,0.2,0,0.2-0.1c0,0,0,0.1,0,0.2C113.6,37.2,113.6,37.4,113.6,37.4"/>
<path class="st0" d="M114.1,28.9c0,0-0.7,0.5-0.4,1.6c0.3,1.1,1,1.2,1.4,0.9c0.4-0.2,0.7-0.5,0.4-1.6
	C115.1,28.7,114.5,28.3,114.1,28.9 M114.5,29.6L114.5,29.6C114.5,29.6,114.5,29.6,114.5,29.6C114.5,29.6,114.5,29.6,114.5,29.6
	 M114.8,30.6c0,0-0.1,0-0.2,0.1h0c0,0-0.1-0.2-0.2-0.4c-0.1-0.4,0-0.6,0.1-0.7c0.1,0.1,0.1,0.2,0.2,0.4
	C114.8,30.4,114.8,30.6,114.8,30.6"/>
<path class="st0" d="M114.3,32.9c0.2,0.8,0,1.8,0.9,1.3c1-0.5,1-0.8,0.8-1.8C115.7,31,114.1,32.1,114.3,32.9 M115.3,33.2
	c0,0,0,0-0.1,0.1c0-0.2,0-0.4-0.1-0.5c0-0.1,0.1-0.1,0.1-0.1C115.3,33,115.3,33.1,115.3,33.2"/>
<path class="st0" d="M114.6,35.5c0,1,0.1,1.8,0.9,1.6c0.8-0.2,1.1-0.7,1-1.9C116.3,33.8,114.6,34.6,114.6,35.5 M115.5,36.3
	c0-0.2,0-0.6-0.1-0.8c0,0,0-0.1,0.1-0.1c0.1-0.1,0.1-0.1,0.2-0.1c0,0,0,0.1,0,0.1C115.8,36.1,115.7,36.2,115.5,36.3"/>
<path class="st0" d="M138.6,40.4c-0.2,0-0.5,0.2-0.9,0.6l-0.3,0.3c-0.5,0.5-1.8,1.8-2.1,1.9c-0.1,0-0.1,0.1-0.1,0.2
	c0,0.1,0.1,0.2,0.2,0.2h5.2c0.1,0,0.1,0,0.1-0.1c0-0.1,0-0.1,0-0.2c-0.4-0.6-1.5-2.1-1.7-2.5C138.9,40.6,138.8,40.4,138.6,40.4
	 M137.9,42.3c0.2-0.2,0.3-0.3,0.3-0.3l0.1-0.1c0.1,0.1,0.2,0.3,0.3,0.4H137.9z"/>
<path class="st0" d="M67.7,91.1c3.1,10.3,5.4,12.2,4.6,6.3C71.5,91.5,70.5,87,71.1,86c0.6-0.9,0.2-2.4-0.1-3.9
	c-0.3-1.5,0.6-1.8-0.6-5.5c-1.2-3.7,0.2-2.8,0.1-4.6c-0.1-1.9-0.7-1.8-0.5-4.1c0.2-2.3,0.3-5.6,0.3-5.6s-2-0.1-2.2,1.3
	c-0.2,1.3-0.2,16.9,0.8,22.4c1,5.5-1.8,0.2-2.2-6.6c-0.4-6.8-0.2-14.5-0.2-14.5s0.3-1.8-1.9-2.3C64.6,62.4,64.5,80.8,67.7,91.1"/>
<path class="st0" d="M76.7,86.5c0-3.8-1.4-5.5-0.8-7.8c0.6-2.3,1-3.2-0.2-5c-1.2-1.9-0.7-1.7-0.4-4.1c0.3-2.4-0.3-5.8-0.1-7.7
	c0,0-1.1-0.9-1.3,0.1c-0.2,1,0.3,13.9,1,19c0.7,5.1-0.6,3-1.1-1.3c-0.3-3-1.1-17.2-1.1-17.2s-1.4-1.1-1.7-0.1c0,0-0.3,17.2,2.9,23.7
	C77.2,92.7,76.7,90.3,76.7,86.5"/>
<path class="st0" d="M81.1,82.4c-0.6-2-0.6-2.4-0.4-4.3c0.2-1.8-0.6-3.2-0.9-5.7c-0.3-2.4-0.6-8.4-0.5-11.6c0,0-0.5-0.6-1.3,0.1
	c0,0,0.1,8.6,0.5,11.8c0.4,3.1-1.3-0.2-1.3-5.7c-0.1-5.4,0-6.5-1-5.5c0,0-0.3,16.6,4.3,21.9C80.4,83.4,81.7,84.5,81.1,82.4"/>
<path class="st0" d="M80.3,59.8c0,0-0.5,15.3,3.6,19.5c4.2,4.2,1,0.2,1-4.7c0-5.7-1.2-4.4-1.3-5.8c0,0-0.2-5.8-0.5-7.5
	c-0.2-1.7-1.5-2.5-1.1,0.2c0.4,2.8,1.2,10,0.2,10.1c-1,0.1-0.9-4.6-0.9-7.3C81.3,61.5,81.7,59.9,80.3,59.8"/>
<path class="st0" d="M86.2,59.2c0,0-0.7-0.6-0.5,2c0.2,2.7,0.8,5.3-0.2,5.2c-0.9-0.1-0.6-3.4-0.7-4.7c-0.2-1.3-0.4-3-0.9-2
	c0,0,0.1,10.3,3,14.6c2.8,4.3,2.8,1,1.5-1.5c-1.3-2.5-1.6-5.7-1.6-8C86.9,62.6,86.2,59.2,86.2,59.2"/>
<path class="st0" d="M89,69.3c1.8,2.5,1.3,0.4,0.9-2.2c-0.4-2.6-0.4-6.6-0.3-8.6c0,0-0.5-0.5-1,0c0,0,0.5,4.7,0.1,4.6
	c-0.5-0.1-0.6-1.7-0.8-3.4c-0.2-1.7-0.3-1.2-0.8-0.9C87,58.8,87.2,66.8,89,69.3"/>
<path class="st0" d="M65.8,46.4c0,0-0.5,3.3-0.7,8.1c-0.2,4.8,0.1,5.6,2,5.7c2.4,0.1,2.9-1.5,3.3-5.4c0.4-4.2,0.5-6.3,0.5-6.9
	c0.1-0.7-1.3-2.3-1.6,0.3c-0.3,2.6-0.1,10.5-1.7,10.1c-1.6-0.3-1.2-4.3-0.9-7.1c0.3-2.8,1.2-6,0.1-6.3
	C65.8,44.8,65.8,46.4,65.8,46.4"/>
<path class="st0" d="M71.7,48c0,0-2,11.7,0.1,11.8c3.2,0.1,2.7-3.2,3-6.9c0.3-3.7,0.7-4.7-0.1-4.7c-0.8,0-1,3.5-1.1,5.4
	c-0.1,1.9,0,4.4-0.9,4.3c-0.9-0.1-0.8-2.8-0.5-5.1C72.8,47.6,72.5,46.9,71.7,48"/>
<path class="st0" d="M76.5,49.3c0,0-0.3-0.5-0.7-0.5c0,0-0.4,4.1-0.5,6.5c-0.1,2.4,0.3,3.5,1.9,3.5c1.6,0,1.4-2.8,1.5-5.1
	c0.1-2.3,0.7-4.3,0-4.5c-0.7-0.2-0.7,1.5-0.8,3c-0.1,1.5-0.2,4.8-0.9,4.8c-0.6,0-1-0.8-0.9-3.2C76.4,51.5,76.5,49.3,76.5,49.3"/>
<path class="st0" d="M122.2,59.1c0.6-0.1,0.5-0.5,0.9,0c0.5,0.5,0.5,0.6,1.1,0.4c0.6-0.1,1.2,0.2,1.6,0.5c0.3,0.3,0.8,0.3,0.7,0.6
	c-0.1,0.3-0.6,0.7,0.7,0.9c1.3,0.2,1.7,0.4,2.1,0c0.3-0.5,0.9-0.5-0.1-1c-1-0.6-1.4-0.5-2.2-1.4c-0.8-0.8-0.7-0.8-1.3-1
	c-0.6-0.2-1.2-0.5-2.1-0.3c-0.8,0.2-1.9,0.2-1.9,0.2s-0.4,0.3-0.1,0.6C121.8,59,121.6,59.2,122.2,59.1"/>
<path class="st0" d="M127.8,62.3c-0.4,0-0.7-0.3-1-0.3c0,0-0.6-0.1-0.3,0.5c0.3,0.6,0.7,0.6,1,0.5C127.9,62.8,128.2,62.3,127.8,62.3
	"/>
<path class="st0" d="M130.7,62.7c0,0,0.8,0,1.3-0.3c0.4-0.2,0.8,0.1,1.2,0.2c0.4,0.1,0.7,0.1,1-0.4c0.3-0.5-0.1-0.8-0.4-1.1
	c-0.3-0.4-0.9-0.3-1.3-0.1c-0.4,0.2-0.3,0.4-0.7,0.4C131.4,61.4,130.2,62.5,130.7,62.7"/>
<path class="st0" d="M135.8,63c0.2,0,0.7,0.1,0.9,0.1c0.2,0,0.6,0,0.2-0.6c-0.3-0.6-0.2-0.7-0.9-0.6c-0.7,0.1-0.6,0.3-0.6,0.3
	S135.6,63,135.8,63"/>
<path class="st0" d="M138.3,70.6c0.1,0.1,0.4,0.4,0.5-0.1c0.1-0.4,0.1-1.1-0.8-0.8c0,0-0.3,0.2-0.1,0.5
	C138.1,70.3,138.2,70.5,138.3,70.6"/>
<path class="st0" d="M87.5,51.8c-1,7.1,1.8,4.6,1.8,4.6c0.1-1.8,0.4-4.2,0.4-4.2c-0.3-0.4-0.6-0.2-0.6,0.7c-0.1,0.9-0.1,3-0.8,2.8
	c-0.7-0.2-0.1-3.9-0.4-4C87.6,51.5,87.5,51.8,87.5,51.8"/>
<path class="st0" d="M84.1,50.9c0,0-0.5,3.5-0.5,4.6c0,1.1,0.6,1.9,2,1.8c1.4-0.1,1.1-2,1.2-3.5c0.1-1.5,0.3-2.4,0.3-2.4
	c-0.7-0.3-0.6-0.1-0.9,1.9c-0.3,2-0.2,2.8-1.1,2.9c-1,0.1-0.4-3.7-0.3-4.6C84.8,50.7,84.1,50.9,84.1,50.9"/>
<path class="st0" d="M80.2,50c0,0-0.6,3.4-0.6,6.1c0,2.7,3,1.9,3.2-0.1c0.1-2,0.7-5.5,0.7-5.5c-1-0.8-1.1,1.3-1.3,3.1
	c-0.2,1.8-0.3,2.9-1.2,2.7c-1-0.2-0.3-5-0.3-5.9C80.8,49.7,80.2,50,80.2,50"/>
<path class="st0" d="M78.8,113.2c-0.5,0.9-0.2,1.1,0.3,1.2c0.5,0.1,0.7-1.5,0.7-1.5C79.6,112.3,79.2,112.3,78.8,113.2"/>
<path class="st0" d="M80.8,112.7c0,0-0.7-0.1-0.6,1c0.1,1.1,0.7,1.2,1,1c0.3-0.2,0.2-1.2,0.2-1.4C81.4,113.1,81.1,112.4,80.8,112.7"
	/>
<path class="st0" d="M82.3,112.5c0,0-0.1,0.9,0.3,1.4c0.4,0.6,1.1,0.9,0.9-0.3C83.2,112.4,82.9,112.1,82.3,112.5"/>
<path class="st0" d="M71.1,110.6c-0.3-0.1-0.5-0.2-0.7,0.2c0,0-0.2,0.7,0.4,0.7C71.4,111.4,71.3,110.7,71.1,110.6"/>
<path class="st0" d="M68.2,112.2L68.2,112.2c0,0.1,0,0.6,0.3,0.6c0.4,0,0.4-0.2,0.4-0.4C69.1,112.1,68.4,111.8,68.2,112.2"/>
<path class="st0" d="M69.2,115.8c0,0-0.4,0.4,0.1,0.8c0.5,0.3,0.6,0.2,0.5-0.4C69.7,115.5,69.5,115.6,69.2,115.8"/>
<path class="st0" d="M72.3,115.7c0,0,0.4,0.2,0.5,0.1c0.1-0.2-0.1-0.4-0.1-0.4S72.1,115.2,72.3,115.7"/>
<path class="st0" d="M72.9,118.4c0,0-0.2,0.6,0.3,0.7c0.5,0.1,0.6-0.5,0.4-0.7C73.3,118.2,72.9,118.3,72.9,118.4"/>
<path class="st0" d="M75.6,119.2c0,0,0.5,0.1,0.5,0c0-0.1,0.1-0.3-0.1-0.5C75.8,118.6,75.4,118.8,75.6,119.2"/>
<path class="st0" d="M75.1,129c0,0,1-2.3-0.4-1.9c0,0-0.7,0.5-0.5,1.6c0,0-0.7-0.3-0.2,0.7c0.5,0.9,0.8,1.8,1.7,0.9
	C76.5,129.5,75.1,129,75.1,129"/>
<path class="st0" d="M78.5,130.6c0,0-0.8,0.6-0.6,0.9c0.2,0.3,1.3,0.4,1.4,0C79.4,131.2,78.9,130.3,78.5,130.6"/>
<path class="st0" d="M82,131.2c0,0-0.9,0.3-0.5,0.7c0.4,0.5,1.3,0.5,1.3,0.4C82.9,132.3,83.3,131,82,131.2"/>
<path class="st0" d="M79.3,127.2c0,0-1,0.6-0.6,1c0.4,0.4,1.1-0.3,1.1-0.3S80,127.1,79.3,127.2"/>
<path class="st0" d="M82.4,126.2c0.7,0.3,1-0.3,1-0.3s-0.5-1.3-1.1-0.8C82.3,125.1,81.7,125.9,82.4,126.2"/>
<path class="st0" d="M86.7,130.7c0.7,0.3,1.1,0,1.1,0s0.5-0.7-1.4-1.1C86.4,129.6,85.9,130.4,86.7,130.7"/>
<path class="st0" d="M96.7,130.3c0-0.7-0.8-0.4-0.8-0.4s-0.5,0.1-0.5,0.4c0,0.3,0.6,0.4,0.6,0.4S96.7,131,96.7,130.3"/>
<path class="st0" d="M96.8,134.4c-0.4-0.2-0.8,0.3-0.8,0.3s-0.3,0.9,0.6,0.9c0.9,0,0.8-0.6,0.8-0.6S97.5,134.8,96.8,134.4"/>
<path class="st0" d="M101.4,133c0-0.5-0.6-0.8-1-0.8c0,0-0.9,0.1-1,0.8c-0.2,0.7,1.2,0.7,1.2,0.7S101.5,133.5,101.4,133"/>
<path class="st0" d="M100.4,135.8c0,0,0,0.7,0.8,0.7c0.8,0,0.7-0.5,0.7-0.5S100.6,135.2,100.4,135.8"/>
<path class="st0" d="M105.1,133.2c0.9,0,0.6-0.7,0.6-0.7s-0.3-0.4-0.8-0.3c-0.6,0-0.7,0-0.7,0.5
	C104.2,132.6,104.2,133.2,105.1,133.2"/>
<path class="st0" d="M96.5,118.6c0.5-0.1,0.1-1.7,0.1-1.7s-0.4-1-0.6-0.9c0,0-0.8,0-0.5,1.2C95.8,118.6,96,118.7,96.5,118.6"/>
<path class="st0" d="M98.5,117.9c0.3,0.5,0.6,0.5,1,0.3c0.4-0.3-0.8-2.1-0.8-2.1s-1.2-0.6-1,0C97.7,116.2,98.1,117.4,98.5,117.9"/>
<path class="st0" d="M83.4,117.5c-0.4,0-1.7,0.9-1.2,1.1c0,0,0.7,0.2,1.1-0.3C83.8,117.8,83.8,117.6,83.4,117.5"/>
<path class="st0" d="M85.5,118.5c0,0-1.5,1.5-0.9,1.8c0.6,0.3,1.1-0.5,1.3-1.1C86.1,118.5,85.8,118.2,85.5,118.5"/>
<path class="st0" d="M87,120.8c0.2,0.5,0.6,1.1,1-0.1c0.4-1.2,0.2-1.3-0.1-0.9C87.9,119.8,86.8,120.4,87,120.8"/>
<path class="st0" d="M90.7,121.3c0.3-1.4,0-1.3-0.3-0.9c0,0-1,0.8-0.7,1.2C89.9,121.9,90.4,122.7,90.7,121.3"/>
<path class="st0" d="M93.4,123.3c0.8,0.1,0.5-1.1,0.3-2c-0.2-0.8-0.4-0.9-0.6-0.9c0,0-0.4-0.1-0.4,0.9
	C92.7,122.4,92.6,123.2,93.4,123.3"/>
<path class="st0" d="M96.1,121c0,0-0.8,1.6,0.3,2.3c1,0.6,0.6-0.5,0.4-1.3C96.6,121.2,96.3,120.5,96.1,121"/>
<path class="st0" d="M99,120.7c0,0-0.6-0.1-0.4,0.8c0.2,0.9,0.5,1.7,1.3,1.5C100.9,122.8,99.6,121,99,120.7"/>
<path class="st0" d="M103.7,122.8c0.5-0.9-1.8-2.6-2.2-2.3c0,0-0.7,0.3,0,1.1C102.2,122.3,103.2,123.7,103.7,122.8"/>
<path class="st0" d="M106.4,122.3c0.5-0.3-0.8-1.6-0.8-1.6s-1-1.1-1.2-0.8c0,0-0.6,0.6,0.2,1.4C105.4,122.1,105.9,122.7,106.4,122.3
	"/>
<path class="st0" d="M91.2,124.8c0,0-1.5,2-0.6,2.4c0.9,0.4,1-1.5,1-2.2C91.5,124.2,91.2,124.8,91.2,124.8"/>
<path class="st0" d="M104.7,124.3c0,0,0.5,1,0.6,1.5c0.1,0.4,0.5,1.1,1,0.5c0.4-0.7,0.2-0.9-0.3-1.5
	C105.6,124.1,104.4,123.7,104.7,124.3"/>
<path class="st0" d="M74.5,42c0,0-1.5-0.3-2,1.3c-0.6,1.6-0.2,2.3,0.2,2.2c0.3-0.1,0.5-1.6,0.9-1.5c0.4,0.2-0.5,1.5,0.1,1.7
	c0.6,0.2,0.8-1.5,1.2-1.4c0.4,0.2-0.4,1.5,0.2,1.7C75.7,46.2,76.6,42.6,74.5,42"/>
<path class="st0" d="M78.7,43.4c0,0-1.3-0.3-1.8,1.2c-0.5,1.5-0.1,2.1,0.2,2c0.3-0.1,0.4-1.5,0.8-1.4c0.4,0.1-0.4,1.4,0.2,1.5
	c0.5,0.1,0.6-1.4,1-1.3c0.4,0.1-0.3,1.4,0.2,1.5C80,47.2,80.7,43.9,78.7,43.4"/>
<path class="st0" d="M70.4,44.2c0.8,0.3,2.3-3.9-0.4-4.8c0,0-1.9-0.5-2.7,1.3c-0.8,1.9-0.4,2.7,0,2.6c0.4-0.1,0.8-1.9,1.3-1.7
	c0.5,0.2-0.7,1.8,0,2c0.7,0.2,1.1-1.8,1.7-1.5C70.8,42.4,69.6,44,70.4,44.2"/>
<path class="st0" d="M82.6,44.9c0,0-1.2-0.3-1.6,1c-0.4,1.3-0.1,1.8,0.1,1.7c0.3-0.1,0.4-1.3,0.7-1.2c0.3,0.1-0.4,1.2,0.1,1.3
	c0.4,0.1,0.6-1.2,1-1.1c0.3,0.1-0.3,1.2,0.2,1.4C83.6,48.2,84.3,45.4,82.6,44.9"/>
<path class="st0" d="M86.4,48.7c0.4,0.1,1-2.2-0.4-2.6c0,0-1-0.2-1.3,0.8c-0.4,1.1-0.1,1.5,0.1,1.4c0.2-0.1,0.3-1.1,0.6-1
	c0.3,0.1-0.3,1,0.1,1.1c0.4,0.1,0.5-1,0.8-0.9C86.5,47.7,86,48.6,86.4,48.7"/>
<path class="st0" d="M89.7,49.5c0.4,0.1,0.7-2.3-0.7-2.5c0,0-1-0.1-1.2,1c-0.2,1.1,0.1,1.5,0.3,1.4c0.2-0.1,0.2-1.1,0.5-1
	c0.3,0.1-0.2,1,0.2,1.1c0.4,0.1,0.4-1.1,0.7-1C89.7,48.5,89.3,49.5,89.7,49.5"/>
<path class="st0" d="M68.1,47.3c-0.2,1.4-1.3,9.4-0.6,9.5c0.7,0.1,0.6-3.5,0.8-5.3c0.2-1.9,0.5-4.7,0.5-4.7S68.3,45.9,68.1,47.3"/>
<path class="st0" d="M73.1,49c-0.2,1.1-1,7.4-0.5,7.5c0.5,0.1,0.5-2.8,0.6-4.2c0.1-1.5,0.4-3.7,0.4-3.7S73.2,47.9,73.1,49"/>
<path class="st0" d="M77.2,50.1C77,50.9,76.5,56,77,56c0.5,0.1,0.3-2.2,0.4-3.4c0.1-1.2,0.2-2.9,0.2-2.9S77.3,49.2,77.2,50.1"/>
<path class="st0" d="M81.4,50.6c-0.1,0.7-0.7,4.5-0.2,4.5c0.5,0,0.4-1.7,0.5-2.5c0.1-0.9,0.3-2.2,0.3-2.2S81.5,49.9,81.4,50.6"/>
<path class="st0" d="M85.8,51.3c0,0-0.4-0.3-0.5,0.2c-0.1,0.5-0.5,3.5,0,3.5c0.5,0,0.3-1.3,0.3-2C85.6,52.4,85.8,51.3,85.8,51.3"/>
<path class="st0" d="M88.9,51.8c0,0-0.3-0.3-0.4,0.2c-0.1,0.4-0.4,3,0,3c0.4,0,0.2-1.1,0.3-1.7C88.8,52.7,88.9,51.8,88.9,51.8"/>
<path class="st0" d="M154.1,48.5V51c0,0,1.3-0.1,1.3-0.4c0-0.3,0.5,0.2,0.5,0.2S155.7,49.4,154.1,48.5"/>
<path class="st0" d="M156,55.6c-0.5,0-0.9,0.2-0.8-1.1c0.1-1.2,0.2-2.1-0.9-1.7v3.9c0,0,1.7,1.2,2.7,0c0,0,0.4-2.4-0.3-4
	c0,0-0.2-0.2-0.6,0.3C156.1,53,156.5,55.6,156,55.6"/>
<path class="st0" d="M154.2,58.5c0,0-0.2,2.9,0,2.9c0.2,0,1.1,0,1.1-1.8C155.2,57.8,154.6,58,154.2,58.5"/>
<path class="st0" d="M156.3,58.1c0,0-0.4-0.1-0.4,1.2c0,1.2-0.3,2.1,0.1,2.1c0.4,0,0.7-1.1,0.9-2.1
	C157.2,58.1,156.9,57.8,156.3,58.1"/>
<path class="st0" d="M154.5,64c0.7,0,1.7,0,1.8-1.2c0.2-1.2-1.2-0.8-2.2,0.1C154.2,63,153.8,64,154.5,64"/>
<path class="st0" d="M154.2,65.4c0,0-0.2,3.3,0,3.2c0.2-0.2,1.2-2.2,1.5-3C156,64.8,154.4,64.9,154.2,65.4"/>
<path class="st0" d="M153.7,86.7c0.5,1.9,0.1,1.8-0.3,1.8c-0.5,0-0.9-2.7-1.6-0.9c-0.4,1-1,2.6,0.2,2.5c1.3-0.1,4.4,0.1,3.4-2.4
	C154.3,85.2,153.2,84.7,153.7,86.7"/>
<path class="st0" d="M156.5,94.6c0,0,0.4-0.4,0.2-1.1c-0.2-0.7-2.2-0.2-2.2-0.2l-4.7,0.2c0,0-0.6,1-0.4,1.2
	C149.5,94.8,156.2,94.9,156.5,94.6"/>
<path class="st0" d="M152.3,98.6c0-1.8-0.4-3.4-1.8-3.3c0,0-2-0.1-2,1.2c-0.1,1.3-0.2,3.2,0.4,3.2c0.6,0,0.1-2.3,0.6-2.4
	c0.5,0,0.5,0.9,0.5,1.6c0,0.7,0.9,0.9,0.8-0.1c-0.1-1-0.5-1.8,0-1.6c0.5,0.1,0.7,0.2,0.6,1.2C151.2,99.4,152.3,100.5,152.3,98.6"/>
<path class="st0" d="M154.2,97.2c0.4,0,0.5,0.9,0.5,1.5c0,0.6,0.8,0.9,0.7-0.1c-0.1-0.9-0.5-1.6,0-1.5c0.5,0.1,0.6,0.2,0.5,1.1
	c-0.1,0.9,0.9,1.8,0.9,0.2c0-1.7-0.4-3.1-1.7-3c0,0-1.8-0.1-1.9,1.1c-0.1,1.2-0.2,3,0.4,3C154.2,99.4,153.8,97.2,154.2,97.2"/>
<path class="st0" d="M106.9,118.2c0.7,0,0.4-3.5-0.5-2.9c0,0-0.4,0.3-0.4,1.1C106,117.3,106.2,118.2,106.9,118.2"/>
<path class="st0" d="M109.8,117.9c-0.2-1.4-0.8-2-0.9-1.5c0,0-0.2,0.8,0,1.7C109.1,119,110,119.2,109.8,117.9"/>
<path class="st0" d="M112.7,118.2c0.2-0.2-0.9-2.3-1.4-1.7c0,0-0.5,0.2,0.1,1.1C112,118.4,112.5,118.4,112.7,118.2"/>
<path class="st0" d="M115.6,122.4c-0.1-0.3-0.6-0.7-0.8-0.7c0,0-0.6,0.3-0.1,0.8C115.2,123,115.7,122.7,115.6,122.4"/>
<path class="st0" d="M118.1,122.5c0.7-0.3-0.7-1.5-1.5-1.5c0,0-0.5,0,0,0.7C117.1,122.4,117.5,122.9,118.1,122.5"/>
<path class="st0" d="M121.2,126.6c0.8,0.7,1.4,0.7,0.9-0.2c-0.4-0.8-0.8-1.4-1.1-1C121,125.4,120.4,126,121.2,126.6"/>
<path class="st0" d="M124.9,125.9c0.2-0.5-1.1-2.3-1.6-2.3c0,0-0.7,0.1-0.1,1.2C123.8,126,124.7,126.5,124.9,125.9"/>
<path class="st0" d="M126.9,125.3c0-0.5-1-2.5-1.1-1.9c0,0-0.4,1.3,0.2,2C126.5,126.1,126.9,125.8,126.9,125.3"/>
<path class="st0" d="M129.5,124.5c-0.1-0.8-0.8-2-1.1-1.7c0,0-0.6,0.3-0.1,1.2C128.9,124.9,129.6,125.3,129.5,124.5"/>
<path class="st0" d="M131.4,123.5c1.3,0-0.3-1-0.4-1.2c-0.1-0.2-0.7-0.3-0.7,0C130.3,122.3,130.1,123.5,131.4,123.5"/>
<path class="st0" d="M131.4,127.7c-0.1-0.4-0.4-0.7-0.7-0.7c0,0-0.9-0.1-0.3,0.6C130.9,128.3,131.4,128.2,131.4,127.7"/>
<path class="st0" d="M133.7,127.4c-0.5-1.2-0.9-1.8-1.3-1.5c0,0-0.4,0.5,0.2,1.3C133.2,128,134.2,128.6,133.7,127.4"/>
<path class="st0" d="M135.3,125.7c-0.2-1-1.8-3.4-1.8-2.5c0,0-0.2,0.8,0.4,1.6C134.4,125.6,135.5,126.7,135.3,125.7"/>
<path class="st0" d="M130,131c-0.2,0.4-0.6,1.6,0.2,1.2c0,0,1.2-0.7,1-1.1C131,130.8,130.3,130.6,130,131"/>
<path class="st0" d="M132.3,133.5c-0.7,0.2-1.3,0.8-0.9,1.2c0,0,0.4,0.7,1.2,0C133.5,134,133,133.4,132.3,133.5"/>
<path class="st0" d="M142.8,134.8c0,0-1.5,1.2-0.2,1.3c1.2,0.1,1.4-0.3,1.1-0.9C143.3,134.5,143.2,134.5,142.8,134.8"/>
<path class="st0" d="M150.9,135.8c-0.3,0-1.5,0.7-1,1.2c0,0,1,0.4,1.5-0.3C151.8,136,151.2,135.8,150.9,135.8"/>
<path class="st0" d="M154,133.4c-0.6,0.2-0.9,0.7,0,1.1c0,0,0.6,0.1,1-0.5C155.4,133.4,154.6,133.2,154,133.4"/>
<path class="st0" d="M148.8,132.9c0,0-1.2,1.6,0,1.6c1.3,0.1,0.6-1.1,0.6-1.1S149,132.5,148.8,132.9"/>
<path class="st0" d="M148.8,130.3c-0.6-0.5-0.9-0.3-1.2,0.1c0,0-0.8,1.4,0.2,1.4C148.7,131.8,149.4,130.8,148.8,130.3"/>
<path class="st0" d="M153.5,130c-0.2-0.5-0.3-0.7-0.8-0.5c0,0-1,0.7-0.4,1C152.9,130.7,153.6,130.5,153.5,130"/>
<path class="st0" d="M139.3,126.6c0,0-0.3,0.7,0.4,0.7c0.7,0.1,0.8-0.4,0.7-0.7C140.4,126.5,139.6,126.2,139.3,126.6"/>
<path class="st0" d="M140.4,121.9c0,0-0.2,0.9,0.6,1.2c0.8,0.2,0.5-0.5,0.5-0.7C141.4,122.1,140.4,121.4,140.4,121.9"/>
<path class="st0" d="M144.4,123.8c0,0-0.7,0.7-0.2,0.9C144.6,124.9,145.6,124.1,144.4,123.8"/>
<path class="st0" d="M147.4,121.8c0.7,0.1,1.1-0.7,0.2-0.9C147.5,121,146.7,121.7,147.4,121.8"/>
<path class="st0" d="M143.7,121.6c0,0-0.9,0.1-0.4,0.6c0.5,0.5,0.7,0.5,0.9-0.1C144.4,121.4,144.3,121.4,143.7,121.6"/>
<path class="st0" d="M145.3,118.4c0,0-0.2,0.6,0.3,0.9c0.5,0.3,0.5,0,0.6-0.3C146.2,118.7,145.3,117.9,145.3,118.4"/>
<path class="st0" d="M144.3,117c0,0,0.4,0.2,0.8-0.1C145.5,116.6,144.1,116.3,144.3,117"/>
<path class="st0" d="M151.6,113.3c0.4-0.4-0.5-0.8-0.7-0.3C150.9,113,151.2,113.7,151.6,113.3"/>
<path class="st0" d="M175.4,133.6c1-0.3,1.6-1.9-0.1-1.5c0,0-0.8,0.8-0.8,1C174.5,133.3,174.5,133.9,175.4,133.6"/>
<path class="st0" d="M169.3,131c0,0-0.3,1,0.1,0.9c0.4-0.1,1.2-0.3,0.7-0.8C169.6,130.7,169.4,130.7,169.3,131"/>
<path class="st0" d="M166.4,129.7c0,0-0.8,0.3-0.9,0.6c0,0.3,0,1,0.8,0.4C167.1,130.2,167.6,129.2,166.4,129.7"/>
<path class="st0" d="M163.2,128.6c0,0-1,0.3-0.7,0.7c0.3,0.4,1.1,1.1,1.3,0.3C164,128.8,163.7,128.2,163.2,128.6"/>
<path class="st0" d="M170.2,127.2c0,0-0.8,0.3-0.7,0.6c0.1,0.3,0.6,0.7,1,0.2C170.9,127.7,171,126.9,170.2,127.2"/>
<path class="st0" d="M172.7,130.5c0.6-0.2,1.5-1.7,0.2-1.5c0,0-0.5,0.2-0.7,0.7C171.9,130.2,172.1,130.7,172.7,130.5"/>
<path class="st0" d="M158,117.7c0,0,0,1,0.7,0.8c0.7-0.2,0.4-0.8,0.4-0.8S157.7,116.9,158,117.7"/>
<path class="st0" d="M157.8,122.4c-0.6-0.3-0.6-0.4-0.8-0.2c0,0-0.5,1,0.1,1C157.7,123.2,158.5,122.7,157.8,122.4"/>
<path class="st0" d="M160.7,119.4c0.1-0.4-2.1,0.5-1.2,0.9c0,0,0.7,0.4,1.1,0.2C160.9,120.3,160.6,119.8,160.7,119.4"/>
<path class="st0" d="M162.8,115.1c0.6,0,0.6-0.6,0.4-0.9c-0.2-0.3-1.2-0.4-1.1,0.3C162,114.5,162.2,115.2,162.8,115.1"/>
<path class="st0" d="M163,117c1.3,0.7,0.8-1.3,0.2-0.9C163.2,116,162.4,116.6,163,117"/>
<path class="st0" d="M165,115.4c1.4,0,0.6-1.4,0.1-1.1c0,0-0.6,0.5-0.7,0.6C164.4,115.1,163.9,115.4,165,115.4"/>
<path class="st0" d="M163.4,119.2c0,0.3,0.3,0.5,0.9,0.3c0.6-0.2,0.6-0.9-0.1-0.8C164.2,118.8,163.5,118.9,163.4,119.2"/>
<path class="st0" d="M166.5,118.4c0.3-0.1,0.2-0.7,0.2-1.1c0-0.4-0.2-0.6-0.7-0.3c0,0-0.3,0.1-0.3,0.5
	C165.8,117.9,166.2,118.5,166.5,118.4"/>
<path class="st0" d="M178,111.4c0.5-0.4,0.8-1.2-0.1-1.3c0,0-0.6,0-0.6,0.6C177.4,111.4,177.5,111.9,178,111.4"/>
<path class="st0" d="M179.4,112c0,0,0.6,0.3,1,0.2c0.4-0.1,0.2-0.7-0.1-0.8C180,111.3,178.9,112,179.4,112"/>
<path class="st0" d="M181.7,109.5c1,0.2,1.2-1,0.8-0.9C182.4,108.6,180.7,109.3,181.7,109.5"/>
<path class="st0" d="M179.6,109.2c0.5,0,0.9-0.2,0.6-0.5c-0.3-0.3-0.8-0.8-0.8-0.5C179.3,108.3,179.1,109.2,179.6,109.2"/>
<path class="st0" d="M176,44.3c-0.1-1.1-0.3-1.3-0.4-1.2c0,0-0.2,2.9,0,3C175.9,46.2,176.1,45.4,176,44.3"/>
<path class="st0" d="M161.7,50.9c-0.6,0.1-0.8-0.8-0.8-1.4c0-0.6-0.6-0.9-0.8-0.2c0,0,0.1,2.5,1.3,2.4c1.5-0.1,1.9-0.9,1.3-2.8
	c0,0-0.3-0.6-0.8-0.2C161.3,49.1,162.2,50.9,161.7,50.9"/>
<path class="st0" d="M163.5,48.2c0,0-0.2,2.7,0.9,2.8c1.5,0.1,2-0.7,1.7-2.9c0,0-0.2-0.6-0.8-0.3c-0.5,0.4,0.1,2.4-0.5,2.4
	c-0.6,0-0.7-1-0.6-1.6C164.3,47.9,163.9,47.5,163.5,48.2"/>
<path class="st0" d="M167,47.4c0,0-0.3,2.8,0.8,2.8c1.4,0,1.8-0.8,1.6-3c0,0-0.2-0.7-0.7-0.3c-0.5,0.4,0.1,2.4-0.5,2.5
	c-0.6,0-0.6-1-0.5-1.7C167.8,47.1,167.4,46.6,167,47.4"/>
<path class="st0" d="M170.3,45.9l0,2.4c0,0-0.2,1.6,1.5,1.7c1.7,0,1.3-2.2,1.3-3.2c0-0.9-0.1-2.4-0.6-2.3c-0.4,0.1-0.6,0.6-0.5,1.6
	c0,1,0.2,2.3-0.3,2.2c-0.5,0-0.5-0.8-0.5-1.8C171.3,45.5,170.5,44.7,170.3,45.9"/>
<path class="st0" d="M175,43.5c0,0-1-0.9-1,0.5c0,1.4-0.4,5.3,1.9,5.5c2.3,0.1,1.9-2.8,1.9-4.7c0-1.9,0.4-3.8-0.4-3.3
	c-0.7,0.5-0.8,1.1-0.9,2.4c-0.1,1.3,0.3,3.5-0.4,3.6c-0.7,0.1-1.1-0.1-1-2.1C175.2,43.8,175,43.5,175,43.5"/>
<path class="st0" d="M180.1,44.9c-0.1-2.2,0-3.8-0.4-3.8c0,0-0.8-0.1-0.8,1c0,1.1-0.5,5.5,1,6.1c1.5,0.7,3.5,0.3,3.5-1.3
	c0-1.6,0-5.2,0-6.2c0-0.9-0.9-1.4-1.1-0.1c-0.2,1.3,0.6,6.6-0.6,6.5C180.4,47.1,180.2,47.1,180.1,44.9"/>
<path class="st0" d="M181,41.5c0,0-0.4,3.9,0.1,4.1c0.6,0.2,0.3-2.6,0.3-3.5C181.5,41.2,181.1,40.8,181,41.5"/>
<path class="st0" d="M175.3,102.5c1,0.1,3.9-6.6,4.6-10.9c0.7-4.3,1-5.3,1.8-7.3c0.8-2,2-9.8,2-13.8c0-4,0.2-7.6,0-8.2
	c-0.2-0.6-0.4-0.8-1.1-0.3c-0.7,0.5-1.5,0.2-1.4,2c0.1,1.8,0.2,12.9-0.4,14.7c-0.6,1.8-1.2,4.5-1.7,6.4c-0.5,1.8-1.1,3.9-0.7,0.1
	c0.4-3.8,1.2-3.9,1.2-6.2c0.1-2.3,0.6-5,0.5-8.3c-0.1-3.3,0.2-7.5,0.2-7.5s-1.7-2.2-1.7-0.2c0,2,0.1,12.4,0,13.8
	c-0.2,1.4-0.6,3.5-0.5,4.9c0.2,1.4-0.5,1.9-0.6,4.1c-0.1,2.3-0.7,11-1.9,13.3C174.5,101.4,174.4,102.4,175.3,102.5"/>
<path class="st0" d="M173.8,92c0.7-0.5,3.6-7.2,3.7-17.5c0.2-10.3,0.6-11.4,0.1-12.2c-0.4-0.8-1.4-1-1.2,1.1
	c0.2,2.1-0.4,16.9-1.1,17c-0.6,0.5,0.5-12.7,0.2-17.8l0-0.1c0,0-0.9-2.4-1-0.6c-0.1,1.9-0.1,10-0.3,10.6c-0.2,0.6-1.1,4.1-0.8,6.5
	c0.3,2.5,0.5,8.7,0.2,10.4C173.2,91.1,173.1,92.5,173.8,92"/>
<path class="st0" d="M173.1,68.8c0.2-2.2,0.7-6.5,0.6-7.6c0,0-1.2-0.4-1.3,0.9c-0.1,0.8-0.1,4.2-0.3,5.4c-0.2,1.2-0.2,6.3-0.9,6.2
	c-0.7-0.1-0.3-2.5-0.1-4.7c0.2-2.2,1-4.4,0.4-7.5c0,0-1-1.1-1.1-0.1c-0.1,1,0.1,3.7-0.2,4.1c-0.3,0.4-0.6,1.9-0.6,3.5
	c0.1,1.6,0.3,4.3-0.3,5.3c-0.6,1-0.4,2.3-0.6,3.6c-0.2,1.3-0.6,4.4-1.7,6.3c-1.2,1.9,1.3,2.4,3.9-4.8C173.5,72.3,173,71,173.1,68.8"
	/>
<path class="st0" d="M166.4,61.5c0,1.1-0.1,8.3-0.7,9.6c-0.6,1.2-0.7,3.7-1.1,4.4c-0.3,0.7-1.6,3.9-2.2,4.9c-0.6,1-0.5,2.2,0.6,1.4
	c1.1-0.8,4.6-5.3,5.1-9.2c0.5-3.9,1.1-6.4,1.3-7.5c0.2-1.1,0.5-3.9,0.1-4.1c-0.3-0.2-1-0.4-1,0.6c0,1.1-0.3,4.7-0.9,6.5
	c-0.6,1.8-0.6,2.5-0.7,0.2c-0.1-2.2,0.4-6.6,0.1-7.7C167.2,60.6,166.4,60.4,166.4,61.5"/>
<path class="st0" d="M162.7,60.3c0,0-0.1,1-0.1,4.1c0,3.9-2,7.8-3.1,10.3c-1.1,2.5,0.4,1.8,1.3,1c0.9-0.8,2.6-3.7,3.4-5.5
	c0.8-1.7,1.6-9.8,1.6-9.8c-0.1-0.3-0.9-0.5-1.2-0.1c-0.3,0.4-0.6,0.6-0.8,0.1C163.6,60,162.7,60.3,162.7,60.3"/>
<path class="st0" d="M161.3,68c0.5-1.3,0.7-7.3,0.7-7.3c0-0.9-0.4-1.6-0.6,0.1c-0.1,1.7-0.6,0.9-0.9-0.5c-0.3-1.5-0.8,2.8-0.6,4.3
	c0.2,1.4-1.2,5.4-1.8,7.9C157.5,74.9,160.8,69.3,161.3,68"/>
<path class="st0" d="M161.9,53.6c-0.2,1.9,0.1,2.7-0.5,2.5c-0.6-0.2,0-3.1-0.5-3.1c-0.5,0-0.4,1.1-0.5,1.9c-0.1,0.8-0.2,3.1,1,3.1
	c2,0,1.5-3.8,1.5-4.5C162.9,52.8,162.2,51.7,161.9,53.6"/>
<path class="st0" d="M165.9,52.4c-0.5,0-0.7,0.1-0.7,1.2c0.1,1.1,0.2,2.2-0.4,2c-0.5-0.1-0.4-1.4-0.3-2.4c0-1-0.4-1-0.4-1
	s-0.5-0.1-0.5,0.9c0,1.1-0.2,4.6,0.9,4.6c1.1,0.1,1.7-0.9,1.8-3.2C166.4,52.4,166.4,52.4,165.9,52.4"/>
<path class="st0" d="M168.2,58.7c1.9,0.2,1.5-3.1,1.6-4c0-0.8,0.2-2.7-0.2-2.8c-0.5,0-0.4,0.5-0.4,1.4c0,0.9-0.1,3-0.6,3.1
	c-0.5,0-0.7-1-0.5-2.6c0.1-1.5,0.1-1.8-0.1-1.8c0,0-0.7,0-0.7,1.2C167.1,54.5,166.4,58.5,168.2,58.7"/>
<path class="st0" d="M173.5,51.6c-0.5-0.1-0.9,0-0.9,1.1c0,1.1,0.1,4.5-0.5,4.5c-0.6,0-0.8-1-0.8-2.7c0-1.7,0.5-2.7,0.1-2.8
	c0,0-0.9-0.5-1,1.2c-0.1,1.7-0.3,6.2,1,6.5c1.4,0.2,2.2-1.5,2.1-3.6C173.5,53.6,174,51.7,173.5,51.6"/>
<path class="st0" d="M175.3,51.2c0,0-0.7-0.1-0.8,1.3c-0.1,1.4,0.1,3.9,0.1,5.1c0,1.2,0.1,2.3,1.3,2.5c1.2,0.1,2-1.8,2-3.8
	c0-2,0.5-5.2-0.3-5.4c-0.8-0.1-0.6,0.6-0.5,1.4c0,0.8,0,5.8-0.9,5.7c-0.9-0.1-1-2.3-0.8-4.5C175.8,50.8,175.3,51.2,175.3,51.2"/>
<path class="st0" d="M176.2,52c0,0-0.3-0.2-0.3,1.1c0,1.3-0.3,3.5,0.2,3.5c0.5,0.1,0.1-1.2,0.3-2.4C176.6,53.1,176.6,52,176.2,52"/>
<path class="st0" d="M183.6,50.2c-0.7-0.1-1-0.2-1,1.2c0,1.5-0.1,5.8-0.1,5.8s0.1,1.7-1,1.7c-1.2,0-1.2-0.7-1.2-2.3
	c0-1.6,0.4-5.8-0.6-6c0,0-0.8,0-0.8,1.4c0,1.5,0.1,5.6,0.1,6.3c0,0.7,0.3,2.5,2.3,2.7c2,0.3,2.5-2.6,2.6-5.3
	C183.8,53.1,184.3,50.3,183.6,50.2"/>
<path class="st0" d="M181.4,51.7c0,0-0.5-0.2-0.5,1c0,1.2-0.3,5,0.2,5c0.4,0,0.5-0.2,0.5-1.3C181.5,53.5,181.8,51.8,181.4,51.7"/>
<path class="st0" d="M159.4,16.5l0.6-4.5c0.1-0.7-0.1-1.1-0.9-1.2l-1.1-0.1l-0.9,6.7l1,0.1C159.1,17.5,159.3,17.2,159.4,16.5
	 M157.9,16.9l0.3-2.5l0.6,0.1l0.1-0.6l-0.6-0.1l0.4-2.5l0.3,0c0.4,0.1,0.5,0.2,0.5,0.6l-0.6,4.6c-0.1,0.4-0.2,0.5-0.6,0.4
	L157.9,16.9z"/>
<path class="st0" d="M106.3,49.9c0,0-0.9,0.1-0.9-0.8v-0.9h1.8c0.7,0,1.3-0.5,1.3-1.2c0-0.7-0.6-1.2-1.3-1.2h-1.8h-0.7h-0.9v0.6
	c0,0,0.5-0.1,0.5,0.5v2.6c0,0-0.1,0.4-0.6,0.4v0.5h2.5L106.3,49.9z M106.6,46.2c0.3,0,0.6,0.3,0.6,0.6c0,0.4-0.3,0.6-0.6,0.6h-1.2
	v-1.3H106.6z"/>
<path class="st0" d="M99.3,77.9h2.6c0,0,0.4,0.1,0.4,0.6h0.5V76l-0.4,0c0,0,0.1,0.9-0.8,0.9h-0.8v-1.8c0-0.7-0.6-1.3-1.2-1.3
	c-0.7,0-1.2,0.6-1.2,1.3v1.8v0.7v0.9h0.6C98.8,78.4,98.7,77.9,99.3,77.9 M98.6,75.7c0-0.4,0.3-0.6,0.6-0.6c0.4,0,0.6,0.3,0.6,0.6
	v1.2h-1.3V75.7z"/>
<path class="st0" d="M143.4,98.1c0,0-0.2,0.5-0.7,0.2c-0.5-0.4-2.1-1.5-2.1-1.5s-0.3-0.4,0-0.8l-0.4-0.3l-1.6,2.3l-0.6,0.8
	c-0.5,0.7-0.4,1.5,0.2,2c0.4,0.3,0.9,0.3,1.4,0c0,0.3,0.2,0.7,0.5,0.9c0.6,0.4,1.4,0.2,1.8-0.4l1-1.4l0.2-0.2l0.3-0.4l0.6-0.8
	L143.4,98.1z M139.2,99.7c-0.3-0.2-0.4-0.6-0.1-1l0.7-1c0.2,0,0.3,0,0.5,0.2c0.2,0.1,0.4,0.3,0.7,0.5l-0.8,1.1
	C139.9,99.8,139.5,99.9,139.2,99.7 M141.8,100.5c-0.2,0.3-0.6,0.4-0.9,0.1c-0.3-0.2-0.4-0.6-0.1-0.9l0.7-0.9c0.4,0.3,0.8,0.6,1,0.8
	L141.8,100.5z"/>
<path class="st0" d="M112.6,45.7c-1.4,0-2.6,1.1-2.6,2.4c0,1.3,1.2,2.4,2.6,2.4c1.4,0,2.6-1.1,2.6-2.4
	C115.2,46.7,114.1,45.7,112.6,45.7 M112.6,49.7c-0.4,0-1.1-0.8-1.1-1.7c0-0.9,0.6-1.7,1.1-1.7c0.4,0,1.1,0.8,1.1,1.7
	C113.7,48.9,113.1,49.7,112.6,49.7"/>
<path class="st0" d="M119.6,49.9c0,0-0.9,0.1-0.9-0.8v-0.9h0.8l1.3,2.1c0,0,0.9,0.2,1.5-0.6l-0.2-0.3c0,0-0.6,0.4-0.8-0.1
	c-0.2-0.3-0.5-0.9-0.7-1.2c0.7,0,1.3-0.6,1.3-1.2c0-0.7-0.6-1.2-1.3-1.2h-1.8H118h-0.9v0.6c0,0,0.5-0.1,0.5,0.5v2.6
	c0,0-0.1,0.4-0.6,0.4v0.5h2.5L119.6,49.9z M119.9,46.2c0.3,0,0.6,0.3,0.6,0.6c0,0.4-0.3,0.6-0.6,0.6h-1.2v-1.3H119.9z"/>
<path class="st0" d="M99.2,68.9h2.6c0,0,0.4,0.1,0.4,0.6h0.5V67l-0.4,0c0,0,0.1,0.9-0.8,0.9h-0.8v-0.8l2.1-1.3c0,0,0.2-0.9-0.6-1.5
	l-0.3,0.2c0,0,0.4,0.6-0.1,0.8c-0.4,0.2-0.9,0.5-1.2,0.7c0-0.7-0.6-1.3-1.2-1.3c-0.7,0-1.2,0.6-1.2,1.3v1.8v0.7v0.9h0.6
	C98.7,69.4,98.6,68.9,99.2,68.9 M98.6,66.7c0-0.4,0.3-0.6,0.6-0.6c0.4,0,0.6,0.3,0.6,0.6v1.2h-1.3V66.7z"/>
<path class="st0" d="M123.4,108.9c0,0,0.9,0.2,0.7,1.1c-0.1,0.2-0.1,0.5-0.2,0.8l-0.8-0.2l-0.7-2.4c0,0-0.8-0.4-1.6,0.1l0.1,0.4
	c0,0,0.7-0.2,0.8,0.3c0.1,0.4,0.3,1,0.3,1.3c-0.7-0.2-1.4,0.2-1.6,0.8c-0.2,0.7,0.2,1.3,0.9,1.5l2.4,0.7l0.8,0.2l0.2-0.6
	c0,0-0.5,0-0.3-0.6c0.2-0.6,0.7-2.5,0.7-2.5s0.2-0.4,0.7-0.3l0.1-0.5l-2.4-0.7L123.4,108.9z M121.6,111.6c0.1-0.3,0.4-0.5,0.8-0.4
	l1.2,0.3c-0.1,0.5-0.3,0.9-0.4,1.2l-1.2-0.3C121.7,112.2,121.5,111.9,121.6,111.6"/>
<path class="st0" d="M150.6,51.3c0,0,0.1,0.5-0.5,0.5h-2.6c0,0-0.4-0.1-0.4-0.6h-0.5v2.5l0.4,0c0,0-0.1-0.9,0.8-0.9h0.9v0.8
	l-2.1,1.3c0,0-0.2,0.9,0.6,1.5l0.3-0.2c0,0-0.4-0.6,0.1-0.8c0.3-0.2,0.9-0.5,1.2-0.7c0,0.7,0.6,1.3,1.2,1.3c0.7,0,1.2-0.6,1.2-1.3
	v-1.8v-0.7v-0.9H150.6z M150.7,54c0,0.4-0.3,0.6-0.6,0.6c-0.4,0-0.6-0.3-0.6-0.6v-1.2h1.3V54z"/>
<polygon class="st0" points="132,49.9 131.4,49.9 133.1,47.4 135.6,50.3 137.8,48 139.1,49.9 138.3,49.9 138.3,50.3 141.5,50.3 
	141.5,49.9 141,49.9 138.9,46.8 138.9,46.7 138.9,45.8 137.9,45.8 137.9,46.5 136.1,48.3 134.1,45.8 131.8,45.8 131.8,46.5 
	132.4,46.5 132.4,46.6 130.1,49.9 129.7,49.9 129.7,50.3 132,50.3 "/>
<polygon class="st0" points="145.5,49.6 145.1,49.6 145.1,46.5 145.5,46.5 145.5,45.8 143.3,45.8 143.3,46.5 143.7,46.5 143.7,49.6 
	143.3,49.6 143.3,50.3 145.5,50.3 "/>
<polygon class="st0" points="98.9,63 101.9,63 101.9,63.3 102.7,63.3 102.7,61.2 101.9,61.2 101.9,61.5 98.9,61.5 98.9,61.2 
	98.2,61.2 98.2,63.3 98.9,63.3 "/>
<polygon class="st0" points="98.9,54.3 102.8,51.8 98.9,48.7 98.9,47.9 98.2,47.9 98.2,50.1 98.9,50.1 98.9,49.5 101.1,51.2 
	98.9,52.6 98.9,52.4 98.2,52.4 98.2,55 98.9,55 "/>
<polygon class="st0" points="98.6,60.2 99.5,60.2 99.5,59.8 99.1,59.8 99.1,58.5 102,58.5 102,59.3 102.7,59.3 102.7,56.2 102,56.2 
	102,57 99.1,57 99.1,55.8 99.5,55.8 99.5,55.4 99.1,55.4 98.2,55.4 98.2,60.2 "/>
<polygon class="st0" points="98.9,72.8 101.9,72.8 101.9,73.2 102.7,73.2 102.7,71 101.9,71 101.9,71.4 98.9,71.4 98.9,71 98.2,71 
	98.2,73.2 98.9,73.2 "/>
<path class="st0" d="M138.8,103.7c-0.1,0-0.2-0.1-0.3-0.2l-1.9-2c-0.1-0.1-0.1-0.1-0.1-0.2c0,0,0.1-0.2,0.4-0.4l-0.4-0.4l-3.4,3.2
	l0.6,1.2l0.4-0.4c-0.1-0.2,0-0.7,0-0.7c0-0.1,0-0.2,0.1-0.2l1.4-1.3l2,2.1c0.1,0.1,0.2,0.3,0.2,0.3c0,0-0.5,0.5-0.8,0.8l0.4,0.4
	l2.2-2l-0.4-0.4C139,103.6,138.9,103.7,138.8,103.7"/>
<path class="st0" d="M106.7,98.2l2.3-1.5c0.1-0.1,0.2-0.1,0.2,0c0,0,0.1,0.2,0.3,0.4l0.5-0.3l-2.5-4l-1.2,0.3l0.3,0.5
	c0.2-0.1,0.7,0.1,0.7,0.1c0.1,0,0.2,0.1,0.2,0.2l1,1.6l-2.4,1.6c-0.1,0.1-0.3,0.2-0.3,0.2c0,0-0.4-0.6-0.6-0.9l-0.5,0.3l1.6,2.5
	l0.5-0.3c-0.2-0.2-0.2-0.4-0.3-0.5C106.5,98.4,106.6,98.3,106.7,98.2"/>
<path class="st0" d="M109.2,98.1l0.4,0.5c0.2-0.1,0.3-0.2,0.4-0.2c0.1,0,0.2-0.1,0.2-0.1c0.1,0,0.3,0.3,0.4,0.3l0.8,1.1l-1.2,0.9
	l-1.1-1.4l-0.5,0.4l1.1,1.4l-0.9,0.7l-1-1.2c0,0,0-0.1,0-0.1c0,0,0-0.1,0-0.2c0,0,0-0.1,0.1-0.1l0.2-0.3l-0.4-0.5l-0.8,1l2.5,3.1
	l0.4-0.3c-0.1-0.1-0.2-0.2-0.2-0.3c-0.1-0.1-0.1-0.1-0.1-0.2c0,0,0-0.1,0.1-0.1l2.4-1.9c0.1-0.1,0.1-0.1,0.2-0.1
	c0,0,0.1,0.1,0.3,0.4l0.4-0.3l-2.6-3.3L109.2,98.1z"/>
<path class="st0" d="M101.8,89l2.9-1c0.1,0,0.2,0,0.2,0c0,0,0.1,0.2,0.2,0.4l0.5-0.2l-1.3-4l-1.3,0.1l0.2,0.6c0.2,0,0.4,0,0.4,0
	c0.1,0,0.2,0,0.2,0c0.1,0,0.2,0.4,0.2,0.5l0.4,1.3l-1.4,0.5l-0.6-1.7l-0.6,0.2l0.6,1.7l-1.1,0.4l-0.5-1.4c0,0,0-0.1,0-0.1
	c0,0,0-0.1,0.1-0.1c0,0,0.1-0.1,0.1-0.1l0.3-0.2l-0.2-0.6l-1.1,0.7l1.3,3.8l0.5-0.2c-0.1-0.2-0.1-0.3-0.1-0.3c0-0.1,0-0.2,0-0.2
	C101.7,89,101.7,89,101.8,89"/>
<path class="st0" d="M100.4,84.2c0.5,0,0.9-0.6,1.2-1.5c0.1-0.3,0.1-0.6,0.2-0.9c0.1-0.4,0.2-0.7,0.3-0.8c0.1-0.1,0.3-0.2,0.4-0.2
	c0.1,0,0.2,0.1,0.3,0.2c0.1,0.1,0.1,0.3,0.2,0.6c0,0.3,0,0.8-0.1,1c-0.1,0.2-0.5,0.5-0.9,0.7l0.3,0.8c0.5-0.2,0.9-0.4,1.3-0.5
	c0.1-0.8,0.2-1.1,0.1-1.8c-0.1-1-0.3-1.4-0.7-1.9c-0.3-0.4-0.7-0.6-1.1-0.6c-0.3,0-0.6,0.2-0.8,0.5c-0.2,0.2-0.3,0.8-0.4,1.2
	c0,0.1-0.1,0.3-0.2,0.9c-0.1,0.4-0.2,0.7-0.3,0.8c0,0.1-0.1,0.1-0.2,0.1c-0.2,0-0.4-0.2-0.5-0.6c0-0.3-0.1-1.5,0-1.6
	c0.1-0.1,0.5-0.3,0.8-0.5l-0.2-0.7c-0.5,0.2-0.9,0.4-1.3,0.4c-0.1,0.7-0.2,1-0.1,1.7c0.1,0.8,0.3,1.5,0.5,1.9
	C99.6,84,100,84.2,100.4,84.2"/>
<path class="st0" d="M149.9,65.3c0.2,0.1,0.1,0.1,0.1,0.1c0.1,0.1,0.2,0.1,0.2,0.1c0,0,0.1,0.1,0.1,0.3v1.7l-3.2-2.9
	c0,0-0.5-0.6-0.5,0.4v4.5l1.2,0.4v-0.9c-0.3-0.1-0.2-0.2-0.3-0.3c-0.1-0.1-0.1-0.2-0.1-0.4v-1.4l3.3,2.8c0,0,0.5,0.3,0.5-0.4v-4.5
	l-1.3-0.3V65.3z"/>
<path class="st0" d="M147.4,57.3c0,0,0-0.2,0-0.4h-0.8v1.9h0.8v-0.4v0l0.8,0.4v2c-0.6,0.4-0.8,0.4-0.8,0.4s0-0.8,0-0.8h-0.8v3h0.8
	c0-0.2,0-0.4,0-0.4c0-0.1,0.1-0.1,0.2-0.2l3.6-2.1v-1.3l-3.7-2C147.5,57.4,147.4,57.3,147.4,57.3 M148.8,59.3l1,0.5l-1,0.6V59.3z"/>
<path class="st0" d="M147.3,71c0,0,0-0.2,0-0.4h-0.8v1.9h0.8V72v0l0.8,0.4v2c-0.6,0.4-0.8,0.4-0.8,0.4s0-0.8,0-0.8h-0.8v3.1h0.8
	c0-0.2,0-0.4,0-0.4c0-0.1,0.1-0.1,0.2-0.2l3.6-2.1V73l-3.7-2C147.4,71,147.4,71,147.3,71 M148.7,72.9l1,0.5l-1,0.6V72.9z"/>
<path class="st0" d="M132.7,105.3l-0.4-0.7l-1.6,1l0.4,0.7c0.2-0.1,0.3-0.2,0.3-0.2c0,0,0,0,0,0l0.1,0.9l-1.7,1.1
	c-0.6-0.3-0.8-0.4-0.8-0.4s0.7-0.4,0.7-0.4l-0.4-0.7l-2.6,1.6l0.4,0.7c0.2-0.1,0.3-0.2,0.4-0.2c0.1,0,0.1,0,0.3,0.1l3.7,1.9l1.1-0.7
	l-0.3-4.1c0-0.1,0-0.1,0-0.2C132.4,105.5,132.5,105.4,132.7,105.3 M130.5,108.4l0.9-0.6l0.1,1.1L130.5,108.4z"/>
<path class="st0" d="M119.1,106.1l-0.5,0.6c0.2,0.1,0.3,0.2,0.3,0.2c0,0,0,0,0,0l-0.8,0.4l-1.6-1.2c0.1-0.7,0.1-0.9,0.1-0.9
	s0.6,0.5,0.7,0.5l0.4-0.6l-2.5-1.8l-0.4,0.6c0.2,0.1,0.3,0.2,0.3,0.3c0,0,0,0.1,0,0.3l-0.3,4.2l1.1,0.8l3.7-1.8c0.1,0,0.1,0,0.2,0
	c0,0,0.2,0.1,0.3,0.2l0.5-0.6L119.1,106.1z M116.5,108.1l0.1-1.2l0.9,0.6L116.5,108.1z"/>
<path class="st0" d="M144.2,89.6c0,0,0.1-0.2,0.1-0.4l-0.7-0.3l-0.8,1.7l0.7,0.3c0.1-0.2,0.1-0.3,0.2-0.3c0,0,0,0,0,0l0.5,0.7
	l-0.8,1.8c-0.7,0.1-0.9,0.1-0.9,0.1s0.3-0.7,0.3-0.7l-0.7-0.3l-1.2,2.8l0.7,0.3c0.1-0.2,0.2-0.3,0.2-0.4c0,0,0.1-0.1,0.3-0.1
	l4.1-0.5l0.5-1.2l-2.5-3.3C144.2,89.7,144.2,89.6,144.2,89.6 M145.4,92.8l-1.1,0.1l0.4-1L145.4,92.8z"/>
<path class="st0" d="M149.5,83.1c0,0.1-0.1,0.1-0.1,0.2c0,0-0.2,0-0.3-0.1l-2.7-0.7c-0.1,0-0.2-0.1-0.2-0.1c0,0,0-0.2,0.1-0.5
	l-0.6-0.1l-0.6,2.3l0.6,0.1c0-0.2,0.1-0.2,0.1-0.3c0-0.1,0.1-0.1,0.1-0.1c0,0,0.1,0,0.2,0l1.1,0.3l-0.5,2l-1.1-0.3
	c-0.1,0-0.1-0.1-0.2-0.1c0,0,0-0.2,0.1-0.4l-0.6-0.2l-0.6,2.3l0.5,0.1c0.1-0.2,0.1-0.3,0.1-0.3c0-0.1,0.1-0.1,0.1-0.2
	c0,0,0.1,0,0.2,0l2.7,0.7c0.1,0,0.3,0.1,0.3,0.1c0,0,0,0.2-0.1,0.5l0.6,0.2l0.6-2.3l-0.6-0.2c0,0.2-0.1,0.2-0.1,0.3
	c0,0.1-0.1,0.1-0.1,0.1c0,0-0.2,0-0.3-0.1l-0.9-0.2l0.5-2l0.9,0.2c0.1,0,0.3,0.1,0.3,0.1c0,0,0,0.2-0.1,0.4l0.6,0.2l0.6-2.3
	l-0.6-0.2C149.5,83,149.5,83.1,149.5,83.1"/>
</svg>
