<?xml version="1.0" encoding="utf-8"?>
<!-- Generator: Adobe Illustrator 20.1.0, SVG Export Plug-In . SVG Version: 6.00 Build 0)  -->
<svg version="1.1" id="Layer_1" xmlns="http://www.w3.org/2000/svg" xmlns:xlink="http://www.w3.org/1999/xlink" x="0px" y="0px"
	 viewBox="0 0 70 30" style="enable-background:new 0 0 70 30;" xml:space="preserve">
<style type="text/css">
	.st0{fill:#FF0000;}
	.st1{fill:#FFFFFF;}
</style>
<g>
	<path class="st0" d="M21.9,10.2c-0.3-1-1-1.7-2-2c-1.7-0.5-8.7-0.5-8.7-0.5s-7,0-8.7,0.5c-1,0.3-1.7,1-2,2C0,11.9,0,15.6,0,15.6
		s0,3.6,0.5,5.4c0.3,1,1,1.7,2,2c1.7,0.5,8.7,0.5,8.7,0.5s7,0,8.7-0.5c1-0.3,1.7-1,2-2c0.5-1.7,0.5-5.4,0.5-5.4S22.3,11.9,21.9,10.2
		z"/>
	<polygon class="st1" points="8.9,18.9 14.7,15.6 8.9,12.2 	"/>
</g>
<g>
	<g>
		<path class="st1" d="M32.4,22c-0.4-0.3-0.8-0.8-0.9-1.4c-0.2-0.6-0.3-1.5-0.3-2.5v-1.4c0-1.1,0.1-1.9,0.3-2.5
			c0.2-0.6,0.5-1.1,1-1.4c0.5-0.3,1-0.4,1.8-0.4c0.7,0,1.3,0.1,1.7,0.4c0.4,0.3,0.8,0.8,1,1.4c0.2,0.6,0.3,1.5,0.3,2.5v1.4
			c0,1-0.1,1.9-0.3,2.5c-0.2,0.6-0.5,1.1-1,1.4c-0.4,0.3-1,0.4-1.8,0.4C33.5,22.4,32.9,22.3,32.4,22z M34.9,20.4
			c0.1-0.3,0.2-0.8,0.2-1.6v-3.1c0-0.7-0.1-1.2-0.2-1.5c-0.1-0.3-0.3-0.5-0.6-0.5c-0.3,0-0.5,0.2-0.6,0.5c-0.1,0.3-0.2,0.8-0.2,1.5
			v3.1c0,0.7,0.1,1.2,0.2,1.6c0.1,0.3,0.3,0.5,0.6,0.5C34.6,20.9,34.8,20.8,34.9,20.4z"/>
		<path class="st1" d="M66.3,18.1v0.5c0,0.6,0,1.1,0.1,1.4c0,0.3,0.1,0.5,0.2,0.7c0.1,0.1,0.3,0.2,0.5,0.2c0.3,0,0.6-0.1,0.7-0.4
			c0.1-0.3,0.2-0.7,0.2-1.3l1.9,0.1c0,0.1,0,0.2,0,0.4c0,0.9-0.2,1.6-0.7,2c-0.5,0.4-1.2,0.7-2.1,0.7c-1.1,0-1.8-0.3-2.3-1
			c-0.4-0.7-0.7-1.7-0.7-3.2v-1.7c0-1.5,0.2-2.5,0.7-3.2c0.5-0.7,1.2-1,2.3-1c0.8,0,1.3,0.1,1.7,0.4c0.4,0.3,0.7,0.7,0.9,1.3
			c0.2,0.6,0.2,1.4,0.2,2.4v1.7H66.3z M66.6,14c-0.1,0.1-0.2,0.4-0.2,0.7c0,0.3-0.1,0.8-0.1,1.4v0.7h1.6v-0.7c0-0.6,0-1.1-0.1-1.4
			c0-0.3-0.1-0.6-0.2-0.7c-0.1-0.1-0.3-0.2-0.5-0.2C66.9,13.8,66.7,13.8,66.6,14z"/>
		<path class="st1" d="M27,17.9l-2.5-9.1h2.2l0.9,4.1c0.2,1,0.4,1.9,0.5,2.6h0.1c0.1-0.5,0.2-1.4,0.5-2.6l0.9-4.1h2.2l-2.5,9.1v4.3
			H27V17.9z"/>
		<path class="st1" d="M44.4,12.5v9.8h-1.7l-0.2-1.2h0c-0.5,0.9-1.2,1.4-2.1,1.4c-0.6,0-1.1-0.2-1.4-0.6c-0.3-0.4-0.5-1.1-0.5-2
			v-7.3h2.2v7.2c0,0.4,0,0.7,0.1,0.9c0.1,0.2,0.3,0.3,0.5,0.3c0.2,0,0.4-0.1,0.6-0.2c0.2-0.1,0.3-0.3,0.4-0.4v-7.8H44.4z"/>
		<path class="st1" d="M55.7,12.5v9.8H54l-0.2-1.2h0c-0.5,0.9-1.2,1.4-2.1,1.4c-0.6,0-1.1-0.2-1.4-0.6c-0.3-0.4-0.5-1.1-0.5-2v-7.3
			h2.2v7.2c0,0.4,0,0.7,0.1,0.9c0.1,0.2,0.3,0.3,0.5,0.3c0.2,0,0.4-0.1,0.6-0.2c0.2-0.1,0.3-0.3,0.4-0.4v-7.8H55.7z"/>
		<path class="st1" d="M50.4,10.6h-2.2v11.6h-2.2V10.6h-2.2V8.9h6.5V10.6z"/>
		<path class="st1" d="M63,14c-0.1-0.6-0.3-1.1-0.6-1.3c-0.3-0.3-0.7-0.4-1.2-0.4c-0.4,0-0.8,0.1-1.1,0.3c-0.4,0.2-0.6,0.5-0.8,0.9
			h0l0-5.2H57v13.9h1.8l0.2-0.9h0c0.2,0.3,0.4,0.6,0.8,0.8c0.3,0.2,0.7,0.3,1.1,0.3c0.7,0,1.3-0.3,1.6-1c0.4-0.7,0.5-1.8,0.5-3.2
			v-1.5C63.2,15.5,63.1,14.6,63,14z M61,18c0,0.7,0,1.3-0.1,1.7c-0.1,0.4-0.2,0.7-0.3,0.9c-0.1,0.2-0.3,0.3-0.6,0.3
			c-0.2,0-0.3,0-0.5-0.1c-0.2-0.1-0.3-0.2-0.4-0.4v-5.6c0.1-0.3,0.2-0.5,0.4-0.7c0.2-0.2,0.4-0.3,0.6-0.3c0.2,0,0.4,0.1,0.5,0.3
			c0.1,0.2,0.2,0.5,0.3,0.9c0,0.4,0.1,1,0.1,1.8V18z"/>
	</g>
</g>
</svg>
